<svg width="191" height="45" viewBox="0 0 191 45" fill="none" xmlns="http://www.w3.org/2000/svg">
    <g clip-path="url(#l27kjd0koa)">
        <path d="m66.777 14.792-6.879 10.549H56.16l-2.476-10.549h3.05l1.605 8.806 5.32-8.806h3.118zM77.876 21.167c-.344 1.56-1.055 2.66-2.133 3.348-1.077.688-2.614 1.01-4.632 1.01-3.348 0-4.999-1.056-4.999-3.165 0-.367.046-.757.138-1.193.573-2.637 2.775-3.944 6.627-3.944 3.394 0 5.09 1.009 5.09 3.05.024.206-.022.504-.09.894zm-2.912 0c.046-.252.069-.481.069-.642 0-1.1-.826-1.651-2.5-1.651-1.124 0-1.972.275-2.591.803-.62.527-.917 1.33-.917 2.361 0 1.239.802 1.835 2.43 1.835 1.972 0 3.119-.894 3.509-2.706zM91.933 17.384l-1.582 7.452c-.413.138-1.17.275-2.225.436-1.055.16-2.155.23-3.279.23-1.422 0-2.522-.207-3.279-.597-.757-.39-1.147-.94-1.147-1.628 0-.115.023-.252.046-.413l1.17-5.48h2.843l-.963 4.563c-.046.16-.069.344-.069.527 0 .895.62 1.353 1.858 1.353.413 0 .894-.046 1.422-.115.527-.091.87-.16 1.031-.206l1.308-6.122h2.866zM103.651 17.91l-.367 1.675c-.114-.115-.458-.252-1.032-.436a5.38 5.38 0 0 0-1.628-.275c-1.17 0-2.087.275-2.752.803-.665.527-1.009 1.284-1.009 2.293 0 1.261.895 1.88 2.706 1.88.482 0 1.078-.092 1.789-.275.711-.183 1.124-.344 1.284-.459l-.367 1.674c-.206.115-.734.276-1.559.459-.826.183-1.674.252-2.568.252-1.376 0-2.431-.252-3.165-.78-.734-.527-1.078-1.307-1.078-2.361 0-1.674.574-2.936 1.697-3.83 1.124-.894 2.569-1.33 4.311-1.33.895 0 1.674.069 2.339.23.688.183 1.147.343 1.399.48zM116.63 19.837l-1.169 5.48h-2.844l.986-4.563a3.42 3.42 0 0 0 .069-.504c0-.894-.642-1.353-1.926-1.353-.459 0-.963.069-1.514.183-.55.115-.917.23-1.077.321l-1.262 5.94h-2.843l2.385-11.214h2.843l-.802 3.807c.321-.138.894-.298 1.696-.459a10.22 10.22 0 0 1 2.248-.252c1.055 0 1.857.183 2.43.527.574.344.872.849.872 1.514-.046.206-.069.413-.092.573zM130.274 19.47c-.367 1.697-3.141 2.569-8.347 2.569-.023.137-.023.252-.023.32 0 1.101 1.078 1.652 3.234 1.652.642 0 1.375-.092 2.201-.276.825-.183 1.33-.343 1.559-.481l-.321 1.56c-.321.137-.94.297-1.834.458a17.1 17.1 0 0 1-3.004.252c-1.56 0-2.706-.252-3.417-.78-.734-.527-1.078-1.307-1.078-2.361 0-.367.046-.78.138-1.216.252-1.215.986-2.178 2.201-2.89 1.216-.71 2.614-1.077 4.197-1.077 1.398 0 2.499.184 3.325.55.825.367 1.238.849 1.238 1.445-.023.069-.046.16-.069.275zm-2.729 0v-.069c0-.481-.733-.71-2.178-.71-.711 0-1.376.183-1.972.527-.596.367-.986.848-1.147 1.49 3.394-.022 5.16-.412 5.297-1.238zM140.502 17.315l-.344 1.628c-.046 0-.115-.023-.23-.023-.114 0-.252-.023-.389-.046-.161-.023-.276-.023-.367-.046-.688 0-1.72.138-3.05.413l-1.284 6.077h-2.867l1.582-7.384c.459-.138 1.193-.298 2.202-.459a15.99 15.99 0 0 1 2.866-.252c1.009-.023 1.628.023 1.881.092zM155.316 14.792l-1.308 6.192c-.343 1.513-1.1 2.637-2.247 3.393-1.169.757-2.66 1.147-4.494 1.147-1.537 0-2.729-.298-3.624-.871-.894-.574-1.33-1.445-1.33-2.591 0-.322.046-.666.115-1.055l1.33-6.215h2.935l-1.261 5.917c-.092.39-.115.71-.115.986 0 1.307.78 1.949 2.362 1.949.895 0 1.651-.252 2.248-.734.619-.482 1.032-1.238 1.238-2.201l1.238-5.894h2.913v-.023zM168.455 15.343l-.39 1.88c-.229-.16-.802-.344-1.72-.55a11.968 11.968 0 0 0-2.66-.298c-1.811 0-2.706.412-2.706 1.26 0 .276.184.482.551.666.367.183.894.344 1.605.527 1.536.39 2.591.711 3.141 1.01.918.48 1.376 1.123 1.376 1.88 0 .114-.023.298-.068.55-.092.436-.23.848-.436 1.192a3.112 3.112 0 0 1-.757.872c-.298.229-.642.435-.986.596-.344.16-.757.275-1.238.367-.459.091-.917.16-1.399.183-.459.046-.963.046-1.536.046-.711 0-1.445-.046-2.225-.16a25.474 25.474 0 0 1-1.788-.321c-.413-.115-.711-.184-.849-.253l.413-1.88c.321.183.94.367 1.811.573.895.207 1.766.298 2.638.298 2.201 0 3.302-.481 3.302-1.467 0-.344-.321-.642-.986-.849-.344-.091-.826-.23-1.468-.39s-1.169-.275-1.582-.412c-.413-.115-.849-.299-1.307-.505a2.653 2.653 0 0 1-1.032-.802c-.23-.322-.344-.734-.344-1.17 0-.665.16-1.238.481-1.697.321-.481.78-.848 1.33-1.1a7.8 7.8 0 0 1 1.835-.574 12.115 12.115 0 0 1 2.133-.183c.986 0 1.972.091 2.912.275.986.16 1.628.32 1.949.436zM183.062 19.814c-.412 1.904-1.261 3.302-2.568 4.174-1.307.894-3.119 1.33-5.458 1.33h-4.792l2.247-10.549h4.816c1.834 0 3.256.321 4.311.963 1.054.643 1.559 1.606 1.559 2.89.023.39-.023.78-.115 1.192zm-3.027 0a4.56 4.56 0 0 0 .115-.94c0-1.514-1.078-2.27-3.256-2.27h-1.858l-1.467 6.925h1.88c1.261 0 2.293-.298 3.05-.894.757-.597 1.261-1.537 1.536-2.82z" fill="#040040"/>
        <path d="m45.579 20.076-5.458 9.288c-1.055 1.811-2.89 2.705-4.747 2.705a5.468 5.468 0 0 1-4.746-2.705l-5.458-9.288 4.747-8.071.71-1.216c2.133-3.623 7.362-3.623 9.494 0l.711 1.216 4.747 8.071z" fill="url(#6ifmfyzurb)"/>
        <path d="m30.628 29.364-5.458 9.31c-1.055 1.811-2.912 2.706-4.747 2.706a5.49 5.49 0 0 1-4.747-2.706l-5.457-9.31-5.458-9.288-4.747-8.071 5.458-9.288c2.132-3.623 7.36-3.623 9.493 0l5.458 9.288 4.747 8.071 5.457 9.288z" fill="url(#cmzs0l7pfc)"/>
    </g>
    <defs>
        <linearGradient id="6ifmfyzurb" x1="32.975" y1="11.607" x2="39.038" y2="32.958" gradientUnits="userSpaceOnUse">
            <stop stop-color="#4D3DEE"/>
            <stop offset="1" stop-color="#BC4AE7"/>
        </linearGradient>
        <linearGradient id="cmzs0l7pfc" x1=".378" y1="11.411" x2="26.055" y2="27.338" gradientUnits="userSpaceOnUse">
            <stop stop-color="#F59900"/>
            <stop offset=".465" stop-color="#F34780"/>
            <stop offset="1" stop-color="#BC4AE7"/>
        </linearGradient>
        <clipPath id="l27kjd0koa">
            <path fill="#fff" d="M0 0h183.654v42.382H0z"/>
        </clipPath>
    </defs>
</svg>
