<svg xmlns="http://www.w3.org/2000/svg" width="200" height="200" fill="none" viewBox="0 0 200 200">
    <path fill="#000" d="M21.622 159.46v-18.919h37.837v37.838H21.622V159.46zm32.432 0v-13.514H27.027v27.027h27.027V159.46zm-21.622 0v-8.108H48.65v16.216H32.432v-8.108zm37.838 16.216v-2.703h-5.405v-10.81h5.405v-16.217h5.406v-5.405H64.865v-5.405H43.243v-5.406h5.406v-5.405H37.838v10.811h-5.406v-5.406h-10.81v-5.405h10.81v-10.811h-5.405v5.405h-5.405v-10.81h10.81v5.405h5.406v5.405h5.405v-5.405h5.406v5.405h10.81v-5.405h-5.405v-5.405H37.838v-5.406h16.216v-5.405H37.838v-5.406h-5.406v5.406h-10.81V81.082h5.405v5.405h32.432v-5.405h-5.405v-5.406h-10.81v5.406h-5.406v-5.406H27.027v-10.81h10.81v10.81h5.406v-5.405h10.811v-5.406h5.405v5.406h-5.405v5.405h5.405v5.406h5.406V70.27h5.405v-5.406h-5.405V48.65h10.81v5.405h5.406v5.406h-5.405v5.405h5.405v32.433h-10.81v-5.406h-5.406v5.406h-5.406v5.405h-5.405v5.406h5.405v5.405h5.406v5.405h10.81v-5.405H70.27v-5.405h-5.405v-5.406h10.81v10.811h5.406v-10.811h5.405v10.811h5.406V97.298h5.405v-5.406h5.406v5.406h-5.406v5.405h5.406v5.406h16.216v-5.406h-5.406v-5.405h-5.405V86.487h-5.405v-5.405h5.405v-5.406h5.405v-5.405h-5.405v-5.406h-5.405v10.811h-5.406v-5.405h-5.405v5.405h-5.406v-5.405h5.406v-5.406h-5.406V48.65h-5.405v-5.405h5.405v5.405h5.406V27.027h5.405v10.811h10.811v-5.405h-5.405v-10.81h10.81v5.404h-5.405v5.406h10.811v-5.405h5.405v-5.406h10.811v16.216h-10.811v-5.405h-5.405v10.81h5.405V59.46h5.406v-5.406h5.405v27.028h10.811v-5.406h-5.406v-10.81h10.811v16.216h10.811v-5.406h-5.405v-10.81h5.405v10.81h5.406v-5.405h10.81v10.81h-5.405v-5.405h-5.405v5.406h-5.406v16.216h5.406v5.405h-5.406v5.406h-10.811v5.405h-5.405v5.405h-10.811v-5.405h-5.405v-5.405h-5.406v10.81h5.406v5.406h16.216v5.405h10.811v-5.405h-5.406v-5.406h5.406v-5.405h5.405v5.405h5.406v5.406h5.405v-10.811h-5.405v-5.405h10.81v16.216h-5.405v10.811h5.405v10.81h-5.405v16.217h5.405v5.405h-16.216v10.811h-16.216v-5.406h10.811v-5.405h-10.811v-10.811h-5.406v10.811h-5.405v5.405h5.405v5.406h-10.81v-16.216h-5.406v10.81h-5.405v-5.405h-5.406v-21.622h5.406v16.217h5.405v-16.217h5.406v-10.81h-5.406v-5.406h-5.405v-5.405h5.405v-5.406h-5.405v-5.405h-5.406v21.622h5.406v5.405h-10.811v10.811h-5.405v10.811h5.405v5.405h-5.405v5.405h10.81v5.406h-10.81v-5.406h-5.406v-5.405h-5.405v10.811H70.27v-2.703zm16.216-8.108v-5.405h5.406v-16.217H81.08v5.406h5.405v5.405h-10.81v5.406H70.27v5.405h5.406v5.405h10.81v-5.405zm75.676-5.405v-5.406h5.406v-10.811h5.405v-5.405h-5.405v-16.216h-5.406v16.216h5.406v5.405h-5.406v5.406h-5.405v16.216h5.405v-5.405zm-27.027-2.703v-2.703h-5.405v5.406h5.405v-2.703zm-32.432-10.811v-2.703h-5.406v5.406h5.406v-2.703zm48.648-5.405v-8.108h-16.216v16.216h16.216v-8.108zm-10.811 0v-2.703h5.406v5.405h-5.406v-2.702zm-43.243-5.406v-2.702h10.811v-5.406h-10.81v-5.405h-5.406v5.405h5.405v5.406h-10.81v-5.406H81.08v5.406h-5.405v-5.406H70.27v-5.405h-5.405v-5.406h-5.406v5.406h-5.405v5.405h5.405v-5.405h5.406v5.405h5.405v5.406h5.406v5.405h21.621v-2.703zm-16.216-16.216v-2.703h-5.405v5.406h5.405v-2.703zm27.027-2.703v-5.405h-10.81v5.405h5.405v5.406h5.405v-5.406zm32.432-8.108v-2.702h-5.405v5.405h5.405v-2.703zm10.811-5.405v-2.703h5.406V86.487h-5.406v5.405h-5.405v5.406h-5.406v-5.406h-10.81v-5.405h-5.406v-5.405h5.406V64.865h-5.406V59.46h-5.405v-5.406h-5.406v5.406h-5.405V43.244h5.405v5.405h5.406v-5.405h-5.406v-5.406h-5.405v5.406h-5.405V59.46h5.405v5.405h5.405V59.46h5.406v16.216h-5.406v5.406h-5.405v5.405h5.405v10.81h5.406v-5.405h10.811v5.406h5.405v5.405h10.811v5.406h5.405v-2.703zM145.946 100v-2.702h5.405v5.405h-5.405V100zm-86.487-5.405v-2.703h5.406v-5.405h-5.406v5.405h-5.405v5.406h5.405v-2.703zm16.217-10.81v-2.703H70.27v5.405h5.406v-2.703zm0-27.028v-2.703H70.27v5.406h5.406v-2.703zm21.621-2.703V48.65h-5.405v10.81h5.405v-5.405zM129.73 29.73v-2.703h-5.406v5.406h5.406V29.73zm43.243 145.946v-2.703h5.405v5.406h-5.405v-2.703zm0-78.378v-5.406h-5.405v-5.405h5.405v5.405h5.405v10.811h-5.405v-5.405zM21.622 40.54V21.622h37.837V59.46H21.622V40.54zm32.432 0V27.028H27.027v27.026h27.027V40.541zm-21.622 0v-8.108H48.65v16.216H32.432v-8.108zm108.108 0V21.622h37.838V59.46H140.54V40.54zm32.433 0V27.028h-27.027v27.026h27.027V40.541zm-21.622 0v-8.108h16.217v16.216h-16.217v-8.108zm-86.486 0v-2.703h5.405v5.406h-5.405V40.54zm10.81-5.405v-2.703H70.27v-10.81h5.406v5.404h5.405v-5.405h5.405v5.405h-5.405v10.811h-5.405v-2.702z"/>
</svg>
