<svg width="109" height="48" viewBox="0 0 109 48" fill="none" xmlns="http://www.w3.org/2000/svg">
    <g clip-path="url(#tgcjha38na)">
        <path d="M7.172 15.97v2.61c0 .312.078.528.234.648.168.12.432.18.792.18h.342l.108 1.314L8.54 22h-.342c-.396 0-.744-.096-1.044-.288-.12 1.536-.624 2.724-1.512 3.564-.888.84-2.112 1.26-3.672 1.26H.836v-2.592H1.97c.756 0 1.338-.09 1.746-.27.42-.168.714-.462.882-.882.18-.408.27-.99.27-1.746V15.97h2.304zm1.113 3.438h2.16c1.128 0 2.19-.144 3.186-.432a15.989 15.989 0 0 0 3.078-1.278c-2.532-.876-4.008-1.314-4.428-1.314a.89.89 0 0 0-.63.234c-.168.144-.318.396-.45.756l-2.016-.648c.276-.936.684-1.65 1.224-2.142.54-.492 1.164-.738 1.872-.738.492 0 1.266.186 2.322.558 1.068.372 2.472.918 4.212 1.638l.342 2.826c-1.128.708-2.106 1.272-2.934 1.692-.828.42-1.722.768-2.682 1.044-.96.264-1.992.396-3.096.396h-2.16v-2.592zm3.69 4.014h2.142v2.142h-2.142v-2.142zm1.764 2.7h2.034v2.034H13.74v-2.034zm1.638-2.7h2.16v2.142h-2.16v-2.142zm8.074.522c.744 0 1.308-.066 1.692-.198.384-.12.648-.33.792-.63.156-.288.246-.702.27-1.242h-1.548c-1.14 0-2.046-.33-2.718-.99-.66-.672-.99-1.608-.99-2.808 0-.852.156-1.608.468-2.268.324-.672.762-1.188 1.314-1.548a3.47 3.47 0 0 1 1.908-.54c.768 0 1.44.18 2.016.54.588.36 1.038.87 1.35 1.53.324.66.486 1.422.486 2.286v3.528c0 1.488-.408 2.682-1.224 3.582-.804.9-2.076 1.35-3.816 1.35h-2.142v-2.592h2.142zm-.306-5.994c0 .492.12.858.36 1.098.24.228.624.342 1.152.342h1.548v-1.368c0-1.248-.522-1.872-1.566-1.872-.492 0-.864.168-1.116.504-.252.336-.378.768-.378 1.296zm13.787-.486c-.648 1.464-.971 2.67-.971 3.618 0 .96.221 1.674.666 2.142.444.48 1.175.72 2.195.72h1.548c1.74 0 2.61-.324 2.61-.972 0-.3-.227-.516-.683-.648-.624-.192-1.482-.3-2.575-.324v-2.592h5.959l.144 1.26L45.68 22h-.72c.18.264.27.612.27 1.044-.011.612-.227 1.182-.647 1.71-.408.54-.978.972-1.71 1.296-.732.324-1.566.486-2.502.486h-1.549c-1.056 0-1.974-.24-2.754-.72a4.731 4.731 0 0 1-1.764-1.962c-.396-.816-.593-1.728-.593-2.736 0-.696.12-1.464.36-2.304.252-.84.552-1.632.9-2.376l1.962 1.026zm8.55 1.944h1.746c.924 0 1.368-.36 1.332-1.08-.036-.528-.192-1.524-.468-2.988l2.142-.54c.408 1.764.612 3.024.612 3.78 0 .588-.132 1.146-.396 1.674a3.022 3.022 0 0 1-1.17 1.26c-.516.324-1.14.486-1.872.486h-1.926v-2.592zm1.566-8.946h2.394v2.34h-2.394v-2.34zM56.497 22c-1.26 0-2.19-.366-2.79-1.098-.588-.732-.882-1.716-.882-2.952V9.976h2.286v7.974c0 .456.024.78.072.972.06.192.18.324.36.396.192.06.51.09.954.09h.648l.108 1.332-.108 1.26h-.648zm.464-2.592h.468c.24 0 .42-.054.54-.162.132-.12.228-.312.288-.576l.468-1.728c.264-1.044.708-1.842 1.332-2.394.624-.552 1.374-.828 2.25-.828.696 0 1.314.192 1.854.576.552.372.984.894 1.296 1.566.312.66.468 1.404.468 2.232 0 .996-.162 1.812-.486 2.448-.324.624-.732 1.08-1.224 1.368a2.99 2.99 0 0 1-1.512.414c-.408 0-.84-.084-1.296-.252-.444-.156-1.11-.444-1.998-.864-.276.252-.582.45-.918.594a2.784 2.784 0 0 1-1.026.198h-.504v-2.592zm3.546-.378c.648.3 1.128.504 1.44.612.312.108.594.162.846.162.66 0 .99-.564.99-1.692 0-.612-.132-1.08-.396-1.404a1.245 1.245 0 0 0-1.026-.504 1.29 1.29 0 0 0-.918.378c-.264.252-.456.618-.576 1.098l-.36 1.35z" fill="#383A3C"/>
        <path d="M31.602 39c-.792 0-1.34-.212-1.644-.636-.304-.432-.456-1.064-.456-1.896l-.012-5.256h.936l.012 5.256c0 .432.024.744.072.936.056.192.16.328.312.408.16.072.42.108.78.108h.18l.06.552-.06.528h-.18zm.065-1.08h.336c.376 0 .608-.168.696-.504l.384-1.38c.176-.624.448-1.112.816-1.464.368-.36.812-.54 1.332-.54.416 0 .784.124 1.104.372.32.24.568.568.744.984.176.408.264.852.264 1.332 0 .592-.084 1.08-.252 1.464-.168.376-.388.648-.66.816a1.489 1.489 0 0 1-.84.264c-.304 0-.608-.06-.912-.18-.304-.112-.784-.336-1.44-.672-.16.184-.348.328-.564.432-.216.104-.44.156-.672.156h-.336v-1.08zm2.016-.468c.576.296.984.492 1.224.588.24.096.468.144.684.144.272 0 .476-.1.612-.3.136-.208.204-.596.204-1.164 0-.504-.1-.896-.3-1.176-.2-.288-.492-.432-.876-.432-.288 0-.54.1-.756.3-.208.2-.368.504-.48.912l-.312 1.128zm11.178-2.148v3.384c0 1.08-.271 1.904-.816 2.472-.544.576-1.328.864-2.352.864h-.755v-1.08h.755c.8 0 1.373-.172 1.717-.516.344-.344.516-.924.516-1.74v-3.384h.935zm-1.067-2.892h1.2v1.2h-1.2v-1.2zm2.688-1.2h.936L47.43 39h-.936l-.012-7.788zm8.715 4.092v1.704c0 .328.08.564.24.708.16.136.412.204.756.204h.12l.072.552-.072.528h-.12c-.408 0-.74-.112-.996-.336v.024c0 1.08-.272 1.904-.816 2.472-.544.576-1.328.864-2.352.864h-.756v-1.08h.756c.8 0 1.372-.172 1.716-.516.344-.344.516-.924.516-1.74v-3.384h.936zm.949 2.616h1.488c.552 0 1.064-.068 1.536-.204a7.04 7.04 0 0 0 1.284-.516c.384-.2.908-.5 1.572-.9a60.56 60.56 0 0 0-2.148-.864c-.488-.184-.828-.276-1.02-.276-.24 0-.428.056-.564.168-.128.104-.252.32-.372.648l-.912-.288c.368-1.072.984-1.608 1.848-1.608.272 0 .688.104 1.248.312a57.69 57.69 0 0 1 2.364.948l.588.24.24 1.14-.636.396a31.91 31.91 0 0 1-1.728 1.032 7.56 7.56 0 0 1-1.512.612c-.544.16-1.14.24-1.788.24h-1.488v-1.08zm2.52 2.268h1.2v1.2h-1.2v-1.2zm1.14 1.608h1.14v1.14h-1.14v-1.14zm1.068-1.608h1.2v1.2h-1.2v-1.2zm5.06.756c.56 0 .993-.068 1.297-.204.312-.128.528-.328.648-.6.12-.272.18-.632.18-1.08v-.072h-1.32c-.672 0-1.217-.2-1.633-.6-.407-.4-.611-.96-.611-1.68 0-.488.091-.932.275-1.332.193-.4.457-.716.793-.948a2.034 2.034 0 0 1 1.163-.348c.457 0 .856.112 1.2.336.344.216.608.524.793.924.184.4.276.856.276 1.368v2.352c0 .912-.245 1.632-.733 2.16-.48.536-1.255.804-2.328.804H64.65v-1.08h1.284zm-.504-4.236c0 .44.104.752.313.936.208.176.54.264.996.264h1.32v-1.2c0-.488-.112-.868-.337-1.14-.223-.28-.555-.42-.995-.42-.409 0-.728.144-.96.432-.224.28-.337.656-.337 1.128zM80.338 18.421c0-.603.484-1.092 1.083-1.092h5.784c.6 0 1.084.489 1.084 1.092a1.089 1.089 0 0 1-1.084 1.094H81.42a1.09 1.09 0 0 1-1.083-1.094z" fill="#7239EA"/>
        <path fill-rule="evenodd" clip-rule="evenodd" d="M104.782 19.006c-.093-.006-.195-.006-.3-.006h-4.159C96.916 19 94 21.604 94 25s2.916 6 6.323 6h4.159c.105 0 .207 0 .3-.006 1.384-.084 2.609-1.136 2.712-2.605.006-.096.006-.2.006-.296v-6.186c0-.096 0-.2-.006-.296-.103-1.47-1.328-2.52-2.712-2.605zm-4.825 7.595c.876 0 1.586-.717 1.586-1.601 0-.885-.71-1.6-1.587-1.6s-1.59.716-1.59 1.6c0 .885.713 1.6 1.59 1.6z" fill="#7239EA"/>
        <path opacity=".5" d="M104.71 19.003c0-1.771-.066-3.672-1.197-5.033a5.6 5.6 0 0 0-.35-.384c-1.123-1.122-2.546-1.62-4.304-1.857-1.71-.229-3.893-.229-6.65-.229h-3.168c-2.757 0-4.941 0-6.651.23-1.758.236-3.181.734-4.305 1.856-1.122 1.124-1.62 2.548-1.857 4.306C76 19.602 76 21.784 76 24.54v.168c0 2.757 0 4.941.23 6.65.236 1.758.734 3.181 1.856 4.304 1.124 1.123 2.547 1.62 4.305 1.858 1.71.229 3.893.229 6.65.229h3.168c2.757 0 4.941 0 6.65-.23 1.758-.237 3.181-.735 4.304-1.857.299-.3.564-.631.789-.99.676-1.08.756-2.403.756-3.675l-.224.002h-4.161C96.916 31 94 28.396 94 25s2.916-6 6.323-6h4.159c.078 0 .156 0 .228.003z" fill="#7239EA"/>
        <path d="M88.151 7.858 85 9.988l-2.6 1.74c1.707-.228 3.888-.228 6.64-.228h3.169c2.757 0 4.94 0 6.65.23.344.044.674.101.992.17L97 10l-3.17-2.142a5.127 5.127 0 0 0-5.679 0z" fill="#7239EA"/>
    </g>
    <defs>
        <clipPath id="tgcjha38na">
            <path fill="#fff" transform="translate(0 4)" d="M0 0h109v40H0z"/>
        </clipPath>
    </defs>
</svg>
