<svg width="14" height="14" viewBox="0 0 14 14" fill="none" xmlns="http://www.w3.org/2000/svg">
    <path opacity=".25" fill-rule="evenodd" clip-rule="evenodd" d="M7 2.333a4.667 4.667 0 1 0 2.074 8.849.583.583 0 1 1 .519 1.045A5.833 5.833 0 1 1 12.833 7v.005c0 .16 0 .818-.212 1.456-.108.325-.285.686-.583.97-.312.299-.73.486-1.247.486a.583.583 0 1 1 0-1.167.592.592 0 0 0 .44-.162c.113-.107.21-.275.283-.496.15-.45.152-.95.152-1.092A4.667 4.667 0 0 0 7 2.333z" fill="#5E6278"/>
    <path fill-rule="evenodd" clip-rule="evenodd" d="M8.75 7a1.75 1.75 0 1 1-3.5 0 1.75 1.75 0 0 1 3.5 0zm.438 1.929a2.917 2.917 0 1 1-.438-4.262.583.583 0 0 1 1.167 0c0 1.489.003 2.575.168 3.297.08.354.184.543.28.642.078.08.191.144.427.144a.583.583 0 1 1 0 1.167c-.494 0-.927-.154-1.26-.495a1.916 1.916 0 0 1-.344-.493z" fill="#5E6278"/>
</svg>
