<svg width="20" height="20" viewBox="0 0 20 20" fill="none" xmlns="http://www.w3.org/2000/svg">
    <path d="M10 1.667A8.326 8.326 0 0 0 1.667 10 8.326 8.326 0 0 0 10 18.333 8.326 8.326 0 0 0 18.334 10 8.326 8.326 0 0 0 10 1.667zm4.167 11.325-1.175 1.175L10 11.175 7.01 14.167l-1.175-1.175L8.825 10 5.834 7.008l1.175-1.175L10 8.825l2.992-2.992 1.175 1.175L11.175 10l2.992 2.992z" fill="#FF4C51"/>
    <path d="M10 1.667A8.326 8.326 0 0 0 1.667 10 8.326 8.326 0 0 0 10 18.333 8.326 8.326 0 0 0 18.334 10 8.326 8.326 0 0 0 10 1.667zm4.167 11.325-1.175 1.175L10 11.175 7.01 14.167l-1.175-1.175L8.825 10 5.834 7.008l1.175-1.175L10 8.825l2.992-2.992 1.175 1.175L11.175 10l2.992 2.992z" fill="#000" fill-opacity=".1"/>
</svg>
