<svg width="96" height="140" viewBox="0 0 96 140" fill="none" xmlns="http://www.w3.org/2000/svg">
    <path d="M22.863 95.786v2.496c0 .298.075.505.224.62.16.114.413.172.757.172h.328l.103 1.256-.103 1.223h-.328c-.378 0-.711-.092-.998-.276-.115 1.469-.597 2.605-1.446 3.409-.85.803-2.02 1.205-3.512 1.205h-1.084v-2.479h1.084c.723 0 1.28-.086 1.67-.258.402-.161.683-.442.844-.844.172-.39.258-.947.258-1.67v-4.854h2.203zm1.065 3.288h2.066c1.078 0 2.094-.138 3.047-.413a15.285 15.285 0 0 0 2.943-1.222c-2.421-.838-3.833-1.257-4.235-1.257a.851.851 0 0 0-.602.224c-.16.137-.304.378-.43.723l-1.928-.62c.264-.895.654-1.578 1.17-2.049a2.578 2.578 0 0 1 1.79-.705c.47 0 1.211.178 2.221.533 1.021.356 2.364.878 4.028 1.567l.327 2.702a36.6 36.6 0 0 1-2.806 1.619c-.792.401-1.646.734-2.565.998-.918.252-1.905.379-2.96.379h-2.066v-2.48zm3.529 3.839h2.048v2.048h-2.048v-2.048zm1.687 2.582h1.945v1.945h-1.945v-1.945zm1.566-2.582h2.066v2.048H30.71v-2.048zm7.721.499c.712 0 1.251-.063 1.618-.19.367-.114.62-.315.758-.602.149-.276.235-.671.258-1.188h-1.48c-1.09 0-1.957-.315-2.6-.947-.631-.642-.947-1.537-.947-2.685 0-.815.15-1.538.448-2.169.31-.643.729-1.136 1.257-1.48a3.319 3.319 0 0 1 1.824-.517c.735 0 1.377.172 1.928.517.563.344.993.832 1.291 1.463.31.631.465 1.36.465 2.186v3.374c0 1.423-.39 2.565-1.17 3.426-.77.86-1.986 1.291-3.65 1.291h-2.048v-2.479h2.048zm-.292-5.733c0 .471.114.821.344 1.05.23.219.597.328 1.102.328h1.48v-1.309c0-1.193-.5-1.79-1.498-1.79-.47 0-.826.16-1.067.482-.241.321-.361.735-.361 1.24zm13.185-.464c-.62 1.4-.93 2.553-.93 3.46 0 .918.213 1.601.638 2.048.424.459 1.124.689 2.1.689h1.48c1.664 0 2.496-.31 2.496-.93 0-.287-.218-.493-.654-.62-.597-.183-1.417-.286-2.462-.309v-2.48h5.698l.138 1.206-.138 1.274h-.688c.172.252.258.585.258.998-.012.585-.218 1.13-.62 1.635-.39.517-.935.93-1.635 1.24-.7.31-1.498.465-2.393.465h-1.48c-1.01 0-1.888-.23-2.634-.689a4.523 4.523 0 0 1-1.687-1.876c-.379-.781-.568-1.653-.568-2.617 0-.665.115-1.4.344-2.203.241-.803.528-1.56.86-2.272l1.877.98zm8.176 1.859h1.67c.883 0 1.308-.344 1.274-1.033-.035-.505-.184-1.457-.448-2.858l2.048-.516c.39 1.687.586 2.892.586 3.615 0 .562-.126 1.096-.379 1.6a2.893 2.893 0 0 1-1.119 1.206c-.493.31-1.09.465-1.79.465H59.5v-2.48zm1.498-8.555h2.29v2.237h-2.29V90.52zm9.036 11.034c-1.205 0-2.095-.35-2.668-1.05-.563-.7-.844-1.641-.844-2.823v-7.626h2.186v7.626c0 .436.023.745.07.93.057.183.171.309.343.378.184.057.488.086.913.086h.62l.103 1.274-.103 1.205h-.62zm.444-2.48h.447c.23 0 .402-.05.517-.154.126-.115.218-.298.275-.55l.448-1.653c.252-.999.677-1.762 1.273-2.29.597-.528 1.314-.792 2.152-.792.666 0 1.257.184 1.773.551.528.356.941.855 1.24 1.498.298.63.447 1.342.447 2.134 0 .953-.155 1.733-.465 2.341-.31.597-.7 1.033-1.17 1.309-.46.264-.941.395-1.446.395-.39 0-.803-.08-1.24-.241-.424-.149-1.061-.424-1.91-.826a3.099 3.099 0 0 1-.878.568c-.322.127-.648.19-.981.19h-.482v-2.48zm3.39-.36c.62.286 1.08.481 1.378.585a2.5 2.5 0 0 0 .809.154c.631 0 .947-.539.947-1.618 0-.585-.126-1.032-.379-1.342a1.19 1.19 0 0 0-.981-.482c-.333 0-.626.12-.878.361s-.436.591-.55 1.05l-.345 1.291z" fill="#383A3C"/>
    <path d="M28.637 125.33c-.884 0-1.495-.237-1.834-.71-.34-.482-.509-1.187-.509-2.115l-.013-5.864h1.044l.013 5.864c0 .482.027.83.08 1.044a.708.708 0 0 0 .349.455c.178.081.468.121.87.121h.2l.068.616-.067.589h-.2zm.072-1.205h.375c.42 0 .678-.188.776-.562l.429-1.54c.196-.696.5-1.241.91-1.634a2.05 2.05 0 0 1 1.486-.602c.465 0 .875.138 1.232.415.357.268.634.634.83 1.098.197.455.295.95.295 1.486 0 .661-.094 1.205-.281 1.633-.188.42-.433.723-.737.911a1.663 1.663 0 0 1-.937.294 2.77 2.77 0 0 1-1.018-.2c-.339-.125-.874-.375-1.606-.75a1.949 1.949 0 0 1-.63.482 1.71 1.71 0 0 1-.75.174h-.374v-1.205zm2.25-.522c.642.33 1.097.549 1.365.656.268.107.522.16.763.16.303 0 .531-.111.683-.334.152-.232.227-.665.227-1.299 0-.562-.111-1-.334-1.312-.223-.321-.55-.482-.978-.482-.321 0-.602.112-.843.335-.232.223-.41.562-.536 1.017l-.348 1.259zm12.472-2.397v3.776c0 1.205-.304 2.124-.91 2.758-.608.642-1.482.964-2.625.964h-.843v-1.205h.843c.893 0 1.53-.192 1.915-.576.383-.384.575-1.031.575-1.941v-3.776h1.045zm-1.192-3.227h1.339v1.339h-1.339v-1.339zm3-1.338h1.044l.014 8.689h-1.044l-.014-8.689zm9.724 4.565v1.901c0 .366.089.63.267.79.179.152.46.228.844.228h.134l.08.616-.08.589h-.134c-.455 0-.826-.125-1.111-.375v.027c0 1.205-.304 2.124-.91 2.758-.608.642-1.482.964-2.625.964h-.843v-1.205h.843c.893 0 1.53-.192 1.915-.576.383-.384.575-1.031.575-1.941v-3.776h1.045zm1.058 2.919h1.66c.616 0 1.187-.076 1.714-.228a7.817 7.817 0 0 0 1.432-.575 34.93 34.93 0 0 0 1.754-1.005 69.729 69.729 0 0 0-2.396-.964c-.545-.205-.924-.308-1.138-.308-.268 0-.478.063-.63.188-.142.116-.28.357-.415.723l-1.017-.321c.41-1.196 1.098-1.794 2.062-1.794.303 0 .767.116 1.392.348.634.232 1.513.584 2.638 1.057l.656.268.268 1.272-.71.442c-.777.491-1.42.875-1.928 1.151a8.387 8.387 0 0 1-1.687.683 7.03 7.03 0 0 1-1.995.268h-1.66v-1.205zm2.812 2.53h1.338v1.339h-1.338v-1.339zm1.272 1.794h1.271v1.272h-1.271v-1.272zm1.191-1.794h1.339v1.339h-1.339v-1.339zm5.646.844c.625 0 1.107-.076 1.446-.228.348-.143.59-.366.723-.669.134-.304.201-.705.201-1.205v-.081h-1.473c-.75 0-1.356-.223-1.82-.669-.456-.446-.683-1.071-.683-1.874 0-.545.102-1.04.308-1.487.214-.446.508-.798.883-1.057a2.268 2.268 0 0 1 1.299-.388c.509 0 .955.124 1.339.374.384.241.678.585.883 1.031.206.447.308.955.308 1.527v2.624c0 1.017-.272 1.821-.816 2.41-.536.598-1.402.897-2.598.897H65.51v-1.205h1.432zm-.562-4.726c0 .491.116.839.348 1.044.232.196.603.294 1.111.294h1.473v-1.338c0-.545-.125-.969-.375-1.272-.25-.313-.62-.469-1.111-.469-.455 0-.812.161-1.071.482-.25.312-.375.732-.375 1.259zM25.341 40.317a2.31 2.31 0 0 1 2.302-2.32h12.292a2.311 2.311 0 0 1 2.305 2.32 2.313 2.313 0 0 1-2.305 2.324H27.643a2.314 2.314 0 0 1-2.302-2.324z" fill="#9B51E0"/>
    <path fill-rule="evenodd" clip-rule="evenodd" d="M77.29 41.56c-.199-.012-.415-.012-.638-.012h-8.84c-7.24 0-13.436 5.534-13.436 12.75 0 7.218 6.197 12.752 13.436 12.752h8.84c.223 0 .44 0 .637-.013 2.942-.178 5.544-2.413 5.764-5.537.012-.204.012-.424.012-.628V47.726c0-.204 0-.424-.012-.628-.22-3.124-2.822-5.356-5.764-5.538zM67.033 57.7c1.862 0 3.373-1.524 3.373-3.401 0-1.881-1.511-3.401-3.373-3.401-1.865 0-3.379 1.523-3.379 3.4 0 1.882 1.514 3.402 3.38 3.402z" fill="#9B51E0"/>
    <path opacity=".5" d="M77.136 41.554c0-3.765-.14-7.803-2.544-10.695a12.026 12.026 0 0 0-.742-.816c-2.388-2.384-5.413-3.443-9.15-3.946-3.633-.488-8.272-.488-14.13-.488h-6.733c-5.86 0-10.5 0-14.135.488-3.736.503-6.761 1.562-9.149 3.946-2.384 2.388-3.442 5.413-3.946 9.149-.485 3.634-.485 8.272-.485 14.131v.357c0 5.86 0 10.5.488 14.132.504 3.736 1.562 6.761 3.947 9.149 2.387 2.384 5.412 3.442 9.149 3.946 3.634.488 8.272.488 14.13.488h6.733c5.86 0 10.5 0 14.132-.488 3.736-.504 6.76-1.562 9.149-3.946a12.145 12.145 0 0 0 1.676-2.104c1.435-2.296 1.607-5.107 1.607-7.81l-.478.003h-8.843c-7.24 0-13.436-5.534-13.436-12.751s6.197-12.751 13.436-12.751h8.84c.165 0 .331 0 .484.006z" fill="#9B51E0"/>
    <path d="m41.947 17.87-6.698 4.526-5.524 3.697c3.627-.484 8.262-.484 14.112-.484h6.732c5.86 0 10.5 0 14.132.488.733.095 1.434.216 2.11.363l-6.06-4.039-6.736-4.552a10.896 10.896 0 0 0-12.069 0z" fill="#9B51E0"/>
</svg>
