<svg width="20" height="21" viewBox="0 0 20 21" fill="none" xmlns="http://www.w3.org/2000/svg">
    <path d="M12.5 2.5H5c-.917 0-1.667.75-1.667 1.667V17.5c0 .917.75 1.667 1.667 1.667h10c.916 0 1.666-.75 1.666-1.667V6.667L12.5 2.5zM5 17.5V4.167h6.666V7.5H15v10H5zm8.333-8.333v4.166a3.332 3.332 0 1 1-6.667 0V7.917c0-1.225 1.05-2.2 2.3-2.075 1.084.108 1.867 1.1 1.867 2.191v5.3H9.166V7.917A.413.413 0 0 0 8.75 7.5a.413.413 0 0 0-.417.417v5.416C8.333 14.25 9.083 15 10 15c.916 0 1.666-.75 1.666-1.667V9.167h1.667z" fill="#fff"/>
</svg>
