<svg width="47" height="36" viewBox="0 0 47 36" fill="none" xmlns="http://www.w3.org/2000/svg">
    <g clip-path="url(#lcoj7jqzba)" fill-rule="evenodd" clip-rule="evenodd">
        <path d="M.5.41h66.224v2.713H.5V.41zm0 5.426h66.224V8.55H.5V5.836zm0 5.42h66.224v2.72H.5v-2.72zm0 5.425h66.224v2.713H.5v-2.713zm0 5.426h66.224v2.713H.5v-2.713zm0 5.42h66.224v2.712H.5v-2.713zm0 5.425h66.224v2.713H.5v-2.713z" fill="#BD3D44"/>
        <path d="M.5 3.123h66.224v2.713H.5V3.123zm0 5.426h66.224v2.706H.5V8.55zm0 5.42h66.224v2.712H.5v-2.713zm0 5.425h66.224v2.713H.5v-2.713zm0 5.426h66.224v2.713H.5V24.82zm0 5.42h66.224v2.712H.5V30.24z" fill="#fff"/>
        <path d="M.5.41h26.488v18.984H.5V.41z" fill="#192F5D"/>
        <path d="m2.706 1.223.245.75h.776l-.626.462.238.757-.633-.468-.627.461.239-.75-.633-.462h.79l.23-.75zm4.418 0 .238.75h.783l-.633.462.238.757-.626-.468-.633.461.238-.75-.626-.462h.776l.245-.75zm4.411 0 .245.75h.77l-.627.462.238.757-.633-.468-.626.461.238-.75-.633-.462h.783l.245-.75zm4.418 0 .238.75h.783l-.633.462.245.757-.633-.468-.633.461.245-.75-.633-.462h.776l.245-.75zm4.412 0 .245.75h.776l-.627.462.239.757-.634-.468-.626.461.238-.75-.626-.462h.776l.238-.75zm4.418 0 .238.75h.783l-.633.462.245.757-.633-.468-.634.461.245-.75-.633-.462h.783l.239-.75zm-19.865 1.9.238.75h.783l-.633.462.232.75-.613-.46-.633.46.225-.75-.613-.461h.776l.238-.75zm4.411 0 .246.75h.776l-.634.462.246.75-.634-.46-.633.46.245-.75-.633-.461h.783l.238-.75zm4.418 0 .239.75h.783l-.633.462.238.75-.627-.46-.633.46.239-.75-.627-.461h.776l.245-.75zm4.412 0 .245.75h.776l-.633.462.245.75-.633-.46-.627.46.239-.75-.633-.461h.79l.23-.75zm4.418 0 .238.75h.783l-.633.462.238.75-.626-.46-.633.46.238-.75-.626-.461h.776l.245-.75zM2.706 5.017l.245.764h.776l-.626.461.238.75-.633-.467-.627.468.239-.757-.633-.462h.79l.23-.757zm4.418 0 .238.757h.783l-.633.462.238.75-.626-.468-.633.468.238-.757-.626-.462h.776l.245-.75zm4.411 0 .245.757h.77l-.627.462.238.75-.633-.468-.626.468.238-.757-.633-.462h.783l.245-.75zm4.418 0 .238.757h.783l-.633.462.245.75-.633-.468-.633.468.245-.757-.633-.462h.776l.245-.75zm4.412 0 .245.757h.776l-.627.462.239.75-.634-.468-.626.468.238-.757-.626-.462h.776l.238-.75zm4.418 0 .238.757h.783l-.633.462.245.75-.633-.468-.634.468.245-.757-.633-.462h.783l.239-.75zm-19.865 1.9.238.75h.783l-.633.462.238.758-.626-.469-.633.462.238-.75-.626-.462h.776l.245-.75zm4.411 0 .246.75h.776l-.634.462.246.758-.634-.469-.633.462.245-.75-.633-.462h.783l.238-.75zm4.418 0 .239.75h.783l-.633.462.238.758-.627-.469-.633.462.239-.75-.627-.462h.776l.245-.75zm4.412 0 .245.75h.776l-.626.462.238.758-.633-.469-.627.462.239-.75-.633-.462h.79l.23-.75zm4.418 0 .238.75h.783l-.633.462.238.758-.626-.469-.633.462.238-.75-.626-.462h.776l.245-.75zm-19.871 1.9.245.751h.776l-.626.462.238.757-.633-.468-.627.461.239-.75-.633-.462h.79l.23-.75zm4.418 0 .238.751h.783l-.633.462.238.75-.626-.461-.633.461.238-.75-.626-.462h.776l.245-.75zm4.411 0 .245.751h.77l-.627.462.238.757-.633-.468-.626.461.238-.75-.633-.462h.783l.245-.75zm4.418 0 .238.751h.783l-.633.462.245.757-.633-.468-.633.461.245-.75-.633-.462h.776l.245-.75zm4.412 0 .245.751h.776l-.627.462.239.757-.634-.468-.626.461.238-.75-.626-.462h.776l.238-.75zm4.418 0 .238.751h.783l-.633.462.245.757-.633-.468-.634.461.245-.75-.633-.462h.783l.239-.75zM4.918 10.719l.238.75h.783l-.633.462.238.75-.626-.468-.633.469.238-.758-.626-.461h.776l.245-.744zm4.411 0 .246.75h.776l-.634.462.246.75-.634-.468-.633.469.245-.758-.633-.461h.783l.238-.744zm4.418 0 .239.75h.783l-.633.462.238.75-.627-.468-.633.469.239-.758-.627-.461h.776l.245-.744zm4.412 0 .245.75h.776l-.626.462.238.75-.633-.468-.627.469.239-.758-.633-.461h.79l.23-.744zm4.418 0 .238.75h.783l-.633.462.238.75-.626-.468-.633.469.238-.758-.626-.461h.776l.245-.744zM2.706 12.612l.245.757h.776l-.626.462.238.743-.633-.461-.627.461.239-.75-.633-.462h.79l.23-.75zm4.418 0 .238.757h.783l-.633.462.245.743-.633-.461-.633.461.245-.75-.633-.462h.776l.245-.75zm4.411 0 .245.757h.77l-.627.462.238.743-.633-.461-.626.461.238-.75-.633-.462h.783l.245-.75zm4.418 0 .238.757h.783l-.633.462.245.743-.633-.461-.633.461.245-.75-.633-.462h.776l.245-.75zm4.412 0 .245.757h.776l-.627.462.239.743-.634-.461-.626.461.238-.75-.626-.462h.776l.238-.75zm4.418 0 .238.757h.783l-.633.462.245.743-.633-.461-.634.461.245-.75-.633-.462h.783l.239-.75zm-19.865 1.9.238.75h.783l-.633.462.238.758-.626-.469-.633.462.238-.75-.626-.462h.776l.245-.75zm4.411 0 .246.75h.776l-.634.462.246.758-.634-.469-.633.462.245-.75-.633-.462h.783l.238-.75zm4.418 0 .239.75h.783l-.633.462.238.758-.627-.469-.633.462.239-.75-.627-.462h.776l.245-.75zm4.412 0 .245.75h.776l-.626.462.238.758-.633-.469-.627.462.239-.75-.633-.462h.79l.23-.75zm4.418 0 .238.75h.783l-.633.462.238.758-.626-.469-.633.462.238-.75-.626-.462h.776l.245-.75zm-19.871 1.9.245.751h.776l-.626.462.238.75-.633-.461-.627.461.239-.757-.633-.462h.79l.23-.743zm4.418 0 .238.751h.783l-.633.462.245.75-.633-.461-.633.461.245-.757-.633-.462h.776l.245-.743zm4.411 0 .245.751h.77l-.613.462.238.75-.633-.461-.626.461.238-.757-.633-.462h.783l.231-.743zm4.418 0 .238.751h.783l-.633.462.245.75-.633-.461-.633.461.245-.757-.633-.462h.776l.245-.743zm4.412 0 .245.751h.776l-.627.462.239.75-.634-.461-.626.461.238-.757-.626-.462h.776l.238-.743zm4.418 0 .238.751h.783l-.633.462.245.75-.633-.461-.634.461.245-.757-.633-.462h.783l.239-.743z" fill="#fff"/>
    </g>
    <defs>
        <clipPath id="lcoj7jqzba">
            <rect x=".5" y=".41" width="46.473" height="35.255" rx="6.41" fill="#fff"/>
        </clipPath>
    </defs>
</svg>
