<svg width="28" height="29" viewBox="0 0 28 29" fill="none" xmlns="http://www.w3.org/2000/svg">
    <g clip-path="url(#j6cz5foeta)">
        <path d="M27.985 14.762c0-1.147-.095-1.984-.301-2.853H14.279v5.178h7.868c-.158 1.287-1.015 3.225-2.919 4.527l-.026.173 4.238 3.209.294.028c2.696-2.434 4.251-6.015 4.251-10.262z" fill="#4285F4"/>
        <path d="M14.279 28.404c3.855 0 7.091-1.24 9.455-3.38l-4.506-3.41c-1.205.822-2.823 1.395-4.949 1.395a8.577 8.577 0 0 1-8.122-5.798l-.168.014-4.407 3.333-.058.157c2.348 4.557 7.17 7.689 12.755 7.689z" fill="#34A853"/>
        <path d="M6.157 17.211a8.413 8.413 0 0 1-.476-2.759c0-.961.174-1.891.46-2.76l-.008-.184L1.67 8.12l-.146.068a13.707 13.707 0 0 0-1.523 6.263c0 2.248.556 4.371 1.523 6.263l4.633-3.504z" fill="#FBBC05"/>
        <path d="M14.279 5.895c2.68 0 4.49 1.131 5.52 2.077l4.03-3.844C21.354 1.88 18.134.5 14.279.5 8.695.5 3.872 3.631 1.524 8.189l4.617 3.504a8.613 8.613 0 0 1 8.138-5.798z" fill="#EB4335"/>
    </g>
    <defs>
        <clipPath id="j6cz5foeta">
            <path fill="#fff" transform="translate(0 .5)" d="M0 0h28v28H0z"/>
        </clipPath>
    </defs>
</svg>
