<svg width="24" height="24" viewBox="0 0 24 24" fill="none" xmlns="http://www.w3.org/2000/svg">
    <path d="M11.29 2.29a1 1 0 0 1 .33-.21.94.94 0 0 1 .76 0 1 1 0 0 1 .33.21L15 4.54A1.032 1.032 0 1 1 13.54 6L13 5.41V9a1 1 0 1 1-2 0V5.41l-.54.59A1.032 1.032 0 1 1 9 4.54l2.29-2.25z" fill="#fff"/>
    <path d="M12 12a3 3 0 1 0 0 5.999A3 3 0 0 0 12 12zm0 4a1 1 0 1 1 0-2 1 1 0 0 1 0 2zm7-1a1 1 0 1 0-2 0 1 1 0 0 0 2 0zm1-7h-3a1 1 0 1 0 0 2h3a1 1 0 0 1 1 1v8a1 1 0 0 1-1 1H4a1 1 0 0 1-1-1v-8a1 1 0 0 1 1-1h3a1 1 0 0 0 0-2H4a3 3 0 0 0-3 3v8a3 3 0 0 0 3 3h16a3 3 0 0 0 3-3v-8a3 3 0 0 0-3-3zM5 15a1 1 0 1 0 2 0 1 1 0 0 0-2 0z" fill="#fff"/>
</svg>
