<svg width="25" height="25" viewBox="0 0 25 25" fill="none" xmlns="http://www.w3.org/2000/svg">
    <path d="M4.5 5.913H4v3.329l.25.144a3.494 3.494 0 0 1 0 6.054l-.25.144v3.33h17v-3.33l-.25-.144a3.494 3.494 0 0 1 0-6.054l.25-.144V5.913H4.5zm0-1h16c.834 0 1.5.666 1.5 1.5v3.55a2.5 2.5 0 0 0 0 4.9v3.55c0 .834-.666 1.5-1.5 1.5h-16a1.5 1.5 0 0 1-1.5-1.5v-3.55c1.145-.23 2-1.235 2-2.45a2.5 2.5 0 0 0-2-2.45v-3.55a1.5 1.5 0 0 1 1.5-1.5z" fill="#BC4AE7" stroke="#BC4AE7"/>
    <path d="m15.586 11.801-1.179 1.148.28 1.623a.732.732 0 0 1-.297.724.73.73 0 0 1-.78.055l-1.455-.765-1.458.766a.737.737 0 0 1-.343.087.738.738 0 0 1-.434-.142.736.736 0 0 1-.295-.725l.278-1.623-1.179-1.148a.737.737 0 0 1 .413-1.262l1.626-.237.73-1.477a.738.738 0 0 1 .662-.412h.002a.736.736 0 0 1 .662.413l.73 1.476 1.628.238a.732.732 0 0 1 .596.501.73.73 0 0 1-.187.76z" fill="#BC4AE7"/>
</svg>
