<svg width="28" height="28" viewBox="0 0 28 28" fill="none" xmlns="http://www.w3.org/2000/svg">
    <path d="M13.172 11.328c.11.106.242.19.385.245a1.097 1.097 0 0 0 .887 0c.143-.056.274-.139.385-.245L17.5 8.703A1.204 1.204 0 1 0 15.797 7l-.63.688V3.5a1.167 1.167 0 1 0-2.333 0v4.188L12.204 7A1.205 1.205 0 0 0 10.5 8.703l2.672 2.625z" fill="#95E6B7"/>
    <path d="M14 14a3.5 3.5 0 1 0 0 7 3.5 3.5 0 0 0 0-7zm0 4.666a1.166 1.166 0 1 1 0-2.332 1.166 1.166 0 0 1 0 2.332zm8.166-1.166a1.167 1.167 0 1 0-2.333 0 1.167 1.167 0 0 0 2.334 0zm1.167-8.167h-3.5a1.167 1.167 0 0 0 0 2.333h3.5a1.167 1.167 0 0 1 1.167 1.167v9.333a1.167 1.167 0 0 1-1.167 1.167H4.667A1.167 1.167 0 0 1 3.5 22.166v-9.333a1.167 1.167 0 0 1 1.167-1.167h3.5a1.167 1.167 0 1 0 0-2.333h-3.5a3.5 3.5 0 0 0-3.5 3.5v9.333a3.5 3.5 0 0 0 3.5 3.5h18.666a3.5 3.5 0 0 0 3.5-3.5v-9.333a3.5 3.5 0 0 0-3.5-3.5zM5.833 17.5a1.166 1.166 0 1 0 2.333 0 1.166 1.166 0 0 0-2.333 0z" fill="#17C653"/>
</svg>
