<svg width="28" height="28" viewBox="0 0 28 28" fill="none" xmlns="http://www.w3.org/2000/svg">
    <path d="M13.172 2.672c.11-.106.241-.19.385-.245a1.096 1.096 0 0 1 .886 0c.143.056.274.139.385.245L17.5 5.297A1.204 1.204 0 1 1 15.797 7l-.63-.688V10.5a1.167 1.167 0 0 1-2.334 0V6.312l-.63.688A1.204 1.204 0 1 1 10.5 5.297l2.672-2.625z" fill="#95E6B7"/>
    <path d="M14 14a3.5 3.5 0 1 0 0 7 3.5 3.5 0 0 0 0-7zm0 4.667a1.167 1.167 0 1 1 0-2.334 1.167 1.167 0 0 1 0 2.334zm8.167-1.167a1.167 1.167 0 1 0-2.334 0 1.167 1.167 0 0 0 2.334 0zm1.166-8.166h-3.5a1.167 1.167 0 0 0 0 2.333h3.5a1.167 1.167 0 0 1 1.167 1.167v9.333a1.167 1.167 0 0 1-1.167 1.166H4.667A1.167 1.167 0 0 1 3.5 22.168v-9.334a1.167 1.167 0 0 1 1.167-1.166h3.5a1.167 1.167 0 1 0 0-2.333h-3.5a3.5 3.5 0 0 0-3.5 3.5v9.333a3.5 3.5 0 0 0 3.5 3.5h18.666a3.5 3.5 0 0 0 3.5-3.5v-9.334a3.5 3.5 0 0 0-3.5-3.5zM5.833 17.5a1.166 1.166 0 1 0 2.333 0 1.166 1.166 0 0 0-2.333 0z" fill="#17C653"/>
</svg>
