<svg width="24" height="24" viewBox="0 0 24 24" fill="none" xmlns="http://www.w3.org/2000/svg">
    <path d="M13.586 2A2 2 0 0 1 15 2.586L19.414 7A2 2 0 0 1 20 8.414V20a2 2 0 0 1-2 2H6a2 2 0 0 1-2-2V4a2 2 0 0 1 2-2h7.586zM12 4H6v16h12V10h-4.5A1.5 1.5 0 0 1 12 8.5V4zm2 .414V8h3.586L14 4.414z" fill="#7E8299"/>
    <path d="M11.5 12.88a1 1 0 0 0-1.708-.707l-2.12 2.121a1 1 0 0 0 0 1.414l2.12 2.122a1 1 0 0 0 1.415-1.414l-1.414-1.415 1.414-1.414a1 1 0 0 0 .293-.707zM16.328 14.294l-2.121-2.12v-.002a1 1 0 0 0-1.414 1.414L14.207 15l-1.414 1.416a1 1 0 1 0 1.415 1.414l2.12-2.122a1 1 0 0 0 0-1.414z" fill="#383A3C"/>
</svg>
