<svg width="24" height="24" viewBox="0 0 24 24" fill="none" xmlns="http://www.w3.org/2000/svg">
    <path d="M13.005 6v2h2.5v2h-5.5a.5.5 0 0 0-.09.992l.09.008h4a2.5 2.5 0 0 1 0 5h-1v2h-2v-2h-2.5v-2h5.5a.5.5 0 0 0 .09-.992l-.09-.008h-4a2.5 2.5 0 0 1 0-5h1V6h2z" fill="#383A3C"/>
    <path d="M12.005 2c5.523 0 10 4.477 10 10s-4.477 10-10 10a9.96 9.96 0 0 1-6.383-2.302l-.244-.209.9-1.902a8 8 0 1 0-2.27-5.837l-.003.25h2.5l-2.706 5.716A9.954 9.954 0 0 1 2.005 12c0-5.523 4.477-10 10-10z" fill="#7E8299"/>
</svg>
