<svg width="29" height="28" viewBox="0 0 29 28" fill="none" xmlns="http://www.w3.org/2000/svg">
    <path d="M13.838 2.672c.11-.106.242-.19.385-.245a1.097 1.097 0 0 1 .887 0c.143.056.274.139.385.245l2.671 2.625A1.204 1.204 0 1 1 16.463 7l-.63-.688V10.5a1.167 1.167 0 1 1-2.333 0V6.312L12.87 7a1.204 1.204 0 0 1-1.704-1.703l2.672-2.625z" fill="#FFD783"/>
    <path d="M14.666 14a3.5 3.5 0 1 0 0 7 3.5 3.5 0 0 0 0-7zm0 4.667a1.166 1.166 0 1 1 0-2.333 1.166 1.166 0 0 1 0 2.333zm8.167-1.167a1.167 1.167 0 1 0-2.333 0 1.167 1.167 0 0 0 2.333 0zM24 9.334h-3.5a1.167 1.167 0 0 0 0 2.333H24a1.167 1.167 0 0 1 1.166 1.167v9.333A1.167 1.167 0 0 1 24 23.333H5.333a1.167 1.167 0 0 1-1.167-1.166v-9.334a1.167 1.167 0 0 1 1.167-1.166h3.5a1.167 1.167 0 1 0 0-2.333h-3.5a3.5 3.5 0 0 0-3.5 3.5v9.333a3.5 3.5 0 0 0 3.5 3.5H24a3.5 3.5 0 0 0 3.5-3.5v-9.334a3.5 3.5 0 0 0-3.5-3.5zM6.5 17.5a1.166 1.166 0 1 0 2.333 0 1.166 1.166 0 0 0-2.333 0z" fill="#FFB822"/>
</svg>
