<svg width="25" height="25" viewBox="0 0 25 25" fill="none" xmlns="http://www.w3.org/2000/svg">
    <path d="M2.5 14.413c0-3.77 0-5.657 1.172-6.828C4.843 6.413 6.729 6.413 10.5 6.413h4c3.771 0 5.657 0 6.828 1.172C22.5 8.756 22.5 10.642 22.5 14.413c0 3.771 0 5.657-1.172 6.828-1.171 1.172-3.057 1.172-6.828 1.172h-4c-3.771 0-5.657 0-6.828-1.172C2.5 20.071 2.5 18.184 2.5 14.413z" stroke="#4D3DEE" stroke-width="1.5"/>
    <path opacity=".5" d="M16.5 6.413c0-1.886 0-2.828-.586-3.414-.586-.586-1.528-.586-3.414-.586-1.886 0-2.828 0-3.414.586C8.5 3.585 8.5 4.527 8.5 6.413" stroke="#4D3DEE" stroke-width="1.5"/>
    <path opacity=".5" d="M12.5 17.746c1.105 0 2-.746 2-1.666 0-.92-.895-1.667-2-1.667s-2-.746-2-1.667c0-.92.895-1.666 2-1.666m0 6.666c-1.105 0-2-.746-2-1.666m2 1.666v.667m0-7.333v-.667m0 .667c1.105 0 2 .746 2 1.666" stroke="#4D3DEE" stroke-width="1.5" stroke-linecap="round"/>
</svg>
