<svg width="29" height="28" viewBox="0 0 29 28" fill="none" xmlns="http://www.w3.org/2000/svg">
    <path d="M13.505 2.672c.11-.106.242-.19.385-.245a1.097 1.097 0 0 1 .887 0c.143.056.274.139.385.245l2.671 2.625A1.204 1.204 0 1 1 16.13 7l-.63-.688V10.5a1.167 1.167 0 1 1-2.333 0V6.312l-.63.688a1.205 1.205 0 0 1-1.704-1.703l2.672-2.625z" fill="#ABC7FF"/>
    <path d="M14.333 14a3.5 3.5 0 1 0 0 7 3.5 3.5 0 0 0 0-7zm0 4.667a1.166 1.166 0 1 1 0-2.333 1.166 1.166 0 0 1 0 2.333zM22.5 17.5a1.167 1.167 0 1 0-2.333 0 1.167 1.167 0 0 0 2.333 0zm1.167-8.166h-3.5a1.167 1.167 0 1 0 0 2.333h3.5a1.167 1.167 0 0 1 1.166 1.167v9.333a1.167 1.167 0 0 1-1.166 1.166H5a1.167 1.167 0 0 1-1.167-1.166v-9.334A1.167 1.167 0 0 1 5 11.668h3.5a1.167 1.167 0 1 0 0-2.333H5a3.5 3.5 0 0 0-3.5 3.5v9.333a3.5 3.5 0 0 0 3.5 3.5h18.667a3.5 3.5 0 0 0 3.5-3.5v-9.334a3.5 3.5 0 0 0-3.5-3.5zM6.167 17.5a1.166 1.166 0 1 0 2.332 0 1.166 1.166 0 0 0-2.332 0z" fill="#1B84FF"/>
</svg>
