<svg width="24" height="24" viewBox="0 0 24 24" fill="none" xmlns="http://www.w3.org/2000/svg">
    <path d="M5.25 7.875a2.625 2.625 0 1 1 5.25 0 2.625 2.625 0 0 1-5.25 0zM7.875 3.75a4.125 4.125 0 1 0 0 8.25 4.125 4.125 0 0 0 0-8.25zm-6.375 12a2.25 2.25 0 0 1 2.25-2.25H12a2.25 2.25 0 0 1 2.25 2.25v.17c-.002.07-.007.14-.015.209-.015.13-.043.306-.098.514a4.2 4.2 0 0 1-.749 1.513c-.877 1.127-2.528 2.094-5.513 2.094s-4.635-.968-5.513-2.094a4.2 4.2 0 0 1-.75-1.513 3.75 3.75 0 0 1-.11-.673l-.001-.05v-.018l-.001-.006v-.146zm1.5.133v.01a2.183 2.183 0 0 0 .064.373c.067.261.204.614.48.968.53.678 1.691 1.516 4.331 1.516 2.64 0 3.803-.838 4.33-1.515a2.7 2.7 0 0 0 .48-.969c.032-.122.054-.247.065-.373V15.75A.75.75 0 0 0 12 15H3.75a.75.75 0 0 0-.75.75v.133z" fill="#383A3C"/>
    <path d="M15.75 9a1.5 1.5 0 1 1 3 0 1.5 1.5 0 0 1-3 0zm1.5-3a3 3 0 1 0 0 6 3 3 0 0 0 0-6zm-2.642 12.369c.697.237 1.565.381 2.642.381 2.4 0 3.765-.715 4.51-1.594.362-.427.547-.86.641-1.194.05-.178.083-.361.097-.546v-.027l.001-.017v-.028a1.843 1.843 0 0 0-1.842-1.844h-6.142c.375.42.647.932.776 1.5h5.366c.187 0 .338.15.343.335l-.003.032a1.496 1.496 0 0 1-.039.188 1.689 1.689 0 0 1-.343.632c-.38.45-1.266 1.063-3.365 1.063-.874 0-1.537-.107-2.04-.262a5.25 5.25 0 0 1-.602 1.381z" fill="#7E8299"/>
</svg>
