<svg width="20" height="21" viewBox="0 0 20 21" fill="none" xmlns="http://www.w3.org/2000/svg">
    <path d="M9.992 2.374c-4.6 0-8.325 3.734-8.325 8.334s3.725 8.333 8.325 8.333c4.608 0 8.341-3.733 8.341-8.333S14.6 2.374 9.992 2.374zm5.775 5h-2.459a13.042 13.042 0 0 0-1.15-2.966 6.691 6.691 0 0 1 3.609 2.966zM10 4.074c.692 1 1.233 2.109 1.592 3.3H8.408c.359-1.191.9-2.3 1.592-3.3zm-6.45 8.3a6.868 6.868 0 0 1-.217-1.666c0-.575.084-1.134.217-1.667h2.817c-.067.55-.117 1.1-.117 1.667 0 .566.05 1.116.117 1.666H3.55zm.683 1.667h2.459c.266 1.042.65 2.042 1.15 2.967a6.656 6.656 0 0 1-3.609-2.967zm2.459-6.667H4.233a6.656 6.656 0 0 1 3.609-2.966 13.04 13.04 0 0 0-1.15 2.966zM10 17.341a11.74 11.74 0 0 1-1.592-3.3h3.184c-.359 1.192-.9 2.3-1.592 3.3zm1.95-4.967h-3.9a12.26 12.26 0 0 1-.133-1.666c0-.567.058-1.125.133-1.667h3.9c.075.542.133 1.1.133 1.667 0 .566-.058 1.116-.133 1.666zm.208 4.634c.5-.925.884-1.925 1.15-2.967h2.459a6.691 6.691 0 0 1-3.609 2.967zm1.475-4.634c.067-.55.117-1.1.117-1.666 0-.567-.05-1.117-.117-1.667h2.817c.133.533.217 1.092.217 1.667s-.084 1.133-.217 1.666h-2.817z" fill="#4D3DEE"/>
</svg>
