<svg width="26" height="26" viewBox="0 0 26 26" fill="none" xmlns="http://www.w3.org/2000/svg">
    <path opacity=".25" d="M7.087 2.566a5.212 5.212 0 0 0-4.52 4.521 45.597 45.597 0 0 0-.4 5.913c0 2.23.183 4.277.4 5.913a5.212 5.212 0 0 0 4.52 4.52c1.636.217 3.683.4 5.913.4 2.23 0 4.277-.183 5.913-.4a5.212 5.212 0 0 0 4.52-4.52c.217-1.636.4-3.683.4-5.913 0-2.23-.183-4.277-.4-5.913a5.212 5.212 0 0 0-4.52-4.52 45.596 45.596 0 0 0-5.913-.4c-2.23 0-4.277.183-5.913.4z" fill="#5E6278"/>
    <path d="M8.667 14.083a1.083 1.083 0 1 1 0-2.166h8.666a1.083 1.083 0 0 1 0 2.166H8.667z" fill="#7E8299"/>
</svg>
