<svg width="14" height="14" viewBox="0 0 14 14" fill="none" xmlns="http://www.w3.org/2000/svg">
    <path d="M9.917 3.5a2.917 2.917 0 1 1-5.833 0 2.917 2.917 0 0 1 5.833 0z" fill="#5E6278"/>
    <path opacity=".25" fill-rule="evenodd" clip-rule="evenodd" d="M10.977 8.24c-.36-.417-.977-.396-1.46-.132A5.226 5.226 0 0 1 7 8.75c-.912 0-1.77-.233-2.517-.642-.483-.264-1.1-.285-1.46.131a5.23 5.23 0 0 0-1.273 3.428v.583c0 .644.522 1.167 1.167 1.167h8.166c.645 0 1.167-.523 1.167-1.167v-.583a5.23 5.23 0 0 0-1.273-3.428z" fill="#5E6278"/>
</svg>
