<svg width="28" height="28" viewBox="0 0 28 28" fill="none" xmlns="http://www.w3.org/2000/svg">
    <path opacity=".4" d="M16.042 11.32V8.963c-.462 0-.846-.372-.846-.822V5.336a.674.674 0 0 0-.688-.669H6.756c-2.437 0-4.423 1.928-4.423 4.296v2.838c0 .22.09.429.249.582.158.153.372.24.598.24.857 0 1.512.592 1.512 1.37 0 .812-.666 1.459-1.501 1.469-.463 0-.857.318-.857.778v2.807c0 2.367 1.985 4.286 4.411 4.286h7.763a.675.675 0 0 0 .688-.669v-2.369c0-.459.384-.822.846-.822v-2.125c-.462 0-.846-.374-.846-.822v-4.384c0-.45.384-.822.846-.822z" fill="#1B84FF"/>
    <path d="M23.309 13.994c0 .811.677 1.458 1.5 1.469.463 0 .858.318.858.767v2.817c0 2.369-1.975 4.287-4.412 4.287h-3.678a.682.682 0 0 1-.688-.67v-2.367c0-.46-.373-.823-.846-.823V17.35a.834.834 0 0 0 .846-.822v-4.384a.832.832 0 0 0-.846-.822V8.963a.833.833 0 0 0 .846-.822V5.337c0-.374.316-.67.688-.67h3.678c2.437 0 4.412 1.918 4.412 4.286v2.761c0 .22-.09.43-.248.581a.858.858 0 0 1-.598.242c-.835 0-1.512.658-1.512 1.457z" fill="#1B84FF"/>
</svg>
