<svg width="28" height="28" viewBox="0 0 28 28" fill="none" xmlns="http://www.w3.org/2000/svg">
    <path opacity=".4" d="M24.792 15.722a1.731 1.731 0 0 1-1.737-1.72c0-.951.779-1.723 1.737-1.723a.88.88 0 0 0 .618-.254.864.864 0 0 0 .257-.613l-.001-3.124c0-2.64-2.17-4.788-4.834-4.788H7.168c-2.665 0-4.833 2.148-4.833 4.788l-.002 3.224c0 .23.093.451.257.614a.879.879 0 0 0 .619.253c.99 0 1.737.697 1.737 1.622 0 .95-.78 1.721-1.737 1.721a.871.871 0 0 0-.876.868v3.12c0 2.641 2.168 4.79 4.834 4.79h13.666c2.666 0 4.834-2.149 4.834-4.79v-3.12a.871.871 0 0 0-.875-.868z" fill="#fff"/>
    <path d="M12.615 17.497a1.11 1.11 0 0 1-.722-.256l-2.769-2.373c-.399-.343-.399-.896 0-1.238a1.143 1.143 0 0 1 1.444 0l2.047 1.754 4.816-4.127a1.143 1.143 0 0 1 1.443 0c.4.341.4.896 0 1.238l-5.537 4.746c-.2.17-.46.256-.722.256z" fill="#fff"/>
</svg>
