<svg width="28" height="28" viewBox="0 0 28 28" fill="none" xmlns="http://www.w3.org/2000/svg">
    <path opacity=".4" d="M24.792 15.722a1.731 1.731 0 0 1-1.737-1.72c0-.951.779-1.723 1.737-1.723a.88.88 0 0 0 .618-.254.864.864 0 0 0 .257-.613l-.001-3.124c0-2.64-2.17-4.788-4.834-4.788H7.168c-2.665 0-4.833 2.148-4.833 4.788l-.002 3.224c0 .23.093.451.257.614a.879.879 0 0 0 .619.253c.99 0 1.737.697 1.737 1.622 0 .95-.78 1.721-1.737 1.721a.871.871 0 0 0-.876.868v3.12c0 2.641 2.168 4.79 4.834 4.79h13.666c2.666 0 4.834-2.149 4.834-4.79v-3.12a.871.871 0 0 0-.875-.868z" fill="#7239EA"/>
    <path d="m18.003 13.52-1.376 1.34.326 1.893a.854.854 0 0 1-.346.845.851.851 0 0 1-.91.064L14 16.769l-1.701.894a.86.86 0 0 1-.4.101.861.861 0 0 1-.507-.165.859.859 0 0 1-.344-.846l.324-1.894-1.375-1.339a.857.857 0 0 1-.218-.887.86.86 0 0 1 .7-.585l1.897-.277.85-1.723a.862.862 0 0 1 .774-.48h.002c.33 0 .627.185.772.481l.85 1.722 1.901.278c.325.045.593.27.696.584a.853.853 0 0 1-.218.887z" fill="#7239EA"/>
</svg>
