<svg width="16" height="17" viewBox="0 0 16 17" fill="none" xmlns="http://www.w3.org/2000/svg">
    <path d="M8 16.06A7.173 7.173 0 0 1 .833 8.893 7.173 7.173 0 0 1 8 1.726a7.173 7.173 0 0 1 7.167 7.167A7.173 7.173 0 0 1 8 16.06zM8 2.726a6.174 6.174 0 0 0-6.167 6.167c0 3.4 2.767 6.167 6.167 6.167s6.167-2.767 6.167-6.167S11.4 2.726 8 2.726z" fill="#B4B2B7"/>
    <path d="M10.473 11.513a.446.446 0 0 1-.253-.073l-2.067-1.234c-.513-.306-.893-.98-.893-1.573V5.9c0-.274.227-.5.5-.5s.5.226.5.5v2.733c0 .24.2.593.407.713l2.066 1.234a.5.5 0 0 1 .174.686.514.514 0 0 1-.434.247z" fill="#B4B2B7"/>
</svg>
