<svg width="143" height="128" viewBox="0 0 143 128" fill="none" xmlns="http://www.w3.org/2000/svg">
    <path d="M142.266 127.691H24.088a.32.32 0 0 1-.32-.32.32.32 0 0 1 .32-.319h118.178a.32.32 0 0 1 .319.319.32.32 0 0 1-.319.32z" fill="#1D1D1B"/>
    <path d="M106.42 71.877c-.512 0-1.023-.016-1.534-.08a.248.248 0 0 1-.208-.272.248.248 0 0 1 .272-.208c.032 0 2.939.416 6.885-.734 3.642-1.07 8.929-3.722 13.466-10.352.08-.095.24-.127.336-.032a.25.25 0 0 1 .063.304c-4.616 6.757-10.031 9.457-13.753 10.543a20.038 20.038 0 0 1-5.527.83zM115.94 75.487c-2.683 0-4.457-.67-4.52-.703a.253.253 0 0 1-.16-.303.252.252 0 0 1 .303-.16c.016 0 .016 0 .032.016.08.032 7.237 2.716 14.489-2.987a.247.247 0 0 1 .335.032.247.247 0 0 1-.032.335l-.016.016c-3.897 3.067-7.763 3.738-10.303 3.754h-.128z" fill="#000"/>
    <path d="M90.206 64.209s-.176 5.383 3.721 4.68c3.898-.702 12.237-2.3 13.834 3.547 1.598 5.846.879 6.917 5.144 7.268 4.265.351 11.15 8.403 1.23 15.112S82.218 68.889 82.218 68.889l.927-3.21 7.06-1.47z" fill="#6C32AD"/>
    <path d="M90.206 64.21s-.16 4.743 3.05 4.743c.224 0 .448-.016.672-.064 1.629-.287 4.025-.75 6.389-.75 3.307 0 6.518.878 7.46 4.297 1.598 5.862.879 6.917 5.144 7.268 4.265.352 11.15 8.403 1.23 15.112a5.358 5.358 0 0 1-3.067.91c-10.767 0-28.865-26.852-28.865-26.852l.926-3.211 7.06-1.454zm.016-.48c-.032 0-.064 0-.096.016l-7.077 1.47a.465.465 0 0 0-.367.335l-.91 3.21a.494.494 0 0 0 .063.4c3.227 4.68 6.71 9.17 10.431 13.466 7.892 9.01 14.217 13.579 18.834 13.579a5.84 5.84 0 0 0 3.323-.99c5.654-3.835 5.607-7.844 5.063-9.905-.878-3.387-4.089-5.879-6.533-6.086-3.115-.256-3.211-.703-4.026-4.105-.191-.8-.399-1.726-.702-2.828-.847-3.083-3.499-4.648-7.924-4.648-2.332 0-4.728.43-6.325.718l-.144.032a3.71 3.71 0 0 1-.591.064 2.048 2.048 0 0 1-1.502-.607c-1.134-1.182-1.07-3.61-1.07-3.642.016-.272-.192-.48-.463-.495l.016.016z" fill="#000"/>
    <path d="M115.205 94.066c-.383-8.898-13.993-18.786-18.434-20.384-4.44-1.597-9.76-4.073-10.463-6.038-.703-1.949 2.54-2.668 2.54-2.668l-.943-.303-4.744.99-.927 3.211s21.997 32.651 31.933 25.942c.351-.24.703-.495 1.038-.75z" fill="#59298F"/>
    <path d="M73.065 74.577s-3.37 1.422-1.422 3.37c1.95 1.95 4.952.656 6.47-.287 0 0-.431 2.428 2.763 2.06 3.195-.367 5.671-1.245 5.32-5.143h-13.13z" fill="#fff"/>
    <path d="M86.196 74.577c.351 3.898-2.125 4.792-5.32 5.144-.207.031-.399.032-.607.032-2.524 0-2.156-2.11-2.156-2.11-.943.592-2.444 1.31-3.914 1.31a3.407 3.407 0 0 1-2.556-1.022c-1.949-1.948 1.422-3.37 1.422-3.37l13.13.016zm0-.48H73.08a.8.8 0 0 0-.192.033c-.207.08-2.013.878-2.284 2.252-.128.655.112 1.294.719 1.9a3.913 3.913 0 0 0 2.891 1.151c1.326 0 2.62-.527 3.483-.974.063.351.223.67.447.942.463.543 1.182.83 2.156.83.224 0 .448-.015.655-.031 1.438-.16 3.083-.448 4.233-1.342 1.199-.927 1.694-2.348 1.518-4.329a.53.53 0 0 0-.511-.431zM100.621 47.468c-.016 0-.032 0-.048-.016a.216.216 0 0 1-.112-.287c.463-1.102.511-2.14.144-3.051-.671-1.645-2.492-2.412-2.508-2.428a.24.24 0 0 1-.128-.288c.032-.112.176-.16.288-.128.08.032 2.012.847 2.763 2.668.431 1.038.383 2.173-.144 3.403a.246.246 0 0 1-.255.127z" fill="#000"/>
    <path d="M95.43 46.782h-.017a.258.258 0 0 1-.223-.256c.095-1.374-.208-2.444-.927-3.195-1.182-1.214-3.067-1.166-3.083-1.166a.258.258 0 0 1-.256-.223c-.016-.128.096-.24.224-.256.08 0 2.125-.064 3.435 1.31.814.846 1.182 2.045 1.07 3.562 0 .128-.096.24-.224.224z" fill="#fff"/>
    <path d="M121.787 125.184s.575-3.275 7.891-4.809c7.316-1.533 12.716 6.358 12.716 6.358h-20.607v-1.549z" fill="#6C32AD"/>
    <path d="M142.857 126.972h-21.31v-1.821c.032-.143.687-3.45 8.083-5 3.067-.639 6.278.272 9.297 2.652a19.159 19.159 0 0 1 3.658 3.802l.272.367zm-20.831-.479h19.888c-1.182-1.533-6.022-7.188-12.188-5.878-6.757 1.421-7.652 4.361-7.716 4.6v1.278h.016z" fill="#1D1E1B"/>
    <path d="M132.761 117.292c1.549-.767 5.207 0 5.974 1.549.767 1.55-.575 2.7-1.917 3.083-1.342.384-3.227-1.517-3.227-1.517l-.83-3.115z" fill="#FFCDB2"/>
    <path d="M136.435 122.212c-1.39 0-2.939-1.566-3.019-1.646l-.048-.048-.895-3.354.176-.08c1.661-.831 5.447-.048 6.294 1.645.287.543.319 1.182.08 1.757-.384.879-1.374 1.438-2.157 1.662-.128.032-.287.048-.431.064zm-2.636-1.949c.527.527 1.981 1.693 2.939 1.421.687-.191 1.534-.67 1.853-1.389.192-.432.16-.943-.079-1.358-.687-1.374-3.946-2.093-5.48-1.518l.767 2.844z" fill="#1D1D1B"/>
    <path d="M93.097 53.028a5.431 5.431 0 1 0 0-10.863 5.431 5.431 0 0 0 0 10.863z" fill="#6C32AD"/>
    <path d="M94.023 42.26a5.431 5.431 0 1 1-6.277 4.425v-.016a5.437 5.437 0 0 1 6.277-4.408zm.08-.447a5.867 5.867 0 0 0-6.789 4.777 5.867 5.867 0 0 0 4.777 6.789 5.867 5.867 0 0 0 6.789-4.777c.559-3.178-1.582-6.23-4.777-6.789z" fill="#000"/>
    <path d="M127.569 120.183s.767-3.274 3.467-3.658c2.7-.383 5 .959 4.824 3.658-.176 2.7-3.466 3.083-5.192 2.508-1.725-.575-3.099-2.508-3.099-2.508z" fill="#FFCDB2"/>
    <path d="M132.186 123.155c-.543 0-1.102-.08-1.63-.24-1.789-.591-3.146-2.508-3.194-2.588l-.064-.08.032-.112c.032-.143.846-3.434 3.674-3.849 1.629-.224 3.099.143 4.041 1.022.767.719 1.134 1.725 1.055 2.891a2.867 2.867 0 0 1-1.294 2.253c-.751.495-1.71.703-2.62.703zm-4.361-3.02c.287.384 1.47 1.854 2.891 2.333 1.071.351 2.716.335 3.802-.4a2.323 2.323 0 0 0 1.07-1.885c.08-1.022-.239-1.885-.894-2.508-.831-.782-2.157-1.102-3.642-.894-2.221.303-3.067 2.811-3.227 3.354z" fill="#1D1D1B"/>
    <path d="M70.877 52.085s-1.07-4.872 2.236-6.645c3.307-1.773 3.85-.99 5.527-2.045 1.678-1.054 5.431-.559 7.332 1.949 0 0 4.68-.016 6.87 2.7 2.188 2.715 2.188 4.712 1.39 7.412-.8 2.7-.736 4.217-1.23 6.134-.496 1.917-2.684 6.709-10.72 5.479-8.05-1.23-11.405-14.984-11.405-14.984z" fill="#6C32AD"/>
    <path d="M81.931 42.996c1.486.256 3.035 1.023 4.057 2.364.64.016 1.278.08 1.917.192 1.55.272 3.674.926 4.952 2.508 2.205 2.716 2.189 4.712 1.374 7.412-.814 2.7-.735 4.217-1.23 6.134-.495 1.917-2.684 6.71-10.719 5.48l-.143-.033c-7.94-1.39-11.246-14.967-11.246-14.967s-1.07-4.873 2.236-6.646c3.307-1.757 3.85-.99 5.527-2.044.767-.464 1.997-.623 3.275-.4zm.08-.431c-1.39-.24-2.732-.064-3.594.479-.687.415-1.135.511-1.773.639-.815.16-1.838.383-3.739 1.374-1.485.798-2.396 2.284-2.587 4.329a9.672 9.672 0 0 0 .127 2.795v.016a35.915 35.915 0 0 0 2.684 7.06c1.07 2.11 2.284 3.85 3.562 5.193 1.646 1.693 3.435 2.715 5.352 3.05l.16.033c3.594.559 6.47 0 8.53-1.646a7.771 7.771 0 0 0 2.683-4.153 20.15 20.15 0 0 0 .448-2.38c.16-1.262.431-2.508.782-3.738.831-2.78.863-4.952-1.453-7.828-1.358-1.693-3.594-2.38-5.224-2.667a11.15 11.15 0 0 0-1.773-.192c-.99-1.23-2.508-2.077-4.185-2.364z" fill="#000"/>
    <path d="M51.58 69.417c9.872-3.083 34.6 1.678 41.549 10.431 3.962 4.984 7.987 14.266 11.981 25.863 1.693 4.904 4.728 9.489 10.463 8.945 3.706-.367 7.572 2.237 7.028 4.761-1.054 4.952-9.888 8.179-9.888 8.179l-69.919-.304s-8.099-16.086-.4-32.236c0 0-15.19 6.39-21.42 3.61-6.23-2.78-14.378-19.776-8.164-21.517l-1.23-4.217 9.68-5.496 2.045 2.588s3.148-3.738 5.352-1.022 5.687 8.259 5.687 8.259 2.396-3.195 17.236-7.844z" fill="#FFAD00"/>
    <path d="m112.729 127.819-69.935-.288c-.096 0-.176-.048-.207-.128-.017-.048-2.045-4.121-3.116-10.127-.958-5.432-1.277-13.547 2.445-21.773-2.269.91-10.687 4.105-16.87 4.105-1.58 0-3.018-.208-4.168-.719-4.84-2.156-10.927-12.907-10.512-18.546.128-1.741.863-2.875 2.157-3.339l-1.166-3.993a.229.229 0 0 1 .112-.272l9.68-5.495a.227.227 0 0 1 .303.064l1.87 2.364c.51-.543 1.932-1.885 3.45-1.885h.016c.783 0 1.47.368 2.045 1.087 1.917 2.364 4.808 6.885 5.543 8.019.862-.847 4.536-3.738 17.14-7.668l.064.224-.064-.224c4.792-1.502 13.418-1.198 21.997.767 9.392 2.156 16.613 5.703 19.824 9.728 3.674 4.617 7.603 13.099 12.012 25.942 2.157 6.278 5.591 9.233 10.208 8.786 2.348-.224 4.984.719 6.39 2.316.766.863 1.086 1.837.894 2.732-1.07 5.016-9.68 8.227-10.048 8.355-.016-.032-.032-.032-.064-.032zm-69.775-.767 69.727.287c.639-.239 8.722-3.386 9.697-7.987.208-.958-.32-1.789-.783-2.316-1.326-1.486-3.786-2.364-5.99-2.157-.32.032-.639.048-.959.048-4.377 0-7.651-3.067-9.744-9.153-4.409-12.795-8.307-21.23-11.949-25.798-3.147-3.946-10.271-7.444-19.552-9.569-8.498-1.949-17.029-2.252-21.757-.783-14.52 4.537-17.109 7.716-17.124 7.748a.258.258 0 0 1-.208.096c-.08 0-.144-.048-.192-.112-.032-.048-3.498-5.56-5.67-8.243-.48-.59-1.04-.894-1.678-.91h-.016c-1.63 0-3.259 1.9-3.275 1.916a.228.228 0 0 1-.191.096.228.228 0 0 1-.192-.096l-1.917-2.427-9.329 5.303 1.166 4.041a.267.267 0 0 1-.016.192.255.255 0 0 1-.144.112c-1.23.335-1.917 1.342-2.028 2.987-.416 5.495 5.51 15.974 10.223 18.083 6.07 2.7 21.086-3.562 21.23-3.626.128-.048.255.016.32.128a.203.203 0 0 1 0 .191c-3.946 8.291-3.627 16.55-2.668 22.013.958 5.399 2.667 9.201 3.019 9.936z" fill="#1D1D1B"/>
    <path d="M72.618 68.794s-3.834.559-2.077 4.09c1.757 3.53 5.176 2.46 5.176 2.46s6.773 7.348 8.85-1.838l-11.95-4.712z" fill="#fff"/>
    <path d="M80.733 78.379c-2.285 0-4.585-2.237-5.096-2.764-.703.16-3.69.623-5.32-2.62-.558-1.118-.638-2.092-.239-2.859.67-1.294 2.412-1.55 2.492-1.565l.064-.016 12.204 4.808-.048.208c-.607 2.715-1.709 4.297-3.243 4.712a4.378 4.378 0 0 1-.814.096zm-4.936-3.307.112.112c.032.032 3.067 3.275 5.543 2.62 1.31-.352 2.268-1.741 2.843-4.154l-11.693-4.6c-.288.064-1.582.351-2.077 1.31-.335.639-.255 1.453.24 2.428 1.661 3.306 4.76 2.38 4.888 2.332l.144-.048z" fill="#1D1D1B"/>
    <path d="M81.292 100.615a1.086 1.086 0 1 0 0-2.172 1.086 1.086 0 0 0 0 2.172zM60.701 83.107a1.086 1.086 0 1 0 0-2.172 1.086 1.086 0 0 0 0 2.172zM53.513 101.957a1.087 1.087 0 1 0-.002-2.174 1.087 1.087 0 0 0 .002 2.174zM65.062 97.9a1.086 1.086 0 1 0 0-2.173 1.086 1.086 0 0 0 0 2.172zM89.439 84.481a1.086 1.086 0 1 0 0-2.172 1.086 1.086 0 0 0 0 2.172zM77.474 88.73a1.086 1.086 0 1 0 0-2.172 1.086 1.086 0 0 0 0 2.172zM60.557 76.941a1.086 1.086 0 1 0 0-2.173 1.086 1.086 0 0 0 0 2.173zM37.554 86.924a1.086 1.086 0 1 0 0-2.172 1.086 1.086 0 0 0 0 2.172zM26.245 78.65a1.086 1.086 0 1 0 0-2.172 1.086 1.086 0 0 0 0 2.172zM17.986 83.203a1.086 1.086 0 1 0 0-2.173 1.086 1.086 0 0 0 0 2.173z" fill="#FFC140"/>
    <path d="M91.18 84.928a1.086 1.086 0 1 0 0-2.172 1.086 1.086 0 0 0 0 2.172z" fill="#FFC140"/>
    <path d="m12.06 73.124 9.168-5.336 2.077 2.524s-2.588 6.182-10.191 6.837l-1.055-4.025z" fill="#E89D00"/>
    <path d="M41.372 97.66c-.016 0-.048 0-.064-.016-.127-.032-.191-.176-.16-.288 1.39-4.904 7.477-13.993 7.748-14.377.08-.111.224-.143.336-.064.111.08.143.224.064.336-.064.096-6.294 9.425-7.684 14.249a.246.246 0 0 1-.24.16z" fill="#1D1E1B"/>
    <path d="M38.864 78.219a.47.47 0 0 1-.479-.48c0-.143.08-.287.192-.383 7.188-5.303 13.945-6.661 18.354-6.853 4.793-.223 7.828.815 7.971.863a.468.468 0 0 1 .288.607.468.468 0 0 1-.607.287c-.032-.016-3.035-1.022-7.652-.798-4.249.207-10.798 1.517-17.78 6.66a.516.516 0 0 1-.287.097z" fill="#fff"/>
    <path d="M113.688 125.647s.718-4.122 9.92-6.054c9.201-1.933 15.974 7.987 15.974 7.987h-25.894v-1.933z" fill="#6C32AD"/>
    <path d="M140.045 127.819h-26.597v-2.22c.032-.176.863-4.297 10.112-6.246 3.834-.799 7.859.335 11.629 3.322a24.077 24.077 0 0 1 4.585 4.777l.271.367zm-26.118-.479h25.192a24.49 24.49 0 0 0-4.233-4.297c-2.556-2.013-6.582-4.201-11.23-3.211-8.642 1.821-9.665 5.559-9.729 5.847v1.661z" fill="#1D1E1B"/>
    <path d="M127.474 115.726c1.932-.974 6.533 0 7.507 1.933.975 1.933-.734 3.387-2.412 3.866-1.677.479-4.041-1.917-4.041-1.917l-1.054-3.882z" fill="#FFCDB2"/>
    <path d="M132.09 121.828c-1.709 0-3.658-1.964-3.738-2.044l-.048-.048-1.102-4.154.176-.079c.974-.48 2.603-.544 4.281-.144 1.741.415 3.067 1.23 3.546 2.188a2.5 2.5 0 0 1 .112 2.157c-.479 1.086-1.694 1.773-2.684 2.045a1.564 1.564 0 0 1-.543.079zm-3.355-2.332c.32.32 2.349 2.221 3.77 1.805.879-.255 1.965-.846 2.364-1.789.24-.543.208-1.134-.095-1.757-.416-.831-1.614-1.55-3.227-1.933-1.438-.351-2.892-.335-3.77.016l.958 3.658z" fill="#1D1D1B"/>
    <path d="M120.94 119.352s.975-4.121 4.361-4.6c3.387-.479 6.294 1.214 6.054 4.6-.239 3.387-4.361 3.866-6.533 3.147-2.173-.719-3.882-3.147-3.882-3.147z" fill="#FFCDB2"/>
    <path d="M126.755 123.026a6.603 6.603 0 0 1-2.013-.303c-2.236-.751-3.93-3.131-3.994-3.243l-.063-.08.032-.111c.047-.176 1.038-4.282 4.552-4.777 2.029-.287 3.85.176 5.032 1.262.959.895 1.406 2.125 1.31 3.594a3.548 3.548 0 0 1-1.597 2.796c-.943.607-2.125.862-3.259.862zm-5.559-3.722c.319.432 1.837 2.349 3.69 2.972 1.342.447 3.434.415 4.84-.511a3.065 3.065 0 0 0 1.39-2.429c.096-1.309-.304-2.412-1.15-3.21-1.071-.991-2.748-1.406-4.633-1.135-2.891.416-3.946 3.675-4.137 4.313z" fill="#1D1D1B"/>
    <path d="M113.432 122.499c-2.061 1.023-2.428 3.147-2.172 5.08.255 1.933 2.667 3.626 4.84 2.668 2.172-.959 1.214-3.387 0-4.601s.974-3.147 2.172-1.453c1.198 1.693 4.601 1.453 6.534 0 1.933-1.454.479-5.08-2.173-6.055-2.652-.974-5.575-1.453-6.773 1.214-1.198 2.668-1.454 2.668-2.428 3.147z" fill="#FFCDB2"/>
    <path d="M114.79 130.758a3.84 3.84 0 0 1-1.869-.495c-1.038-.591-1.773-1.597-1.901-2.652-.224-1.789 0-4.169 2.316-5.319l.16-.08c.799-.399 1.054-.511 2.157-2.955 1.373-3.003 4.696-2.205 7.076-1.342 1.63.591 2.939 2.172 3.179 3.866.16 1.102-.176 2.028-.942 2.604a6.649 6.649 0 0 1-4.665 1.166c-.99-.16-1.757-.575-2.22-1.214-.384-.543-.815-.607-1.118-.559a1.214 1.214 0 0 0-.943.782.85.85 0 0 0 .24.911c.814.814 1.549 2.172 1.326 3.354-.128.719-.623 1.294-1.406 1.646a3.204 3.204 0 0 1-1.39.287zm-1.246-8.051c-2.061 1.039-2.252 3.195-2.045 4.84.112.895.751 1.774 1.662 2.301a3.133 3.133 0 0 0 2.843.175c.639-.287 1.022-.718 1.118-1.293.192-1.007-.495-2.221-1.198-2.924a1.293 1.293 0 0 1-.351-1.389 1.695 1.695 0 0 1 1.326-1.119c.351-.048 1.022-.032 1.565.751.479.687 1.294.927 1.901 1.022a6.054 6.054 0 0 0 4.297-1.086c.623-.463.895-1.23.767-2.156-.224-1.486-1.438-2.956-2.875-3.483-3.499-1.278-5.56-.926-6.47 1.087-1.134 2.492-1.422 2.715-2.38 3.194l-.16.08z" fill="#1D1D1B"/>
    <path d="M1.389 59.21s-3.403 8.242 9.217 12.635c0 0 6.933 2.093 10.303-1.102v-.879s4.968-3.019 4.09-6.39c0 0-3.546-1.245-7.636 2.844 0 0-2.124-6.214-8.69-6.214 0 0-2.668-1.597-3.722-.176-.016-.016-1.246-1.613-3.562-.718z" fill="#FFCDB2"/>
    <path d="M2.747 58.938c.83 0 1.629.352 2.188.975.32-.432.799-.591 1.31-.591 1.134 0 2.412.766 2.412.766 6.565 0 8.69 6.214 8.69 6.214 2.54-2.54 4.872-3.019 6.278-3.019.463-.016.926.048 1.358.176.894 3.37-4.09 6.39-4.09 6.39v.894c-1.453 1.39-3.594 1.773-5.543 1.773a18.414 18.414 0 0 1-4.76-.67C-2.014 67.451 1.373 59.21 1.373 59.21c.447-.176.91-.256 1.374-.272zm0-.479c-.528 0-1.039.112-1.518.303a.456.456 0 0 0-.272.272 8.37 8.37 0 0 0 .304 6.214c1.374 3.035 4.457 5.415 9.201 7.06h.016a18.83 18.83 0 0 0 4.904.688c2.556 0 4.537-.64 5.863-1.917a.435.435 0 0 0 .143-.336v-.623c1.023-.67 4.92-3.498 4.058-6.773a.53.53 0 0 0-.304-.335 5.438 5.438 0 0 0-1.517-.208c-1.47 0-3.69.48-6.102 2.668a11.664 11.664 0 0 0-1.694-2.588 9.332 9.332 0 0 0-7.044-3.275c-.368-.208-1.486-.767-2.54-.767a2.331 2.331 0 0 0-1.326.384 3.433 3.433 0 0 0-2.172-.767z" fill="#000"/>
    <path d="M16.468 69.385c-.143 0-.24-.111-.24-.255 0-.032.017-.655-.622-1.278-.703-.671-2.285-1.422-5.863-1.134-.096 0-.176-.032-.223-.112-.032-.048-2.492-4.09-4.76-6.534-.08-.111-.049-.255.063-.335a.24.24 0 0 1 .288.016c2.076 2.236 4.297 5.767 4.744 6.47 2.955-.208 5 .223 6.102 1.293.783.767.751 1.598.751 1.63 0 .144-.112.24-.24.24z" fill="#000"/>
    <path d="M13.098 65.472a.25.25 0 0 1-.224-.144c-.016-.032-1.086-2.636-4.36-5.224-.113-.08-.129-.223-.049-.335.08-.112.224-.128.336-.048l.016.016c3.386 2.667 4.473 5.32 4.505 5.415a.236.236 0 0 1-.128.304c-.032.016-.064.016-.096.016z" fill="#000"/>
    <path d="M10.334 70.71h-.048c-5.063-.91-7.747-5.83-7.859-6.038-.08-.16-.032-.351.128-.43.16-.08.351-.033.431.127.032.048 2.652 4.84 7.396 5.687a.322.322 0 0 1 .288.351c-.016.176-.16.32-.336.304z" fill="#fff"/>
    <path d="m75.669 65.247-3.642 5.543s2.62 6.965 12.012 1.933c0 0-3.434-4.265-.766-9.984 0 0 2.444 1.262 3.658-.862 1.214-2.125-.032-3.674-1.326-3.898 0 0-5.431-.447-3.003-10.543 0 0-4.904-1.517-8.802 1.63-3.898 3.146-6.773 8.162-4.904 11.82 1.869 3.658 6.773 4.361 6.773 4.361z" fill="#FFCDB2"/>
    <path d="M81.723 47.245a7.8 7.8 0 0 1 .879.191c-2.22 9.218 2.124 10.384 2.891 10.528.08.016.112.016.112.016 1.294.223 2.524 1.773 1.326 3.897-.703 1.246-1.837 1.326-2.652 1.182a3.698 3.698 0 0 1-1.006-.32c-2.668 5.704.766 9.985.766 9.985-3.178 1.709-5.59 2.044-7.38 1.725-3.482-.607-4.632-3.658-4.632-3.658l3.642-5.543s-.048 0-.112-.016c-.75-.128-4.936-1.007-6.63-4.33-1.868-3.657 1.007-8.673 4.905-11.836 2.875-2.332 6.31-2.093 7.891-1.821zm.08-.447c-1.821-.32-5.303-.48-8.275 1.932-2.076 1.694-3.754 3.77-4.728 5.879-1.118 2.412-1.214 4.664-.288 6.485 1.534 3.02 4.953 4.106 6.406 4.457l-3.275 4.984a.443.443 0 0 0-.047.4 6.622 6.622 0 0 0 4.968 3.93c2.188.383 4.76-.208 7.667-1.774a.416.416 0 0 0 .176-.591c-.016-.032-.032-.048-.048-.064a8.801 8.801 0 0 1-1.31-2.731c-.607-2.125-.463-4.266.431-6.39.224.08.464.144.703.192 1.358.24 2.46-.256 3.115-1.406.607-1.086.719-2.173.288-3.083a2.68 2.68 0 0 0-1.917-1.486h-.048l-.08-.016c-.32-.048-1.39-.32-2.204-1.55-1.135-1.724-1.246-4.632-.336-8.434a.45.45 0 0 0-.303-.527c-.256-.064-.56-.144-.895-.208z" fill="#000"/>
    <path d="m75.43 65.599-.432-.096c-.112-.032-.192-.16-.16-.272.032-.111.16-.191.272-.16 1.437.4 3.306-.031 3.322-.047.112-.032.24.048.272.16.032.111-.048.239-.16.271-.064.032-1.661.4-3.115.144zM84.088 61.94a.207.207 0 0 1-.176-.255.23.23 0 0 1 .143-.175c.831-.304 1.31-.687 1.422-1.15.144-.672-.495-1.31-.51-1.31-.097-.08-.097-.224 0-.32.079-.096.223-.096.319 0 .031.032.83.83.623 1.725-.144.623-.72 1.119-1.71 1.47-.032.016-.08.016-.111.016z" fill="#000"/>
    <path d="M77.825 52.98c1.917 2.029 5.623 3.147 5.591 4.313-.032 1.166-1.182 1.965-2.572 1.39-1.39-.575-2.587-1.454-4.92-3.355-2.332-1.9-4.488-3.962-3.29-5.08 1.198-1.118 2.38-.271 5.191 2.732z" fill="#FFB49F"/>
    <path d="M76.404 53.331a.224.224 0 0 1-.192-.223c.032-.655-.144-1.198-.527-1.598-.767-.814-2.109-.83-2.125-.83a.218.218 0 0 1-.223-.224c0-.128.096-.224.223-.224.064 0 1.55.016 2.444.975.464.495.687 1.15.655 1.933-.016.112-.112.207-.24.191h-.015zM81.771 57.788a.204.204 0 0 1-.176-.175c-.479-2.524-2.731-2.365-2.827-2.365-.128.016-.224-.08-.24-.207-.016-.128.08-.224.208-.24.032 0 2.748-.208 3.307 2.716.016.111-.048.24-.176.255a.24.24 0 0 1-.096.016zM77.841 50.392a3.84 3.84 0 0 1-1.261-.448.218.218 0 0 1-.08-.303.218.218 0 0 1 .303-.08c.495.272 1.07.431 1.645.447.128 0 .224.096.224.224a.218.218 0 0 1-.224.224c-.191-.017-.399-.033-.606-.064zM76.771 61.334a2.901 2.901 0 0 1-1.741-1.038c-.08-.096-.064-.24.032-.303.096-.08.24-.064.303.032 0 0 0 .016.016.016.048.063 1.135 1.549 3.291.543.112-.064.24-.016.304.095.064.112.016.24-.096.304-.016 0-.016.016-.032.016-.799.367-1.502.431-2.077.335zM86.116 58.092a5.6 5.6 0 0 1-2.332-.927c-.096-.08-.096-.223-.016-.32a.22.22 0 0 1 .287-.031c1.79 1.358 5 .894 5.032.894.128-.016.24.064.256.192.016.128-.064.24-.192.256-1.006.111-2.029.111-3.035-.064z" fill="#000"/>
    <path d="M86.292 56.99c-.016 0-.048-.017-.064-.017-4.569-2.332-2.7-7.507-2.668-7.571.048-.112.176-.176.288-.128.112.048.175.176.127.287-.08.192-1.757 4.857 2.46 7.013.112.048.16.192.096.304a.238.238 0 0 1-.24.111z" fill="#fff"/>
    <path d="M74.327 56.542a.309.309 0 0 1-.144-.08c-.064-.095-.048-.24.048-.303l3.658-2.652a.228.228 0 0 1 .32.032c.08.096.064.24-.032.32-.016 0-.016.016-.032.016l-3.658 2.651c-.032.016-.096.032-.16.016z" fill="#000"/>
    <path d="M84.183 64.273a.895.895 0 1 0 0-1.789.895.895 0 0 0 0 1.79z" fill="#FFAD00"/>
    <path d="M84.327 62.5c.48.08.815.544.719 1.023a.875.875 0 0 1-1.023.719.875.875 0 0 1-.718-1.022.887.887 0 0 1 1.022-.72zm.08-.43a1.338 1.338 0 0 0-1.55 1.086 1.33 1.33 0 0 0 1.087 1.55 1.33 1.33 0 0 0 1.549-1.087 1.33 1.33 0 0 0-1.086-1.55z" fill="#000"/>
    <path d="M73.688 116.684a.958.958 0 1 0 0-1.917.958.958 0 0 0 0 1.917zM49.295 115.742a.958.958 0 1 0 0-1.917.958.958 0 0 0 0 1.917zM62.218 114.56a.958.958 0 1 0 0-1.917.958.958 0 0 0 0 1.917z" fill="#FFC140"/>
    <path d="M92.138 126.828H41.244a3.75 3.75 0 0 1-3.754-3.754V92.388a3.75 3.75 0 0 1 3.755-3.754h50.91a3.75 3.75 0 0 1 3.753 3.754v30.686a3.773 3.773 0 0 1-3.77 3.754z" fill="#6C32AD"/>
    <path d="M92.138 127.068H41.244a3.995 3.995 0 0 1-3.993-3.993V92.388a3.995 3.995 0 0 1 3.993-3.994h50.91a3.995 3.995 0 0 1 3.994 3.994v30.687a4.019 4.019 0 0 1-4.01 3.993zM41.244 88.874a3.504 3.504 0 0 0-3.514 3.514v30.687a3.504 3.504 0 0 0 3.514 3.514h50.91a3.504 3.504 0 0 0 3.514-3.514V92.388a3.504 3.504 0 0 0-3.514-3.514h-50.91z" fill="#1D1E1B"/>
    <path d="M98.033 126.909H37.299a3.32 3.32 0 0 1-3.323-3.323h67.411a3.368 3.368 0 0 1-3.354 3.323z" fill="#59298F"/>
    <path d="M98.033 127.149H37.299a3.566 3.566 0 0 1-3.563-3.563v-.239h67.875v.239a3.57 3.57 0 0 1-3.578 3.563zm-63.817-3.339a3.085 3.085 0 0 0 3.083 2.843h60.75a3.097 3.097 0 0 0 3.083-2.843H34.216z" fill="#1D1D1B"/>
    <path d="M39.583 120.215a.47.47 0 0 1-.48-.479V94.72a.47.47 0 0 1 .48-.479.47.47 0 0 1 .48.48v25.015a.47.47 0 0 1-.48.479z" fill="#fff"/>
    <path d="M63.928 105.071h3.163c.894 0 1.63.735 1.63 1.63v3.163c0 .894-.736 1.629-1.63 1.629h-3.163c-.895 0-1.63-.735-1.63-1.629v-3.179c0-.895.735-1.614 1.63-1.614z" fill="#59298F"/>
    <path d="M67.09 111.717h-3.162a1.87 1.87 0 0 1-1.87-1.869v-3.163c0-1.022.831-1.869 1.87-1.869h3.163c1.022 0 1.869.831 1.869 1.869v3.163a1.86 1.86 0 0 1-1.87 1.869zm-3.162-6.405c-.767 0-1.374.623-1.39 1.373v3.163c0 .767.623 1.39 1.39 1.39h3.163a1.39 1.39 0 0 0 1.39-1.39v-3.163a1.39 1.39 0 0 0-1.39-1.389l-3.163.016z" fill="#1D1D1B"/>
</svg>
