<svg width="178" height="151" viewBox="0 0 178 151" fill="none" xmlns="http://www.w3.org/2000/svg">
    <g clip-path="url(#fmhhebfsta)">
        <path fill-rule="evenodd" clip-rule="evenodd" d="M40.854 18.567c-2.061-2.42-3.457-5.387-3.224-8.71.672-9.577 14-7.47 16.592-2.637 2.592 4.833 2.284 17.094-1.066 17.958-1.336.344-4.183-.5-7.08-2.246L47.895 35.8H37.158l3.696-17.233z" fill="#CFAF92"/>
        <path fill-rule="evenodd" clip-rule="evenodd" d="M40.029 20.723c-1.348-5.997-5.187-10.085-4.6-12.766.39-1.787 1.432-2.898 3.125-3.333.876-3.543 3.7-5.05 8.47-4.52 7.158.793 11.527 3.766 9.64 10.308-1.734 0-3.828-.627-6.722.448-.919.34-1.576 1.399-1.971 3.173h-1.308c-1.27-2.106-2.522-2.88-3.756-2.321-1.234.558-1.515 1.913-.842 4.066l-.644 4.945h-1.392z" fill="#191847"/>
        <path fill-rule="evenodd" clip-rule="evenodd" d="M7.184 95.28h51.447a7.159 7.159 0 0 1 7.158 7.16v41.17a7.159 7.159 0 0 1-7.158 7.16H7.184a7.159 7.159 0 0 1-7.158-7.16v-41.17a7.159 7.159 0 0 1 7.158-7.16zm7.158 12.53a1.79 1.79 0 0 0-1.79 1.79v26.85c0 .989.802 1.79 1.79 1.79h37.132a1.79 1.79 0 0 0 1.789-1.79V109.6a1.79 1.79 0 0 0-1.79-1.79H14.343z" fill="#E6F2DD"/>
        <path fill-rule="evenodd" clip-rule="evenodd" d="M110.15 144.99c-8.82-10.774-14.788-18.761-17.904-23.962-5.335-8.905-9.701-16.828-11.08-19.855-3.285-7.218 7.565-10.598 10.02-7.231 3.718 5.095 11.655 21.129 23.814 48.102l-4.85 2.946z" fill="#CFAF92"/>
        <path fill-rule="evenodd" clip-rule="evenodd" d="M92.076 141.858 75.66 100.525c-3.511-7.535 13.443-12.487 16.023-8.98 5.858 7.96 19.781 39.364 21.526 41.736l-21.134 8.577z" fill="#2F3676"/>
        <path fill-rule="evenodd" clip-rule="evenodd" d="M48.357 133.568c3.197-4.666 14.828-20.362 21.163-26.857a490.504 490.504 0 0 1 5.276-5.327c4.994-4.961 14.938 3.379 9.954 7.898-12.413 11.255-30.525 26.448-32.038 27.802-2.12 1.899-6.365-.584-4.355-3.516z" fill="#CFAF92"/>
        <path fill-rule="evenodd" clip-rule="evenodd" d="M49.104 131.461c-1.101.907-1.818 1.647-2.15 2.222-.403.699-.875 1.786-1.416 3.261l21.853 12.62c1.651-1.549 1.908-2.752.771-3.609a139.022 139.022 0 0 1-2.815-2.166l-7.543-10.395a.447.447 0 0 0-.624-.099l-.01.007-1.568 1.207c-1.437-.125-2.51-.393-3.218-.801-.576-.333-1.236-1.024-1.982-2.074a.895.895 0 0 0-1.298-.173zM106.356 143.38c-.501 1.336-.751 2.336-.751 3 0 .807.135 1.984.403 3.533h25.233c.655-2.169.277-3.339-1.136-3.512a136.938 136.938 0 0 1-3.521-.469l-11.727-5.23a.448.448 0 0 0-.591.227l-.005.012-.754 1.829c-1.308.61-2.37.915-3.188.915-.664 0-1.582-.268-2.752-.805a.896.896 0 0 0-1.187.441c-.008.019-.017.039-.024.059z" fill="#226185"/>
        <path fill-rule="evenodd" clip-rule="evenodd" d="M69.754 102.589c-13.643-2.223-22.782-3.743-27.416-4.56-13.207-2.33-17.059-9.44-14.782-24.951h24.335c3.22.93 16.677 6.683 40.368 17.26 4.263 2.116 3.469 8.357 2.69 10.413-.032.084-7.218 12.401-21.558 36.95l-19.907-12.685 16.307-20.932c.431-.867.419-1.366-.037-1.495z" fill="#5C63AB"/>
        <path fill-rule="evenodd" clip-rule="evenodd" d="m71.507 67.22 14.27 10.482c3.87 1.044 7.105 2.344 9.701 3.899.614.56 1.355 1.691-1.189 1.496-2.544-.196-5.228-.287-5.58.58-.35.868 1.189 1.906.48 3.078-.474.78-2.708-1.177-6.705-5.873L68.353 75.02l3.154-7.8zm-54.79.361 9.348.037c-5.772 18.64-8.888 28.53-9.348 29.671-1.036 2.566 1.155 6.475 2.092 8.575-3.051 1.365-2.726-3.692-6.575-1.901-3.513 1.635-6.185 4.597-10.244 2.092-.5-.308-1.046-1.468.275-2.374 3.292-2.258 8.035-6.209 8.676-7.51.874-1.773 2.8-11.303 5.776-28.59z" fill="#CFAF92"/>
        <path fill-rule="evenodd" clip-rule="evenodd" d="m43.285 28.341 3.868-.664C61.506 40.08 67.4 63.907 84.995 76.53l-4.235 5.25C50.24 78 42.674 48.937 43.284 28.342z" fill="#E87613"/>
        <path fill-rule="evenodd" clip-rule="evenodd" d="M26.42 76.97h34.23c1.564 0 1.27-2.26 1.043-3.4-2.61-13.156-12.796-27.338-12.796-46.066l-9.873-1.549c-8.166 13.138-10.99 29.313-12.603 51.015z" fill="#DDE3E9"/>
        <path fill-rule="evenodd" clip-rule="evenodd" d="M26.696 38.869c-1.434-.412-2.57-1.374-3.407-2.885-3.608-6.513-2.305-10.1 1.551-11.278 3.857-1.18 7.296 1.249 13.44 1.249.335 0 .641.02.919.063l3.09.176c8.869 30.064 11.314 50.121 7.338 60.174h-26.94c-1.597 3.723-3.124 6.855-4.583 9.397h-7.341c-.69-22.345 4.62-41.31 15.933-56.896z" fill="#FF9B21"/>
        <path fill-rule="evenodd" clip-rule="evenodd" d="M28.553 70.928c.847 7.091 2.224 12.238 4.131 15.44h-9.998c1.862-4.343 3.818-9.49 5.867-15.44z" fill="#000" fill-opacity=".1"/>
        <path opacity=".15" d="M127.121 86.934c0 .512 0 1.01.061 1.508a23.896 23.896 0 0 0 21.709 22.325c.716.071 1.432.1 2.166.1h.658a23.878 23.878 0 0 0 10.651-2.807 24.205 24.205 0 0 0 8.631-7.876 23.665 23.665 0 0 0 3.645-9.2 21.72 21.72 0 0 0 .358-3.91v-.129a23.94 23.94 0 0 0-9.343-18.982 23.934 23.934 0 0 0-20.744-4.16h-.017a23.952 23.952 0 0 0-17.761 23.131h-.014z" fill="#FFABB4"/>
        <path d="m149.212 88.386-2.242 3.22-1.27 1.82-5.132 7.367a.424.424 0 0 1-.058.069.295.295 0 0 1-.294.073.216.216 0 0 1-.125-.11.3.3 0 0 1-.03-.102l-.518-5.06a.127.127 0 0 0-.01-.047.16.16 0 0 0-.016-.042.109.109 0 0 0-.023-.037.026.026 0 0 0-.006-.012.034.034 0 0 0-.01-.008.131.131 0 0 0-.04-.032.232.232 0 0 0-.202-.034l-4.928 1.267c-.258.063-.402-.218-.238-.453l6.964-10 .412-.59 1.264-1.817a.303.303 0 0 1 .405-.115l3.029 2.109 1.016.702 1.46 1.012.563.393a.304.304 0 0 1 .104.207.292.292 0 0 1-.075.22z" fill="url(#fa4itop4fb)"/>
        <path d="m149.212 88.386-8.644 12.41c-.162.233-.475.193-.504-.068l-.523-5.062a.23.23 0 0 0-.03-.102.237.237 0 0 0-.07-.08l6.704-9.628 3.034 2.11a.298.298 0 0 1 .033.42z" fill="url(#dwtbqbda0c)"/>
        <path d="m167.626 96.718-4.935-1.267a.237.237 0 0 0-.201.034.072.072 0 0 0-.038.029l-.016.026a.062.062 0 0 0-.013.013.05.05 0 0 0-.006.017.162.162 0 0 0-.017.043.369.369 0 0 0 0 .047l-.525 5.06c0 .021 0 .037-.01.053a.253.253 0 0 1-.039.083.249.249 0 0 1-.099.073.297.297 0 0 1-.162 0 .37.37 0 0 1-.195-.146l-5.337-7.662-1.223-1.752-2.091-2.984a.325.325 0 0 1-.01-.38.232.232 0 0 1 .044-.038l.272-.188 1.146-.798 1.611-1.125 3.03-2.108a.3.3 0 0 1 .406.115l.788 1.135.281.403 7.574 10.869c.164.227.016.51-.235.448z" fill="url(#16q4npa30d)"/>
        <path d="M162.489 95.483a.217.217 0 0 0-.035.03l-.017.025a.228.228 0 0 0-.02.032.126.126 0 0 0-.014.043.11.11 0 0 0-.01.047l-.524 5.061c0 .02 0 .034-.01.054a.303.303 0 0 1-.039.081.282.282 0 0 1-.1.071.283.283 0 0 1-.163 0 .35.35 0 0 1-.196-.144l-5.336-7.662-1.22-1.754-2.087-2.981a.317.317 0 0 1-.065-.187.32.32 0 0 1 .055-.19.304.304 0 0 1 .044-.04l.274-.19 1.144-.798 1.612-1.125 2.169 3.112.878 1.262 3.66 5.253z" fill="url(#jins2o2j9e)"/>
        <path d="m146.97 91.606-1.271 1.82a9.753 9.753 0 0 1-2.936-2.703 9.57 9.57 0 0 1-1.724-4.458l.412-.59a9.68 9.68 0 0 0 5.524 5.93h-.005z" fill="url(#facb1b0elf)"/>
        <path d="M160.284 85.39a9.62 9.62 0 0 1-1.46 4.838 9.77 9.77 0 0 1-2.802 2.903l-1.223-1.752a9.691 9.691 0 0 0 5.206-6.39l.279.402z" fill="url(#mcqnltjvqg)"/>
        <path d="M160.284 82.662a9.646 9.646 0 0 1-.284 2.32 9.671 9.671 0 0 1-13.038 6.619 9.662 9.662 0 1 1 13.328-8.939h-.006z" fill="url(#bd4x696pfh)"/>
        <path d="m151.077 77.612 1.335 2.706a.51.51 0 0 0 .378.274l2.985.433a.502.502 0 0 1 .278.857l-2.16 2.109a.498.498 0 0 0-.144.443l.509 2.978a.501.501 0 0 1-.726.53l-2.671-1.404a.495.495 0 0 0-.467 0l-2.67 1.403a.501.501 0 0 1-.727-.529l.509-2.973a.498.498 0 0 0-.144-.443l-2.161-2.11a.499.499 0 0 1-.126-.514.508.508 0 0 1 .405-.342l2.985-.433a.503.503 0 0 0 .378-.274l1.335-2.706a.503.503 0 0 1 .899-.005z" fill="#fff"/>
        <path opacity=".21" d="m143.31 77.292 18.097 16.525a12.254 12.254 0 0 0 1.891-4.768l-15.412-14.077a12.325 12.325 0 0 0-4.576 2.32z" fill="url(#9m7ak8lgyi)"/>
        <path opacity=".21" d="M138.682 86.958c0 .265 0 .523.029.78l12.712 11.614a12.377 12.377 0 0 0 5.52-1.457l-17.277-15.781a12.272 12.272 0 0 0-.984 4.844z" fill="url(#idwbtyqfxj)"/>
        <g opacity=".57" fill="#FFD785">
            <path opacity=".57" d="M102.695 82.543h1.124a.437.437 0 0 0 .004-.873h-1.128a.434.434 0 0 0 0 .863v.01zM105.853 82.558h1.121a.445.445 0 1 0 0-.892h-1.121a.446.446 0 0 0-.449.626.444.444 0 0 0 .449.266zM108.993 82.55h1.121a.437.437 0 0 0 0-.87h-1.121a.438.438 0 0 0-.442.261.435.435 0 0 0 .106.503.436.436 0 0 0 .336.114v-.008zM112.132 82.53h1.12a.405.405 0 0 0 0-.806h-1.12a.42.42 0 1 0 0 .834v-.029zM115.273 82.486l1.12-.025a.357.357 0 1 0 0-.716l-1.12-.025a.36.36 0 0 0-.38.358.374.374 0 0 0 .02.145.35.35 0 0 0 .338.238l.022.025zM118.412 82.418l1.124-.036a.264.264 0 0 0 .189-.084.265.265 0 0 0 .072-.194.268.268 0 0 0-.261-.262l-1.124-.036a.307.307 0 0 0 0 .612zM121.554 82.321l1.121-.043a.17.17 0 0 0 .144-.166.17.17 0 0 0-.144-.166l-1.121-.043a.21.21 0 0 0-.151.054.204.204 0 0 0-.067.146.216.216 0 0 0 .056.15c.038.04.089.065.144.068h.018zM124.695 82.189l1.121-.06c.018 0 0 0 0 0l-1.121-.062a.075.075 0 0 0-.082.072c-.001.01 0 .02.003.03a.07.07 0 0 0 .015.026.074.074 0 0 0 .054.026l.01-.032z"/>
        </g>
        <g opacity=".57" fill="#FFD785">
            <path opacity=".57" d="m147.633 139.008 1.12.064a.069.069 0 0 0 .025-.003.074.074 0 0 0 .021-.013.06.06 0 0 0 .014-.021.06.06 0 0 0 .005-.024.085.085 0 0 0-.003-.023.072.072 0 0 0-.012-.021.062.062 0 0 0-.019-.014.05.05 0 0 0-.023-.006l-1.128.061zM150.772 139.165l1.121.043a.194.194 0 0 0 .206-.114.203.203 0 0 0 0-.162.196.196 0 0 0-.206-.114l-1.121.043a.144.144 0 0 0-.106.048.128.128 0 0 0-.031.051.141.141 0 0 0-.009.058.15.15 0 0 0 .044.102.159.159 0 0 0 .102.045zM153.926 139.266a5.88 5.88 0 0 0 1.167-.147.295.295 0 0 0 .222-.351.295.295 0 0 0-.351-.222h-.018a5.414 5.414 0 0 1-1.049.193.263.263 0 0 0 .029.523v.004zM157.041 138.292c.332-.218.641-.469.924-.749a.364.364 0 0 0 .007-.515.353.353 0 0 0-.256-.11.37.37 0 0 0-.26.103 5.409 5.409 0 0 1-.787.694.359.359 0 0 0 .164.558c.072.025.15.026.222.004l-.014.015zM159.196 135.786c.168-.365.301-.745.397-1.135a.413.413 0 0 0-.608-.428.418.418 0 0 0-.19.235c-.072.34-.179.672-.318.991a.395.395 0 0 0 .216.473.396.396 0 0 0 .499-.147l.004.011zM159.768 132.564v-1.124a.45.45 0 0 0-.032-.167.423.423 0 0 0-.401-.27.439.439 0 0 0-.441.433v1.124a.434.434 0 0 0 .724.281.438.438 0 0 0 .139-.281l.011.004zM159.783 129.41v-1.121a.454.454 0 0 0-.116-.342.452.452 0 0 0-.66 0 .45.45 0 0 0-.115.342v1.121a.437.437 0 0 0 .115.342.443.443 0 0 0 .33.145.452.452 0 0 0 .33-.145.45.45 0 0 0 .116-.342zM159.776 126.27v-1.121a.438.438 0 0 0-.73-.283.442.442 0 0 0-.14.283v1.121a.423.423 0 0 0 .021.18.46.46 0 0 0 .092.157.45.45 0 0 0 .503.106.443.443 0 0 0 .261-.443h-.007zM159.754 123.13v-1.12a.402.402 0 0 0-.403-.367.406.406 0 0 0-.402.367v1.12a.412.412 0 0 0 .135.271.414.414 0 0 0 .564 0 .42.42 0 0 0 .135-.271h-.029zM159.711 119.99l-.025-1.12a.353.353 0 0 0-.126-.2.355.355 0 0 0-.446 0 .358.358 0 0 0-.126.2l-.025 1.12a.375.375 0 0 0 .748 0zM159.643 116.851l-.035-1.124a.271.271 0 0 0-.271-.241.269.269 0 0 0-.27.241l-.036 1.124a.308.308 0 0 0 .612 0zM159.547 113.711l-.043-1.124a.164.164 0 0 0-.054-.113.165.165 0 0 0-.118-.044.161.161 0 0 0-.111.046.168.168 0 0 0-.05.111l-.043 1.124a.206.206 0 0 0 .056.149c.019.02.041.036.066.048a.213.213 0 0 0 .228-.039.212.212 0 0 0 .069-.143v-.015zM159.413 110.568l-.061-1.121h-.018l-.061 1.121c-.001.01 0 .02.004.03.003.01.008.019.014.027a.094.094 0 0 0 .025.018.073.073 0 0 0 .029.007c.01.001.02 0 .03-.003a.061.061 0 0 0 .026-.015.075.075 0 0 0 .019-.024.073.073 0 0 0 .007-.029l-.014-.011z"/>
        </g>
        <path d="M99.946 83.324a1.214 1.214 0 1 1 0-2.427 1.214 1.214 0 0 1 0 2.427zM146.418 140.225a1.213 1.213 0 1 1-.001-2.427 1.213 1.213 0 0 1 .001 2.427z" fill="#F59900"/>
    </g>
    <defs>
        <linearGradient id="fa4itop4fb" x1="3477.76" y1="8422.43" x2="2142.92" y2="9606" gradientUnits="userSpaceOnUse">
            <stop stop-color="#735CD2"/>
            <stop offset="1" stop-color="#8F6ACC"/>
        </linearGradient>
        <linearGradient id="dwtbqbda0c" x1="1807.92" y1="8023.64" x2="2404.86" y2="8023.64" gradientUnits="userSpaceOnUse">
            <stop stop-color="#735CD2"/>
            <stop offset="1" stop-color="#8F6ACC"/>
        </linearGradient>
        <linearGradient id="16q4npa30d" x1="4102.66" y1="8201.29" x2="5234.99" y2="9424.95" gradientUnits="userSpaceOnUse">
            <stop stop-color="#735CD2"/>
            <stop offset="1" stop-color="#8F6ACC"/>
        </linearGradient>
        <linearGradient id="jins2o2j9e" x1="2621.01" y1="8018.2" x2="3217.46" y2="8018.2" gradientUnits="userSpaceOnUse">
            <stop stop-color="#735CD2"/>
            <stop offset="1" stop-color="#8F6ACC"/>
        </linearGradient>
        <linearGradient id="facb1b0elf" x1="1314.14" y1="4122.94" x2="1314.14" y2="4340.28" gradientUnits="userSpaceOnUse">
            <stop stop-color="#735CD2"/>
            <stop offset="1" stop-color="#8F6ACC"/>
        </linearGradient>
        <linearGradient id="mcqnltjvqg" x1="1696.65" y1="4325.9" x2="1696.65" y2="4554.21" gradientUnits="userSpaceOnUse">
            <stop stop-color="#735CD2"/>
            <stop offset="1" stop-color="#8F6ACC"/>
        </linearGradient>
        <linearGradient id="bd4x696pfh" x1="3411.24" y1="10291.7" x2="6121.71" y2="7580.09" gradientUnits="userSpaceOnUse">
            <stop stop-color="#FB9835"/>
            <stop offset="1" stop-color="#FBBB3C"/>
        </linearGradient>
        <linearGradient id="9m7ak8lgyi" x1="-123930" y1="59562.9" x2="-122955" y2="60609.3" gradientUnits="userSpaceOnUse">
            <stop stop-color="#FEFEFC"/>
            <stop offset="1" stop-color="#C4EAFC" stop-opacity=".1"/>
        </linearGradient>
        <linearGradient id="idwbtyqfxj" x1="-113570" y1="54894.2" x2="-112719" y2="55807.1" gradientUnits="userSpaceOnUse">
            <stop stop-color="#FEFEFC"/>
            <stop offset="1" stop-color="#C4EAFC" stop-opacity=".1"/>
        </linearGradient>
        <clipPath id="fmhhebfsta">
            <path fill="#fff" d="M0 0h178v151H0z"/>
        </clipPath>
    </defs>
</svg>
