<svg aria-hidden="true" style="position: absolute; width: 0; height: 0; overflow: hidden;" version="1.1" xmlns="http://www.w3.org/2000/svg" xmlns:xlink="http://www.w3.org/1999/xlink">
<defs>
<symbol id="icon-Add" viewBox="0 0 32 32">
<path fill="#fff" style="fill: var(--color1, #fff)" d="M25.333 17.333h-8v8h-2.667v-8h-8v-2.667h8v-8h2.667v8h8v2.667z"></path>
</symbol>
<symbol id="icon-AlertInfo" viewBox="0 0 32 32">
<path fill="#ffb400" style="fill: var(--color2, #ffb400)" d="M14.666 9.334h2.666v2.666h-2.666v-2.666zM14.666 14.666h2.666v8h-2.666v-8zM16 2.666c-7.36 0-13.334 5.974-13.334 13.334s5.974 13.334 13.334 13.334 13.332-5.974 13.332-13.334-5.972-13.334-13.332-13.334zM16 26.666c-5.881 0-10.668-4.785-10.668-10.666 0-5.879 4.787-10.666 10.668-10.666 5.879 0 10.666 4.785 10.666 10.666s-4.785 10.666-10.666 10.666z"></path>
</symbol>
<symbol id="icon-App-Logo" viewBox="0 0 32 32">
<path fill="#383a3c" style="fill: var(--color3, #383a3c)" d="M2.106 13.643v0.766c0 0.092 0.023 0.155 0.069 0.19 0.049 0.035 0.127 0.053 0.232 0.053h0.1l0.032 0.386-0.032 0.375h-0.1c-0.116 0-0.218-0.028-0.306-0.085-0.035 0.451-0.183 0.8-0.444 1.046s-0.62 0.37-1.078 0.37h-0.333v-0.761h0.333c0.222 0 0.393-0.026 0.513-0.079 0.123-0.049 0.21-0.136 0.259-0.259 0.053-0.12 0.079-0.291 0.079-0.513v-1.49h0.676zM2.432 14.652h0.634c0.331 0 0.643-0.042 0.935-0.127 0.347-0.104 0.646-0.232 0.928-0.387l-0.024 0.012c-0.743-0.257-1.177-0.386-1.3-0.386-0.002-0-0.005-0-0.008-0-0.068 0-0.13 0.026-0.177 0.069l0-0c-0.049 0.042-0.093 0.116-0.132 0.222l-0.592-0.19c0.081-0.275 0.201-0.484 0.359-0.629s0.342-0.217 0.55-0.217c0.144 0 0.372 0.055 0.682 0.164 0.314 0.109 0.726 0.27 1.237 0.481l0.1 0.83c-0.331 0.208-0.618 0.373-0.861 0.497s-0.506 0.225-0.787 0.306c-0.282 0.078-0.585 0.116-0.909 0.116h-0.634v-0.761zM3.516 15.83h0.629v0.629h-0.629v-0.629zM4.033 16.623h0.597v0.597h-0.597v-0.597zM4.514 15.83h0.634v0.629h-0.634v-0.629zM6.885 15.984c0.218 0 0.384-0.019 0.497-0.058 0.113-0.035 0.19-0.097 0.232-0.185 0.046-0.085 0.072-0.206 0.079-0.365h-0.454c-0.335 0-0.601-0.097-0.798-0.291-0.194-0.197-0.291-0.472-0.291-0.824 0-0.25 0.046-0.472 0.137-0.666 0.095-0.197 0.224-0.349 0.386-0.454 0.155-0.1 0.343-0.159 0.546-0.159 0.005 0 0.010 0 0.015 0h-0.001c0.225 0 0.423 0.053 0.592 0.159 0.173 0.106 0.305 0.255 0.396 0.449 0.095 0.194 0.143 0.417 0.143 0.671v1.036c0 0.437-0.12 0.787-0.359 1.052-0.236 0.264-0.609 0.396-1.12 0.396h-0.629v-0.761h0.629zM6.795 14.224c0 0.144 0.035 0.252 0.106 0.322 0.070 0.067 0.183 0.1 0.338 0.1h0.454v-0.402c0-0.366-0.153-0.55-0.46-0.55-0.144 0-0.254 0.049-0.328 0.148s-0.111 0.225-0.111 0.38zM10.842 14.081c-0.19 0.43-0.285 0.784-0.285 1.062 0 0.282 0.065 0.491 0.196 0.629 0.13 0.141 0.345 0.211 0.644 0.211h0.454c0.511 0 0.766-0.095 0.766-0.285 0-0.088-0.067-0.152-0.2-0.19-0.183-0.056-0.435-0.088-0.756-0.095v-0.761h1.749l0.042 0.37-0.043 0.391h-0.211c0.053 0.078 0.079 0.18 0.079 0.306-0.003 0.18-0.067 0.347-0.19 0.502-0.12 0.159-0.287 0.285-0.502 0.38s-0.46 0.143-0.735 0.143h-0.455c-0.31 0-0.58-0.070-0.809-0.211-0.223-0.14-0.4-0.336-0.514-0.568l-0.004-0.008c-0.116-0.24-0.174-0.507-0.174-0.803 0-0.204 0.035-0.43 0.106-0.676 0.074-0.247 0.162-0.479 0.264-0.698l0.576 0.301zM13.352 14.652h0.513c0.271 0 0.402-0.106 0.391-0.317-0.011-0.155-0.056-0.447-0.137-0.877l0.629-0.159c0.12 0.518 0.18 0.888 0.18 1.11 0 0.173-0.039 0.336-0.116 0.491s-0.196 0.281-0.339 0.368l-0.004 0.002c-0.152 0.095-0.335 0.143-0.55 0.143h-0.565v-0.761zM13.812 12.026h0.703v0.687h-0.703v-0.687zM16.586 15.413c-0.37 0-0.643-0.107-0.819-0.322-0.173-0.215-0.259-0.504-0.259-0.867v-2.341h0.671v2.341c0 0.134 0.007 0.229 0.021 0.285 0.018 0.056 0.053 0.095 0.106 0.116 0.056 0.018 0.15 0.026 0.28 0.026h0.19l0.032 0.391-0.032 0.37h-0.19zM16.723 14.652h0.137c0.070 0 0.123-0.016 0.159-0.048 0.039-0.035 0.067-0.092 0.085-0.169l0.137-0.507c0.078-0.306 0.208-0.541 0.391-0.703s0.403-0.243 0.661-0.243c0.204 0 0.386 0.056 0.544 0.169 0.162 0.109 0.289 0.262 0.38 0.46 0.092 0.194 0.137 0.412 0.137 0.655 0 0.292-0.048 0.532-0.143 0.719-0.095 0.183-0.215 0.317-0.359 0.402-0.127 0.076-0.28 0.121-0.444 0.122h-0c-0.12 0-0.247-0.025-0.38-0.074-0.13-0.046-0.326-0.13-0.587-0.254-0.081 0.074-0.171 0.132-0.27 0.174-0.089 0.037-0.193 0.058-0.301 0.058h-0.148v-0.761zM17.764 14.541c0.19 0.088 0.331 0.148 0.423 0.18s0.174 0.048 0.248 0.048c0.194 0 0.291-0.166 0.291-0.497 0-0.18-0.039-0.317-0.116-0.412-0.067-0.090-0.174-0.148-0.294-0.148-0.003 0-0.005 0-0.008 0h0c-0 0-0.001 0-0.002 0-0.105 0-0.199 0.042-0.268 0.111v0c-0.078 0.074-0.134 0.181-0.169 0.322l-0.106 0.396z"></path>
<path fill="#7239ea" style="fill: var(--color4, #7239ea)" d="M9.278 20.404c-0.232 0-0.393-0.062-0.483-0.187-0.089-0.127-0.134-0.312-0.134-0.557l-0.004-1.543h0.275l0.004 1.543c0 0.127 0.007 0.218 0.021 0.275 0.016 0.056 0.047 0.096 0.092 0.12 0.047 0.021 0.123 0.032 0.229 0.032h0.053l0.018 0.162-0.018 0.155h-0.053zM9.297 20.087h0.099c0.11 0 0.178-0.049 0.204-0.148l0.113-0.405c0.052-0.183 0.132-0.326 0.24-0.43 0.108-0.106 0.238-0.159 0.391-0.159 0.122 0 0.23 0.036 0.324 0.109 0.094 0.070 0.167 0.167 0.218 0.289 0.052 0.12 0.078 0.25 0.078 0.391 0 0.174-0.025 0.317-0.074 0.43-0.049 0.11-0.114 0.19-0.194 0.24-0.069 0.048-0.154 0.077-0.246 0.078h-0c-0.089 0-0.178-0.018-0.268-0.053-0.089-0.033-0.23-0.099-0.423-0.197-0.047 0.054-0.102 0.096-0.166 0.127s-0.129 0.046-0.197 0.046h-0.099v-0.317zM9.889 19.949c0.169 0.087 0.289 0.144 0.359 0.173s0.137 0.042 0.201 0.042c0.080 0 0.14-0.029 0.18-0.088 0.040-0.061 0.060-0.175 0.060-0.342 0-0.148-0.029-0.263-0.088-0.345-0.059-0.085-0.144-0.127-0.257-0.127-0.085 0-0.159 0.029-0.222 0.088-0.061 0.059-0.108 0.148-0.141 0.268l-0.092 0.331zM13.17 19.319v0.993c0 0.317-0.080 0.559-0.24 0.726-0.16 0.169-0.39 0.254-0.691 0.254h-0.222v-0.317h0.222c0.235 0 0.403-0.050 0.504-0.151s0.152-0.271 0.152-0.511v-0.993h0.274zM12.857 18.47h0.352v0.352h-0.352v-0.352zM13.646 18.117h0.275l0.004 2.286h-0.275l-0.004-2.286zM16.205 19.319v0.5c0 0.096 0.023 0.166 0.070 0.208 0.047 0.040 0.121 0.060 0.222 0.060h0.035l0.021 0.162-0.021 0.155h-0.035c-0.12 0-0.217-0.033-0.292-0.099v0.007c0 0.317-0.080 0.559-0.24 0.726-0.16 0.169-0.39 0.254-0.691 0.254h-0.222v-0.317h0.222c0.235 0 0.403-0.050 0.504-0.151s0.152-0.271 0.152-0.511v-0.993h0.275zM16.483 20.087h0.437c0.162 0 0.312-0.020 0.451-0.060 0.145-0.043 0.27-0.094 0.388-0.157l-0.011 0.005c0.113-0.059 0.267-0.147 0.462-0.264-0.091-0.045-0.299-0.131-0.509-0.212l-0.121-0.041c-0.143-0.054-0.243-0.081-0.299-0.081-0.070 0-0.126 0.016-0.166 0.049-0.038 0.031-0.074 0.094-0.109 0.19l-0.268-0.085c0.108-0.315 0.289-0.472 0.543-0.472 0.080 0 0.202 0.031 0.366 0.092 0.348 0.128 0.577 0.222 0.803 0.321l-0.109-0.042 0.173 0.070 0.070 0.335-0.187 0.116c-0.126 0.083-0.291 0.183-0.46 0.279l-0.047 0.024c-0.127 0.070-0.274 0.131-0.428 0.176l-0.016 0.004c-0.16 0.047-0.335 0.070-0.525 0.070h-0.437v-0.317zM17.223 20.752h0.352v0.352h-0.352v-0.352zM17.558 21.224h0.335v0.335h-0.335v-0.335zM17.871 20.752h0.352v0.352h-0.352v-0.352zM19.357 20.974c0.164 0 0.292-0.020 0.381-0.060 0.092-0.038 0.155-0.096 0.19-0.176s0.053-0.186 0.053-0.317v-0.021h-0.388c-0.197 0-0.357-0.059-0.479-0.176-0.119-0.117-0.179-0.282-0.179-0.493 0-0.143 0.027-0.274 0.081-0.391 0.057-0.117 0.134-0.21 0.233-0.278 0.094-0.064 0.209-0.102 0.334-0.102 0.003 0 0.005 0 0.008 0h-0c0.134 0 0.251 0.033 0.352 0.099 0.101 0.063 0.178 0.154 0.233 0.271s0.081 0.251 0.081 0.402v0.691c0 0.268-0.072 0.479-0.215 0.634-0.141 0.157-0.368 0.236-0.683 0.236h-0.377v-0.317h0.377zM19.209 19.731c0 0.129 0.031 0.221 0.092 0.275 0.061 0.052 0.159 0.078 0.292 0.078h0.388v-0.352c0-0.143-0.033-0.255-0.099-0.335-0.065-0.082-0.163-0.123-0.292-0.123-0.12 0-0.214 0.042-0.282 0.127-0.066 0.082-0.099 0.193-0.099 0.331zM23.585 14.362c0-0.177 0.142-0.321 0.318-0.321h1.698c0.176 0 0.318 0.144 0.318 0.321 0 0 0 0.001 0 0.001 0 0.176-0.142 0.319-0.318 0.32h-1.698c-0.176-0.001-0.318-0.144-0.318-0.32 0-0 0-0.001 0-0.001v0z"></path>
<path fill="#7239ea" style="fill: var(--color4, #7239ea)" d="M30.762 14.534c0.406 0.025 0.766 0.333 0.796 0.765 0.002 0.028 0.002 0.059 0.002 0.087v1.816c0 0.028 0 0.059-0.002 0.087-0.030 0.431-0.39 0.74-0.796 0.765-0.027 0.002-0.057 0.002-0.088 0.002h-1.221c-1 0-1.856-0.764-1.856-1.761s0.856-1.761 1.856-1.761h1.221c0.031 0 0.061 0 0.088 0.002zM29.345 16.764c0.257 0 0.466-0.21 0.466-0.47s-0.208-0.47-0.466-0.47-0.467 0.21-0.467 0.47c0 0.26 0.209 0.47 0.467 0.47z"></path>
<path fill="#7239ea" style="fill: var(--color4, #7239ea)" opacity="0.5" d="M30.741 14.533c0-0.52-0.019-1.078-0.351-1.478-0.034-0.041-0.068-0.078-0.103-0.113v0c-0.33-0.329-0.747-0.476-1.264-0.545-0.502-0.067-1.143-0.067-1.952-0.067h-0.93c-0.809 0-1.451 0-1.953 0.068-0.516 0.069-0.934 0.216-1.264 0.545s-0.476 0.748-0.545 1.264c-0.067 0.502-0.067 1.143-0.067 1.952v0.049c0 0.809 0 1.451 0.068 1.952 0.069 0.516 0.215 0.934 0.545 1.264s0.748 0.476 1.264 0.545c0.502 0.067 1.143 0.067 1.952 0.067h0.93c0.809 0 1.451 0 1.952-0.068 0.516-0.070 0.934-0.216 1.264-0.545 0.088-0.088 0.166-0.185 0.232-0.291 0.198-0.317 0.222-0.705 0.222-1.079l-0.066 0.001h-1.222c-1 0-1.856-0.764-1.856-1.761s0.856-1.761 1.856-1.761h1.221c0.023 0 0.046 0 0.067 0.001z"></path>
<path fill="#7239ea" style="fill: var(--color4, #7239ea)" d="M25.879 11.261l-0.925 0.625-0.763 0.511c0.501-0.067 1.141-0.067 1.949-0.067h0.93c0.809 0 1.45 0 1.952 0.068 0.101 0.013 0.198 0.030 0.291 0.050l-0.837-0.558-0.931-0.629c-0.234-0.158-0.523-0.252-0.834-0.252s-0.599 0.094-0.839 0.255l0.005-0.003z"></path>
</symbol>
<symbol id="icon-Arrow" viewBox="0 0 32 32">
<path fill="#b5b5c3" style="fill: var(--color5, #b5b5c3)" d="M9.88 11.453l6.12 6.107 6.12-6.107 1.88 1.88-8 8-8-8 1.88-1.88z"></path>
</symbol>
<symbol id="icon-ArrowForward" viewBox="0 0 32 32">
<path fill="#828282" style="fill: var(--color6, #828282)" d="M16 5.333l-1.88 1.88 7.44 7.453h-16.227v2.667h16.227l-7.44 7.453 1.88 1.88 10.667-10.667-10.667-10.667z"></path>
</symbol>
<symbol id="icon-At-_-Light-_-Duotone" viewBox="0 0 32 32">
<path fill="#5e6278" style="fill: var(--color7, #5e6278)" opacity="0.25" d="M16 5.333c-5.889 0.003-10.662 4.778-10.662 10.667 0 5.891 4.776 10.667 10.667 10.667 1.725 0 3.355-0.409 4.796-1.137l-0.061 0.028c0.173-0.088 0.377-0.139 0.593-0.139 0.736 0 1.333 0.597 1.333 1.333 0 0.52-0.298 0.971-0.733 1.191l-0.008 0.003c-1.728 0.876-3.767 1.39-5.927 1.39-7.363 0-13.333-5.969-13.333-13.333s5.969-13.333 13.333-13.333c7.362 0 13.33 5.967 13.333 13.328v0.012c0 0.366 0 1.87-0.485 3.328-0.247 0.743-0.651 1.568-1.333 2.217-0.713 0.683-1.669 1.111-2.85 1.111-0.737 0-1.334-0.597-1.334-1.334s0.597-1.334 1.334-1.334v0c0.022 0.001 0.048 0.002 0.074 0.002 0.362 0 0.69-0.142 0.933-0.373l-0.001 0.001c0.258-0.245 0.48-0.629 0.647-1.134 0.343-1.029 0.347-2.171 0.347-2.496 0-5.891-4.775-10.666-10.665-10.667h-0z"></path>
<path fill="#5e6278" style="fill: var(--color7, #5e6278)" d="M20 16v0c0-2.209-1.791-4-4-4s-4 1.791-4 4v0c0 2.209 1.791 4 4 4s4-1.791 4-4zM21.001 20.409c-1.228 1.388-3.013 2.259-5.002 2.259-3.682 0-6.667-2.985-6.667-6.667s2.985-6.667 6.667-6.667c1.509 0 2.901 0.501 4.018 1.346l-0.017-0.012c0-0.737 0.597-1.334 1.334-1.334s1.334 0.597 1.334 1.334v0c0 3.403 0.007 5.886 0.384 7.536 0.183 0.809 0.421 1.241 0.64 1.467 0.178 0.183 0.437 0.329 0.976 0.329 0.737 0 1.334 0.597 1.334 1.334s-0.597 1.334-1.334 1.334v0c-1.129 0-2.119-0.352-2.88-1.131-0.311-0.322-0.574-0.694-0.775-1.101l-0.011-0.026z"></path>
</symbol>
<symbol id="icon-Bank" viewBox="0 0 32 32">
<path fill="#9b51e0" style="fill: var(--color8, #9b51e0)" d="M9.333 13.333h-4v9.333h4v-9.333zM18 13.333h-4v9.333h4v-9.333zM29.333 25.333h-26.667v4h26.667v-4zM26.667 13.333h-4v9.333h4v-9.333zM16 1.333l-13.333 6.667v2.667h26.667v-2.667l-13.333-6.667z"></path>
</symbol>
<symbol id="icon-CalendarToday" viewBox="0 0 32 32">
<path fill="#b4b2b7" style="fill: var(--color9, #b4b2b7)" d="M26.667 4h-1.333v-2.667h-2.667v2.667h-13.333v-2.667h-2.667v2.667h-1.333c-1.467 0-2.667 1.2-2.667 2.667v21.333c0 1.467 1.2 2.667 2.667 2.667h21.333c1.467 0 2.667-1.2 2.667-2.667v-21.333c0-1.467-1.2-2.667-2.667-2.667zM26.667 28h-21.333v-17.333h21.333v17.333z"></path>
</symbol>
<symbol id="icon-Cancel" viewBox="0 0 32 32">
<path fill="#ff4c51" style="fill: var(--color10, #ff4c51)" d="M16 2.667c-0.003 0-0.007 0-0.011 0-7.357 0-13.322 5.964-13.322 13.322 0 0.004 0 0.008 0 0.012v-0.001c0 0.003 0 0.007 0 0.011 0 7.357 5.964 13.322 13.322 13.322 0.004 0 0.008 0 0.012 0h-0.001c0.004 0 0.008 0 0.013 0 7.357 0 13.322-5.964 13.322-13.322 0-0.004 0-0.008 0-0.012v0.001c0-0.003 0-0.007 0-0.011 0-7.357-5.964-13.322-13.322-13.322-0.005 0-0.009 0-0.014 0h0.001zM22.667 20.787l-1.88 1.88-4.787-4.787-4.784 4.787-1.88-1.88 4.784-4.787-4.786-4.787 1.88-1.88 4.786 4.787 4.787-4.787 1.88 1.88-4.787 4.787 4.787 4.787z"></path>
<path fill="#000" style="fill: var(--color11, #000)" opacity="0.1" d="M16 2.667c-0.003 0-0.007 0-0.011 0-7.357 0-13.322 5.964-13.322 13.322 0 0.004 0 0.008 0 0.012v-0.001c0 0.003 0 0.007 0 0.011 0 7.357 5.964 13.322 13.322 13.322 0.004 0 0.008 0 0.012 0h-0.001c0.004 0 0.008 0 0.013 0 7.357 0 13.322-5.964 13.322-13.322 0-0.004 0-0.008 0-0.012v0.001c0-0.003 0-0.007 0-0.011 0-7.357-5.964-13.322-13.322-13.322-0.005 0-0.009 0-0.014 0h0.001zM22.667 20.787l-1.88 1.88-4.787-4.787-4.784 4.787-1.88-1.88 4.784-4.787-4.786-4.787 1.88-1.88 4.786 4.787 4.787-4.787 1.88 1.88-4.787 4.787 4.787 4.787z"></path>
</symbol>
<symbol id="icon-Check" viewBox="0 0 32 32">
<path fill="#fff" style="fill: var(--color1, #fff)" d="M12 21.56l-5.56-5.56-1.893 1.88 7.453 7.453 16-16-1.88-1.88-14.12 14.107z"></path>
</symbol>
<symbol id="icon-CloudUpload" viewBox="0 0 32 32">
<path fill="#4d3dee" style="fill: var(--color12, #4d3dee)" d="M25.8 13.387c-0.907-4.6-4.947-8.053-9.8-8.053-3.853 0-7.2 2.187-8.867 5.387-4.013 0.427-7.133 3.827-7.133 7.947 0 4.413 3.587 8 8 8h17.333c3.68 0 6.667-2.987 6.667-6.667 0-3.52-2.733-6.373-6.2-6.613zM18.667 17.333v5.333h-5.333v-5.333h-4l6.667-6.667 6.667 6.667h-4z"></path>
</symbol>
<symbol id="icon-company-logo-2" viewBox="0 0 32 32">
<path fill="#383a3c" style="fill: var(--color3, #383a3c)" d="M10.254 21.894v0.57c0 0.068 0.017 0.115 0.051 0.142 0.037 0.026 0.094 0.039 0.173 0.039h0.075l0.024 0.287-0.024 0.28h-0.075c-0.086 0-0.162-0.021-0.228-0.063-0.026 0.336-0.136 0.595-0.331 0.779s-0.462 0.275-0.803 0.275h-0.248v-0.567h0.248c0.165 0 0.293-0.020 0.382-0.059 0.092-0.037 0.156-0.101 0.193-0.193 0.039-0.089 0.059-0.216 0.059-0.382v-1.11h0.504zM10.498 22.645h0.472c0.246 0 0.479-0.032 0.696-0.094 0.258-0.078 0.481-0.173 0.691-0.288l-0.018 0.009c-0.553-0.192-0.876-0.287-0.968-0.287-0.002-0-0.004-0-0.006-0-0.051 0-0.097 0.020-0.132 0.051l0-0c-0.037 0.031-0.069 0.086-0.098 0.165l-0.441-0.142c0.060-0.205 0.149-0.361 0.267-0.468 0.105-0.1 0.248-0.161 0.405-0.161 0.002 0 0.003 0 0.004 0h-0c0.107 0 0.277 0.041 0.508 0.122 0.233 0.081 0.54 0.201 0.921 0.358l0.075 0.618c-0.171 0.112-0.38 0.234-0.596 0.348l-0.046 0.022c-0.181 0.092-0.376 0.168-0.586 0.228-0.21 0.058-0.435 0.087-0.677 0.087h-0.472v-0.567zM11.304 23.523h0.468v0.468h-0.468v-0.468zM11.69 24.113h0.445v0.445h-0.445v-0.445zM12.048 23.523h0.472v0.468h-0.472v-0.468zM13.813 23.637c0.163 0 0.286-0.014 0.37-0.043 0.084-0.026 0.142-0.072 0.173-0.138 0.034-0.063 0.054-0.153 0.059-0.272h-0.338c-0.249 0-0.447-0.072-0.594-0.216-0.144-0.147-0.216-0.351-0.216-0.614 0-0.186 0.034-0.352 0.102-0.496 0.071-0.147 0.167-0.26 0.287-0.338 0.115-0.074 0.256-0.118 0.407-0.118 0.004 0 0.007 0 0.011 0h-0.001c0.168 0 0.315 0.039 0.441 0.118 0.129 0.079 0.227 0.19 0.295 0.334 0.071 0.144 0.106 0.311 0.106 0.5v0.771c0 0.325-0.089 0.586-0.267 0.783-0.176 0.197-0.454 0.295-0.834 0.295h-0.468v-0.567h0.468zM13.746 22.327c0 0.108 0.026 0.188 0.079 0.24 0.053 0.050 0.136 0.075 0.252 0.075h0.338v-0.299c0-0.273-0.114-0.409-0.342-0.409-0.107 0-0.189 0.037-0.244 0.11s-0.082 0.168-0.082 0.283zM16.76 22.221c-0.142 0.32-0.213 0.584-0.213 0.791 0 0.21 0.049 0.366 0.146 0.468 0.097 0.105 0.257 0.157 0.48 0.157h0.338c0.38 0 0.57-0.071 0.57-0.213 0-0.066-0.050-0.113-0.149-0.142-0.136-0.042-0.324-0.065-0.563-0.071v-0.567h1.302l0.032 0.276-0.032 0.291h-0.157c0.039 0.058 0.059 0.134 0.059 0.228-0.003 0.134-0.050 0.258-0.142 0.374-0.089 0.118-0.214 0.213-0.374 0.283s-0.342 0.106-0.547 0.106h-0.338c-0.231 0-0.432-0.053-0.602-0.157-0.166-0.104-0.298-0.25-0.383-0.423l-0.003-0.006c-0.087-0.178-0.13-0.378-0.13-0.598 0-0.152 0.026-0.32 0.079-0.504 0.055-0.184 0.121-0.357 0.197-0.519l0.429 0.224zM18.629 22.645h0.382c0.202 0 0.299-0.079 0.291-0.236-0.008-0.115-0.042-0.333-0.102-0.653l0.468-0.118c0.089 0.386 0.134 0.661 0.134 0.826 0 0.128-0.029 0.25-0.087 0.366s-0.146 0.21-0.253 0.274l-0.003 0.002c-0.113 0.071-0.249 0.106-0.409 0.106h-0.421v-0.567zM18.971 20.69h0.523v0.511h-0.523v-0.511zM21.036 23.212c-0.275 0-0.479-0.080-0.61-0.24-0.129-0.16-0.193-0.375-0.193-0.645v-1.743h0.5v1.743c0 0.1 0.005 0.17 0.016 0.213 0.013 0.042 0.039 0.071 0.078 0.086 0.042 0.013 0.112 0.020 0.209 0.020h0.142l0.024 0.291-0.024 0.275h-0.142zM21.138 22.645h0.102c0.053 0 0.092-0.011 0.118-0.035 0.029-0.026 0.050-0.068 0.063-0.126l0.102-0.378c0.058-0.228 0.155-0.403 0.291-0.523s0.3-0.181 0.492-0.181c0.152 0 0.287 0.042 0.405 0.126 0.121 0.081 0.215 0.195 0.283 0.342 0.068 0.144 0.102 0.307 0.102 0.488 0 0.218-0.035 0.396-0.106 0.535-0.071 0.136-0.16 0.236-0.267 0.299-0.105 0.060-0.215 0.090-0.331 0.090-0.089 0-0.184-0.018-0.283-0.055-0.097-0.034-0.242-0.097-0.437-0.189-0.057 0.053-0.123 0.096-0.196 0.128l-0.005 0.002c-0.074 0.029-0.148 0.043-0.224 0.043h-0.11v-0.567zM21.913 22.563c0.142 0.065 0.247 0.11 0.315 0.134 0.055 0.021 0.118 0.034 0.184 0.035h0.001c0.144 0 0.216-0.123 0.216-0.37 0-0.134-0.029-0.236-0.087-0.307-0.050-0.067-0.129-0.11-0.219-0.11-0.002 0-0.004 0-0.006 0h0c-0.076 0-0.143 0.027-0.201 0.082s-0.1 0.135-0.126 0.24l-0.079 0.295z"></path>
<path fill="#9b51e0" style="fill: var(--color8, #9b51e0)" d="M11.574 28.647c-0.202 0-0.342-0.054-0.419-0.162-0.078-0.11-0.116-0.271-0.116-0.483l-0.003-1.34h0.239l0.003 1.34c0 0.11 0.006 0.19 0.018 0.239 0.011 0.045 0.040 0.082 0.079 0.104l0.001 0c0.041 0.018 0.107 0.028 0.199 0.028h0.046l0.016 0.141-0.015 0.135h-0.046zM11.591 28.371h0.086c0.096 0 0.155-0.043 0.177-0.128l0.098-0.352c0.045-0.159 0.114-0.284 0.208-0.373 0.085-0.085 0.202-0.138 0.332-0.138 0.003 0 0.006 0 0.008 0h-0c0.106 0 0.2 0.032 0.282 0.095 0.082 0.061 0.145 0.145 0.19 0.251 0.045 0.104 0.067 0.217 0.067 0.34 0 0.151-0.021 0.275-0.064 0.373-0.043 0.096-0.099 0.165-0.168 0.208-0.060 0.042-0.134 0.067-0.214 0.067h-0c-0.084-0-0.164-0.017-0.237-0.047l0.004 0.002c-0.078-0.029-0.2-0.086-0.367-0.171-0.039 0.046-0.087 0.083-0.141 0.109l-0.003 0.001c-0.050 0.025-0.109 0.040-0.171 0.040h-0.085v-0.275zM12.105 28.252c0.147 0.075 0.251 0.125 0.312 0.15s0.119 0.037 0.174 0.037c0.069 0 0.121-0.025 0.156-0.076 0.035-0.053 0.052-0.152 0.052-0.297 0-0.128-0.025-0.229-0.076-0.3-0.051-0.073-0.126-0.11-0.224-0.11-0.073 0-0.138 0.026-0.193 0.077-0.053 0.051-0.094 0.128-0.123 0.232l-0.080 0.288zM14.956 27.704v0.863c0 0.275-0.069 0.485-0.208 0.63-0.139 0.147-0.339 0.22-0.6 0.22h-0.193v-0.275h0.193c0.204 0 0.35-0.044 0.438-0.132s0.131-0.236 0.131-0.444v-0.863h0.239zM14.683 26.967h0.306v0.306h-0.306v-0.306zM15.369 26.661h0.239l0.003 1.986h-0.239l-0.003-1.986zM17.592 27.704v0.434c0 0.084 0.020 0.144 0.061 0.181 0.041 0.035 0.105 0.052 0.193 0.052h0.031l0.018 0.141-0.018 0.135h-0.031c-0.104 0-0.189-0.029-0.254-0.086v0.006c0 0.275-0.070 0.485-0.208 0.63-0.139 0.147-0.339 0.22-0.6 0.22h-0.193v-0.275h0.193c0.204 0 0.35-0.044 0.438-0.132s0.131-0.236 0.131-0.444v-0.863h0.239zM17.833 28.371h0.379c0.141 0 0.271-0.017 0.392-0.052 0.126-0.037 0.234-0.082 0.337-0.136l-0.010 0.005c0.175-0.093 0.306-0.17 0.435-0.249l-0.034 0.020c-0.076-0.038-0.257-0.112-0.439-0.183l-0.109-0.037c-0.125-0.047-0.211-0.070-0.26-0.070-0.061 0-0.109 0.014-0.144 0.043-0.032 0.026-0.064 0.082-0.095 0.165l-0.232-0.073c0.094-0.273 0.251-0.41 0.471-0.41 0.069 0 0.175 0.026 0.318 0.080 0.145 0.053 0.346 0.134 0.603 0.242l0.15 0.061 0.061 0.291-0.162 0.101c-0.178 0.112-0.325 0.2-0.441 0.263-0.11 0.061-0.238 0.114-0.372 0.153l-0.014 0.003c-0.132 0.039-0.283 0.061-0.44 0.061-0.006 0-0.011-0-0.017-0h-0.379v-0.275zM18.476 28.95h0.306v0.306h-0.306v-0.306zM18.767 29.36h0.291v0.291h-0.291v-0.291zM19.039 28.95h0.306v0.306h-0.306v-0.306zM20.33 29.143c0.143 0 0.253-0.017 0.331-0.052 0.080-0.033 0.135-0.084 0.165-0.153s0.046-0.161 0.046-0.275v-0.018h-0.337c-0.171 0-0.31-0.051-0.416-0.153-0.104-0.102-0.156-0.245-0.156-0.428 0-0.125 0.023-0.238 0.070-0.34 0.049-0.102 0.116-0.182 0.202-0.242 0.081-0.056 0.182-0.089 0.29-0.089 0.002 0 0.005 0 0.007 0h-0c0.116 0 0.218 0.028 0.306 0.085 0.088 0.055 0.155 0.134 0.202 0.236s0.070 0.218 0.070 0.349v0.6c0 0.232-0.062 0.416-0.186 0.551-0.122 0.137-0.32 0.205-0.594 0.205h-0.327v-0.275h0.327zM20.201 28.062c0 0.112 0.026 0.192 0.080 0.239 0.053 0.045 0.138 0.067 0.254 0.067h0.337v-0.306c0-0.125-0.029-0.221-0.086-0.291-0.057-0.072-0.142-0.107-0.254-0.107-0.104 0-0.186 0.037-0.245 0.11-0.057 0.071-0.086 0.167-0.086 0.288zM10.821 9.215c0-0.001 0-0.001 0-0.002 0-0.291 0.235-0.527 0.526-0.528h2.81c0.291 0.001 0.527 0.237 0.527 0.528 0 0.001 0 0.001 0 0.002v-0c0 0.001 0 0.002 0 0.003 0 0.291-0.236 0.528-0.527 0.529h-2.81c-0.291-0.002-0.526-0.238-0.526-0.529 0-0.001 0-0.002 0-0.002v0z"></path>
<path fill="#9b51e0" style="fill: var(--color8, #9b51e0)" d="M22.695 9.499c0.672 0.042 1.267 0.552 1.317 1.266 0.003 0.047 0.003 0.097 0.003 0.144v3.005c0 0.047 0 0.097-0.003 0.144-0.050 0.714-0.645 1.225-1.317 1.266-0.045 0.003-0.095 0.003-0.146 0.003h-2.021c-1.655 0-3.071-1.265-3.071-2.915s1.416-2.914 3.071-2.914h2.021c0.051 0 0.1 0 0.146 0.003zM20.35 13.189c0.426 0 0.771-0.348 0.771-0.777s-0.345-0.777-0.771-0.777c-0.426 0-0.772 0.348-0.772 0.777 0 0.43 0.346 0.778 0.773 0.778z"></path>
<path fill="#9b51e0" style="fill: var(--color8, #9b51e0)" opacity="0.5" d="M22.66 9.498c0-0.861-0.032-1.784-0.581-2.445-0.056-0.068-0.112-0.128-0.17-0.187l0 0c-0.546-0.545-1.237-0.787-2.091-0.902-0.83-0.112-1.891-0.112-3.23-0.112h-1.539c-1.339 0-2.4 0-3.231 0.112-0.854 0.115-1.545 0.357-2.091 0.902s-0.787 1.237-0.902 2.091c-0.111 0.831-0.111 1.891-0.111 3.23v0.082c0 1.339 0 2.4 0.112 3.23 0.115 0.854 0.357 1.545 0.902 2.091s1.237 0.787 2.091 0.902c0.831 0.112 1.891 0.112 3.23 0.112h1.539c1.339 0 2.4 0 3.23-0.112 0.854-0.115 1.545-0.357 2.091-0.902 0.142-0.142 0.268-0.3 0.376-0.47l0.007-0.011c0.328-0.525 0.367-1.167 0.367-1.785l-0.109 0.001h-2.021c-1.655 0-3.071-1.265-3.071-2.915s1.416-2.915 3.071-2.915h2.021c0.038 0 0.076 0 0.111 0.001z"></path>
<path fill="#9b51e0" style="fill: var(--color8, #9b51e0)" d="M14.616 4.085l-1.531 1.035-1.263 0.845c0.829-0.111 1.888-0.111 3.226-0.111h1.539c1.339 0 2.4 0 3.23 0.112 0.168 0.022 0.328 0.049 0.482 0.083l-1.385-0.923-1.54-1.040c-0.388-0.261-0.865-0.417-1.379-0.417s-0.992 0.156-1.388 0.422l0.009-0.006z"></path>
</symbol>
<symbol id="icon-Copy" viewBox="0 0 32 32">
<path fill="#b5b5c3" style="fill: var(--color5, #b5b5c3)" d="M21.333 1.333h-16c-1.467 0-2.667 1.2-2.667 2.667v18.667h2.667v-18.667h16v-2.667zM25.333 6.667h-14.667c-1.467 0-2.667 1.2-2.667 2.667v18.667c0 1.467 1.2 2.667 2.667 2.667h14.667c1.467 0 2.667-1.2 2.667-2.667v-18.667c0-1.467-1.2-2.667-2.667-2.667zM25.333 28h-14.667v-18.667h14.667v18.667z"></path>
</symbol>
<symbol id="icon-FilePresent" viewBox="0 0 32 32">
<path fill="#fff" style="fill: var(--color1, #fff)" d="M19.81 3.81h-11.429c-1.397 0-2.54 1.143-2.54 2.54v20.317c0 1.397 1.143 2.54 2.54 2.54h15.238c1.396 0 2.539-1.143 2.539-2.54v-16.507l-6.348-6.35zM8.381 26.667v-20.317h10.158v5.079h5.080v15.238h-15.238zM21.079 13.969v6.348c0 2.805-2.274 5.080-5.080 5.080s-5.080-2.274-5.080-5.080v0-8.253c0-1.867 1.6-3.352 3.505-3.162 1.652 0.165 2.845 1.676 2.845 3.339v8.076h-2.54v-8.253c0-0.002 0-0.004 0-0.006 0-0.348-0.282-0.629-0.629-0.629-0.002 0-0.003 0-0.005 0h0c-0.002-0-0.004-0-0.006-0-0.348 0-0.629 0.282-0.629 0.629 0 0.002 0 0.004 0 0.006v-0 8.253c0 1.397 1.143 2.54 2.54 2.54 1.396 0 2.539-1.143 2.539-2.54v-6.348h2.54z"></path>
</symbol>
<symbol id="icon-google-icon-2" viewBox="0 0 32 32">
<path fill="#4285f4" style="fill: var(--color13, #4285f4)" d="M31.432 16.289c0-1.266-0.105-2.189-0.332-3.148h-14.792v5.714h8.682c-0.174 1.42-1.12 3.559-3.221 4.995l-0.029 0.191 4.676 3.541 0.324 0.031c2.975-2.686 4.691-6.637 4.691-11.324z"></path>
<path fill="#34a853" style="fill: var(--color14, #34a853)" d="M16.308 31.342c4.254 0 7.825-1.368 10.433-3.73l-4.972-3.763c-1.33 0.907-3.115 1.539-5.461 1.539-0.003 0-0.006 0-0.008 0-4.129 0-7.64-2.644-8.933-6.331l-0.020-0.066-0.185 0.015-4.863 3.678-0.064 0.173c2.591 5.028 7.912 8.484 14.074 8.484z"></path>
<path fill="#fbbc05" style="fill: var(--color15, #fbbc05)" d="M7.346 18.991c-0.329-0.906-0.521-1.952-0.525-3.043v-0.002c0-1.060 0.192-2.087 0.508-3.046l-0.009-0.203-4.925-3.738-0.161 0.075c-1.056 2.008-1.677 4.386-1.681 6.91v0.001c0 2.481 0.614 4.823 1.681 6.911l5.112-3.866z"></path>
<path fill="#eb4335" style="fill: var(--color16, #eb4335)" d="M16.308 6.505c2.957 0 4.954 1.248 6.091 2.292l4.447-4.242c-2.731-2.481-6.284-4.003-10.538-4.003-6.162 0-11.484 3.455-14.074 8.484l5.095 3.866c1.326-3.755 4.844-6.397 8.98-6.398h0z"></path>
</symbol>
<symbol id="icon-Home" viewBox="0 0 32 32">
<path fill="#fff" style="fill: var(--color1, #fff)" d="M16 7.587l6.667 6v10.413h-2.667v-8h-8v8h-2.667v-10.413l6.667-6zM16 4l-13.333 12h4v10.667h8v-8h2.667v8h8v-10.667h4l-13.333-12z"></path>
</symbol>
<symbol id="icon-Icon-dollar" viewBox="0 0 32 32">
<path fill="#f1ecfc" style="fill: var(--color17, #f1ecfc)" d="M16 0c8.837 0 16 7.163 16 16s-7.163 16-16 16c-8.837 0-16-7.163-16-16s7.163-16 16-16z"></path>
<path fill="#4d3dee" style="fill: var(--color12, #4d3dee)" d="M15.861 15.235c-1.579-0.41-2.087-0.835-2.087-1.496 0-0.758 0.703-1.287 1.878-1.287 1.238 0 1.697 0.591 1.739 1.461h1.537c-0.049-1.197-0.779-2.296-2.233-2.65v-1.523h-2.087v1.503c-1.35 0.292-2.435 1.169-2.435 2.511 0 1.607 1.329 2.407 3.27 2.873 1.739 0.417 2.087 1.030 2.087 1.677 0 0.48-0.341 1.245-1.878 1.245-1.433 0-1.997-0.64-2.073-1.461h-1.53c0.083 1.523 1.224 2.379 2.56 2.664v1.51h2.087v-1.496c1.357-0.257 2.435-1.043 2.435-2.47 0-1.976-1.69-2.65-3.27-3.061z"></path>
</symbol>
<symbol id="icon-Iconly_Light_Profile" viewBox="0 0 32 32">
<path fill="none" stroke="#fff" style="stroke: var(--color1, #fff)" stroke-linejoin="round" stroke-linecap="round" stroke-miterlimit="4" stroke-width="2" d="M21.809 9.704c0 3.518-2.852 6.371-6.371 6.371s-6.371-2.852-6.371-6.371c0-3.518 2.852-6.371 6.371-6.371s6.371 2.852 6.371 6.371z"></path>
<path fill="none" stroke="#fff" style="stroke: var(--color1, #fff)" stroke-linejoin="round" stroke-linecap="round" stroke-miterlimit="4" stroke-width="2" d="M5.333 24.935c0-0.003-0-0.007-0-0.010 0-0.467 0.108-0.908 0.301-1.301l-0.008 0.017c0.609-1.22 2.331-1.867 3.759-2.16 0.893-0.201 1.962-0.358 3.052-0.436l0.072-0.004c0.876-0.082 1.894-0.128 2.923-0.128s2.047 0.047 3.053 0.138l-0.13-0.009c1.049 0.075 2.093 0.221 3.124 0.44 1.427 0.293 3.148 0.879 3.76 2.16 0.185 0.38 0.293 0.828 0.293 1.3s-0.108 0.92-0.301 1.318l0.008-0.018c-0.612 1.28-2.333 1.867-3.76 2.147-1.029 0.229-2.073 0.381-3.124 0.453-1.584 0.133-3.173 0.157-4.76 0.072-0.367 0-0.72 0-1.087-0.073-1.152-0.079-2.216-0.239-3.25-0.477l0.138 0.027c-1.44-0.28-3.148-0.867-3.771-2.148-0.185-0.381-0.293-0.829-0.293-1.303 0-0.002 0-0.004 0-0.005v0z"></path>
</symbol>
<symbol id="icon-icon-Menu" viewBox="0 0 32 32">
<path fill="#7e8299" style="fill: var(--color18, #7e8299)" d="M4 24h24v-2.666h-24v2.666zM4 8v2.666h24v-2.666h-24zM28 17.334h-18.667v-2.667h18.667v2.667z"></path>
</symbol>
<symbol id="icon-icon-menu-admin-income-1" viewBox="0 0 32 32">
<path fill="#95e6b7" style="fill: var(--color19, #95e6b7)" d="M15.054 12.946c0.126 0.121 0.277 0.217 0.44 0.28 0.149 0.068 0.323 0.107 0.507 0.107s0.358-0.039 0.515-0.11l-0.008 0.003c0.163-0.064 0.313-0.159 0.44-0.28l3.053-3c0.249-0.249 0.403-0.593 0.403-0.973 0-0.76-0.616-1.376-1.376-1.376-0.38 0-0.724 0.154-0.973 0.403v0l-0.72 0.786v-4.786c0-0.012 0.001-0.025 0.001-0.039 0-0.737-0.597-1.334-1.334-1.334s-1.334 0.597-1.334 1.334c0 0.014 0 0.027 0.001 0.041l-0-0.002v4.786l-0.72-0.786c-0.246-0.234-0.58-0.378-0.947-0.378-0.761 0-1.377 0.617-1.377 1.377 0 0.367 0.144 0.7 0.378 0.947l-0.001-0.001 3.054 3z"></path>
<path fill="#17c653" style="fill: var(--color20, #17c653)" d="M16 16c-2.209 0-4 1.791-4 4s1.791 4 4 4v0c2.209 0 4-1.791 4-4s-1.791-4-4-4v0zM16 21.333c-0.736 0-1.333-0.597-1.333-1.333s0.597-1.333 1.333-1.333v0c0.736 0 1.333 0.597 1.333 1.333s-0.597 1.333-1.333 1.333v0zM25.333 20c0-0.012 0.001-0.025 0.001-0.039 0-0.737-0.597-1.334-1.334-1.334s-1.334 0.597-1.334 1.334c0 0.014 0 0.027 0.001 0.041l-0-0.002c0 0.737 0.597 1.334 1.334 1.334s1.334-0.597 1.334-1.334v0zM26.666 10.666h-4c-0.72 0.022-1.295 0.61-1.295 1.333s0.575 1.311 1.293 1.333l0.002 0h4c0.737 0 1.334 0.597 1.334 1.334v0 10.666c0 0.737-0.597 1.334-1.334 1.334v0h-21.333c-0.737 0-1.334-0.597-1.334-1.334v0-10.666c0-0.737 0.597-1.334 1.334-1.334v0h4c0.012 0 0.025 0.001 0.039 0.001 0.737 0 1.334-0.597 1.334-1.334s-0.597-1.334-1.334-1.334c-0.014 0-0.027 0-0.041 0.001l0.002-0h-4c-2.209 0-4 1.791-4 4v0 10.666c0 2.209 1.791 4 4 4v0h21.333c2.209 0 4-1.791 4-4v0-10.666c0-2.209-1.791-4-4-4v0zM6.666 20c0 0.736 0.597 1.333 1.333 1.333s1.333-0.597 1.333-1.333v0c0-0.736-0.597-1.333-1.333-1.333s-1.333 0.597-1.333 1.333v0z"></path>
</symbol>
<symbol id="icon-icon-menu-admin-income-2" viewBox="0 0 33 32">
<path fill="#ffd783" style="fill: var(--color21, #ffd783)" d="M15.434 12.946c0.127 0.121 0.277 0.217 0.44 0.28 0.149 0.068 0.323 0.107 0.507 0.107s0.358-0.039 0.515-0.11l-0.008 0.003c0.163-0.064 0.313-0.159 0.44-0.28l3.054-3c0.249-0.249 0.403-0.593 0.403-0.973 0-0.76-0.616-1.377-1.377-1.377-0.38 0-0.725 0.154-0.974 0.404v0l-0.72 0.786v-4.786c0-0.012 0.001-0.025 0.001-0.039 0-0.737-0.597-1.334-1.334-1.334s-1.334 0.597-1.334 1.334c0 0.014 0 0.027 0.001 0.041l-0-0.002v4.786l-0.72-0.786c-0.245-0.228-0.575-0.369-0.938-0.369-0.761 0-1.377 0.617-1.377 1.377 0 0.363 0.14 0.693 0.369 0.939l-0.001-0.001 3.053 3z"></path>
<path fill="#ffb822" style="fill: var(--color22, #ffb822)" d="M16.381 16c-2.209 0-4 1.791-4 4s1.791 4 4 4v0c2.209 0 4-1.791 4-4s-1.791-4-4-4v0zM16.381 21.333c-0.736 0-1.333-0.597-1.333-1.333s0.597-1.333 1.333-1.333v0c0.736 0 1.333 0.597 1.333 1.333s-0.597 1.333-1.333 1.333v0zM25.714 20c0-0.012 0.001-0.025 0.001-0.039 0-0.737-0.597-1.334-1.334-1.334s-1.334 0.597-1.334 1.334c0 0.014 0 0.027 0.001 0.041l-0-0.002c0.022 0.72 0.61 1.295 1.333 1.295s1.311-0.575 1.333-1.293l0-0.002zM27.048 10.666h-4c-0.012-0-0.025-0.001-0.039-0.001-0.737 0-1.334 0.597-1.334 1.334s0.597 1.334 1.334 1.334c0.014 0 0.027-0 0.041-0.001l-0.002 0h4c0.736 0.001 1.333 0.598 1.333 1.334v0 10.666c0 0.736-0.596 1.333-1.332 1.334h-21.334c-0.737 0-1.334-0.597-1.334-1.334v0-10.666c0-0.737 0.597-1.334 1.334-1.334v0h4c0.012 0 0.025 0.001 0.039 0.001 0.737 0 1.334-0.597 1.334-1.334s-0.597-1.334-1.334-1.334c-0.014 0-0.027 0-0.041 0.001l0.002-0h-4c-2.209 0-4 1.791-4 4v0 10.666c0 2.209 1.791 4 4 4v0h21.334c2.209 0 4-1.791 4-4v0-10.666c0-2.209-1.791-4-4-4v0zM7.048 20c0 0.736 0.597 1.333 1.333 1.333s1.333-0.597 1.333-1.333v0c0-0.736-0.597-1.333-1.333-1.333s-1.333 0.597-1.333 1.333v0z"></path>
</symbol>
<symbol id="icon-icon-menu-admin-income" viewBox="0 0 33 32">
<path fill="#abc7ff" style="fill: var(--color23, #abc7ff)" d="M15.815 12.946c0.127 0.121 0.277 0.217 0.44 0.28 0.149 0.068 0.323 0.107 0.507 0.107s0.358-0.039 0.515-0.11l-0.008 0.003c0.163-0.064 0.313-0.159 0.44-0.28l3.054-3c0.249-0.249 0.403-0.593 0.403-0.973 0-0.76-0.616-1.377-1.377-1.377-0.38 0-0.725 0.154-0.974 0.404v0l-0.72 0.786v-4.786c0-0.012 0.001-0.025 0.001-0.039 0-0.737-0.597-1.334-1.334-1.334s-1.334 0.597-1.334 1.334c0 0.014 0 0.027 0.001 0.041l-0-0.002v4.786l-0.72-0.786c-0.245-0.228-0.575-0.369-0.938-0.369-0.761 0-1.377 0.617-1.377 1.377 0 0.363 0.14 0.693 0.369 0.939l-0.001-0.001 3.053 3z"></path>
<path fill="#1b84ff" style="fill: var(--color24, #1b84ff)" d="M16.761 16c-2.209 0-4 1.791-4 4s1.791 4 4 4v0c2.209 0 4-1.791 4-4s-1.791-4-4-4v0zM16.761 21.333c-0.736 0-1.333-0.597-1.333-1.333s0.597-1.333 1.333-1.333v0c0.736 0 1.333 0.597 1.333 1.333s-0.597 1.333-1.333 1.333v0zM26.095 20c0-0.012 0.001-0.025 0.001-0.039 0-0.737-0.597-1.334-1.334-1.334s-1.334 0.597-1.334 1.334c0 0.014 0 0.027 0.001 0.041l-0-0.002c0.022 0.72 0.61 1.295 1.333 1.295s1.311-0.575 1.333-1.293l0-0.002zM27.429 10.666h-4c-0.72 0.022-1.295 0.61-1.295 1.333s0.575 1.311 1.293 1.333l0.002 0h4c0.736 0.001 1.333 0.598 1.333 1.334v0 10.666c0 0.736-0.596 1.333-1.332 1.334h-21.334c-0.737 0-1.334-0.597-1.334-1.334v0-10.666c0-0.737 0.597-1.334 1.334-1.334v0h4c0.012 0 0.025 0.001 0.039 0.001 0.737 0 1.334-0.597 1.334-1.334s-0.597-1.334-1.334-1.334c-0.014 0-0.027 0-0.041 0.001l0.002-0h-4c-2.209 0-4 1.791-4 4v0 10.666c0 2.209 1.791 4 4 4v0h21.334c2.209 0 4-1.791 4-4v0-10.666c0-2.209-1.791-4-4-4v0zM7.429 20c0 0.736 0.597 1.333 1.333 1.333s1.333-0.597 1.333-1.333v0c0-0.736-0.597-1.333-1.333-1.333s-1.333 0.597-1.333 1.333v0z"></path>
</symbol>
<symbol id="icon-icon-menu-admin-management" viewBox="0 0 32 32">
<path fill="#7e8299" style="fill: var(--color18, #7e8299)" d="M16 30.667c-7.409-1.647-13.333-8.637-13.333-16v-8l13.333-5.333 13.333 5.333v8c0 7.365-5.924 14.353-13.333 16zM5.333 8v6.667c0.164 6.427 4.601 11.773 10.569 13.312l0.098 0.021c6.065-1.561 10.503-6.907 10.666-13.315l0-0.018v-6.667l-10.667-4-10.667 4z"></path>
<path fill="#383a3c" style="fill: var(--color3, #383a3c)" d="M16 14.667c1.841 0 3.333-1.492 3.333-3.333s-1.492-3.333-3.333-3.333v0c-1.841 0-3.333 1.492-3.333 3.333s1.492 3.333 3.333 3.333v0zM9.333 20c1.322 2.376 3.805 3.965 6.662 4l0.005 0c2.862-0.035 5.344-1.624 6.647-3.961l0.020-0.039c-0.033-2.528-4.456-4-6.667-4-2.223 0-6.633 1.472-6.667 4z"></path>
</symbol>
<symbol id="icon-icon-menu-api-setting" viewBox="0 0 32 32">
<path fill="#383a3c" style="fill: var(--color3, #383a3c)" d="M9.999 11.619h-2.079l-2.801 7.68h2.057l0.571-1.569h2.424l0.571 1.569h2.057l-2.801-7.68zM8.215 16.448l0.745-2.040 0.745 2.042-1.49-0.001zM19.512 11.617h-4.48v7.68h1.92v-2.56h2.56c0.011 0 0.023 0 0.036 0 1.041 0 1.884-0.844 1.884-1.884 0-0.013-0-0.025-0-0.038l0 0.002v-1.28c0-0.011 0-0.023 0-0.036 0-1.041-0.844-1.884-1.884-1.884-0.013 0-0.025 0-0.038 0l0.002-0zM19.512 14.817h-2.56v-1.28h2.56v1.28zM23.68 11.619h1.92v7.68h-1.92v-7.68z"></path>
<path fill="#7e8299" style="fill: var(--color18, #7e8299)" d="M28.8 7.779v15.36h-25.6v-15.36h25.6zM28.8 5.219h-25.6c-1.414 0-2.56 1.146-2.56 2.56v0 15.36c0 1.414 1.146 2.56 2.56 2.56v0h25.6c1.414 0 2.56-1.146 2.56-2.56v0-15.36c0-1.414-1.146-2.56-2.56-2.56v0z"></path>
</symbol>
<symbol id="icon-icon-menu-balance-report" viewBox="0 0 32 32">
<path fill="#7e8299" style="fill: var(--color18, #7e8299)" d="M5.766 6.502v17.92h20.48v-17.92h-20.48zM4.486 3.942h23.040c0.707 0 1.28 0.573 1.28 1.28v0 20.48c0 0.707-0.573 1.28-1.28 1.28v0h-23.040c-0.707 0-1.28-0.573-1.28-1.28v0-20.48c0-0.707 0.573-1.28 1.28-1.28v0z"></path>
<path fill="#383a3c" style="fill: var(--color3, #383a3c)" d="M17.286 10.342l2.295 2.295-3.136 3.136-2.715-2.716-5.431 5.431 1.81 1.81 3.621-3.62 2.714 2.715 4.947-4.946 2.295 2.295v-6.4h-6.4z"></path>
</symbol>
<symbol id="icon-icon-menu-client-management" viewBox="0 0 32 32">
<path fill="#383a3c" style="fill: var(--color3, #383a3c)" d="M7 10.5c0-1.933 1.567-3.5 3.5-3.5s3.5 1.567 3.5 3.5v0c0 1.933-1.567 3.5-3.5 3.5s-3.5-1.567-3.5-3.5v0zM10.5 5c-3.038 0-5.5 2.462-5.5 5.5s2.462 5.5 5.5 5.5v0c3.038 0 5.5-2.462 5.5-5.5s-2.462-5.5-5.5-5.5v0zM2 21c0-1.657 1.343-3 3-3v0h11c1.657 0 3 1.343 3 3v0 0.227c-0.003 0.093-0.009 0.187-0.020 0.279-0.020 0.173-0.057 0.408-0.131 0.685-0.207 0.773-0.551 1.448-1.008 2.029l0.009-0.012c-1.169 1.503-3.371 2.792-7.351 2.792s-6.18-1.291-7.351-2.792c-0.448-0.57-0.792-1.244-0.991-1.978l-0.009-0.039c-0.071-0.261-0.123-0.567-0.146-0.881l-0.001-0.016-0.001-0.067v-0.024l-0.001-0.008v-0.195zM4 21.177v0.013c0.016 0.185 0.046 0.354 0.090 0.518l-0.005-0.020c0.089 0.348 0.272 0.819 0.64 1.291 0.707 0.904 2.255 2.021 5.775 2.021s5.071-1.117 5.773-2.020c0.286-0.365 0.507-0.797 0.634-1.267l0.006-0.025c0.043-0.163 0.072-0.329 0.087-0.497v-0.191c0-0.552-0.448-1-1-1v0h-11c-0.552 0-1 0.448-1 1v0 0.177z"></path>
<path fill="#7e8299" style="fill: var(--color18, #7e8299)" d="M21 12c0-1.105 0.895-2 2-2s2 0.895 2 2v0c0 1.105-0.895 2-2 2s-2-0.895-2-2v0zM23 8c-2.209 0-4 1.791-4 4s1.791 4 4 4v0c2.209 0 4-1.791 4-4s-1.791-4-4-4v0zM19.477 24.492c0.929 0.316 2.087 0.508 3.523 0.508 3.2 0 5.020-0.953 6.013-2.125 0.483-0.569 0.729-1.147 0.855-1.592 0.067-0.237 0.111-0.481 0.129-0.728v-0.036l0.001-0.023v-0.037c0-0 0-0.001 0-0.001 0-1.357-1.099-2.457-2.456-2.457h-8.189c0.5 0.56 0.863 1.243 1.035 2h7.155c0.249 0 0.451 0.2 0.457 0.447l-0.004 0.043c-0.014 0.097-0.032 0.182-0.055 0.265l0.003-0.014c-0.096 0.326-0.253 0.607-0.46 0.846l0.002-0.003c-0.507 0.6-1.688 1.417-4.487 1.417-1.165 0-2.049-0.143-2.72-0.349-0.194 0.7-0.469 1.312-0.82 1.87l0.017-0.029z"></path>
</symbol>
<symbol id="icon-icon-menu-documents" viewBox="0 0 32 32">
<path fill="#7e8299" style="fill: var(--color18, #7e8299)" d="M18.115 2.667c0.736 0 1.403 0.299 1.885 0.781l5.885 5.885c0.483 0.482 0.781 1.149 0.781 1.885v15.448c0 1.473-1.194 2.667-2.667 2.667v0h-16c-1.473 0-2.667-1.194-2.667-2.667v0-21.333c0-1.473 1.194-2.667 2.667-2.667v0h10.115zM16 5.333h-8v21.333h16v-13.333h-6c-1.105 0-2-0.895-2-2v0-6zM18.667 5.885v4.781h4.781l-4.781-4.781z"></path>
<path fill="#383a3c" style="fill: var(--color3, #383a3c)" d="M15.333 17.173c0-0 0-0.001 0-0.001 0-0.736-0.597-1.333-1.333-1.333-0.369 0-0.703 0.15-0.944 0.392l-2.827 2.828c-0.241 0.241-0.39 0.575-0.39 0.943s0.149 0.701 0.39 0.943l2.827 2.829c0.241 0.242 0.575 0.391 0.943 0.391 0.737 0 1.334-0.597 1.334-1.334 0-0.368-0.149-0.701-0.39-0.943l-1.885-1.887 1.885-1.885c0.241-0.241 0.391-0.575 0.391-0.943v-0zM21.771 19.059l-2.828-2.829c-0.24-0.232-0.566-0.374-0.926-0.374-0.736 0-1.333 0.597-1.333 1.333 0 0.36 0.143 0.687 0.375 0.927l1.885 1.885-1.885 1.888c-0.241 0.241-0.39 0.575-0.39 0.943 0 0.737 0.597 1.334 1.334 1.334 0.368 0 0.702-0.149 0.943-0.391l2.827-2.829c0.241-0.241 0.39-0.575 0.39-0.943s-0.149-0.701-0.39-0.943v0z"></path>
</symbol>
<symbol id="icon-icon-menu-financial" viewBox="0 0 32 32">
<path fill="#383a3c" style="fill: var(--color3, #383a3c)" d="M17.34 8v2.667h3.333v2.667h-7.333c-0 0-0.001 0-0.001 0-0.368 0-0.667 0.298-0.667 0.667 0 0.326 0.234 0.598 0.544 0.655l0.004 0.001 0.12 0.011h5.333c1.841 0 3.333 1.492 3.333 3.333s-1.492 3.333-3.333 3.333v0h-1.333v2.667h-2.667v-2.667h-3.333v-2.667h7.333c0 0 0.001 0 0.001 0 0.368 0 0.667-0.298 0.667-0.667 0-0.326-0.234-0.598-0.544-0.655l-0.004-0.001-0.12-0.011h-5.333c-1.841 0-3.333-1.492-3.333-3.333s1.492-3.333 3.333-3.333v0h1.333v-2.667h2.667z"></path>
<path fill="#7e8299" style="fill: var(--color18, #7e8299)" d="M16.007 2.667c7.364 0 13.333 5.969 13.333 13.333s-5.969 13.333-13.333 13.333c-0.006 0-0.013 0-0.019 0-3.239 0-6.207-1.16-8.512-3.086l0.021 0.017-0.325-0.279 1.2-2.536c1.939 1.986 4.643 3.218 7.635 3.218 5.891 0 10.667-4.776 10.667-10.667s-4.776-10.667-10.667-10.667c-5.774 0-10.476 4.587-10.661 10.316l-0 0.017-0.004 0.333h3.333l-3.608 7.621c-1.497-2.119-2.392-4.755-2.392-7.601 0-0.007 0-0.014 0-0.022v0.001c0-7.364 5.969-13.333 13.333-13.333z"></path>
</symbol>
<symbol id="icon-icon-menu-transfer-add" viewBox="0 0 32 32">
<path fill="#fff" style="fill: var(--color1, #fff)" d="M21.333 9.333h-4v4h-2.667v-4h-4v-2.667h4v-4h2.667v4h4v2.667z"></path>
<path fill="#fff" style="fill: var(--color1, #fff)" d="M16 16c-0.022-0-0.047-0.001-0.073-0.001-2.209 0-4 1.791-4 4s1.791 4 4 4c0.026 0 0.051-0 0.077-0.001l-0.004 0c2.178-0.041 3.927-1.816 3.927-3.999s-1.749-3.958-3.923-3.999l-0.004-0zM16 21.333c-0.736 0-1.333-0.597-1.333-1.333s0.597-1.333 1.333-1.333v0c0.736 0 1.333 0.597 1.333 1.333s-0.597 1.333-1.333 1.333v0zM25.333 20c0-0.736-0.597-1.333-1.333-1.333s-1.333 0.597-1.333 1.333v0c0 0.736 0.597 1.333 1.333 1.333s1.333-0.597 1.333-1.333v0zM26.667 10.667h-4c-0.736 0-1.333 0.597-1.333 1.333s0.597 1.333 1.333 1.333v0h4c0.736 0 1.333 0.597 1.333 1.333v0 10.667c0 0.736-0.597 1.333-1.333 1.333v0h-21.333c-0.736 0-1.333-0.597-1.333-1.333v0-10.667c0-0.736 0.597-1.333 1.333-1.333v0h4c0.736 0 1.333-0.597 1.333-1.333s-0.597-1.333-1.333-1.333v0h-4c-2.209 0-4 1.791-4 4v0 10.667c0 2.209 1.791 4 4 4v0h21.333c2.209 0 4-1.791 4-4v0-10.667c0-2.209-1.791-4-4-4v0zM6.667 20c0 0.736 0.597 1.333 1.333 1.333s1.333-0.597 1.333-1.333v0c0-0.736-0.597-1.333-1.333-1.333s-1.333 0.597-1.333 1.333v0z"></path>
</symbol>
<symbol id="icon-icon-menu-transfer-report" viewBox="0 0 32 32">
<path fill="#fff" style="fill: var(--color1, #fff)" d="M15.053 3.053c0.123-0.118 0.269-0.213 0.431-0.277l0.009-0.003c0.149-0.068 0.323-0.107 0.507-0.107s0.358 0.039 0.515 0.11l-0.008-0.003c0.171 0.067 0.317 0.162 0.44 0.28l-0-0 3.053 3c0.249 0.249 0.403 0.593 0.403 0.973 0 0.76-0.616 1.377-1.377 1.377-0.38 0-0.724-0.154-0.973-0.403v0l-0.72-0.787v4.787c0 0.736-0.597 1.333-1.333 1.333s-1.333-0.597-1.333-1.333v0-4.787l-0.72 0.787c-0.249 0.249-0.593 0.403-0.973 0.403-0.76 0-1.377-0.616-1.377-1.377 0-0.38 0.154-0.724 0.403-0.973v0l3.053-3z"></path>
<path fill="#fff" style="fill: var(--color1, #fff)" d="M16 16c-0.022-0-0.047-0.001-0.073-0.001-2.209 0-4 1.791-4 4s1.791 4 4 4c0.026 0 0.051-0 0.077-0.001l-0.004 0c2.178-0.041 3.927-1.816 3.927-3.999s-1.749-3.958-3.923-3.999l-0.004-0zM16 21.333c-0.736 0-1.333-0.597-1.333-1.333s0.597-1.333 1.333-1.333v0c0.736 0 1.333 0.597 1.333 1.333s-0.597 1.333-1.333 1.333v0zM25.333 20c0-0.736-0.597-1.333-1.333-1.333s-1.333 0.597-1.333 1.333v0c0 0.736 0.597 1.333 1.333 1.333s1.333-0.597 1.333-1.333v0zM26.667 10.667h-4c-0.736 0-1.333 0.597-1.333 1.333s0.597 1.333 1.333 1.333v0h4c0.736 0 1.333 0.597 1.333 1.333v0 10.667c0 0.736-0.597 1.333-1.333 1.333v0h-21.333c-0.736 0-1.333-0.597-1.333-1.333v0-10.667c0-0.736 0.597-1.333 1.333-1.333v0h4c0.736 0 1.333-0.597 1.333-1.333s-0.597-1.333-1.333-1.333v0h-4c-2.209 0-4 1.791-4 4v0 10.667c0 2.209 1.791 4 4 4v0h21.333c2.209 0 4-1.791 4-4v0-10.667c0-2.209-1.791-4-4-4v0zM6.667 20c0 0.736 0.597 1.333 1.333 1.333s1.333-0.597 1.333-1.333v0c0-0.736-0.597-1.333-1.333-1.333s-1.333 0.597-1.333 1.333v0z"></path>
</symbol>
<symbol id="icon-icon-menu-vouchers" viewBox="0 0 32 32">
<path fill="#bc4ae7" style="fill: var(--color25, #bc4ae7); stroke: var(--color25, #bc4ae7)" stroke="#bc4ae7" stroke-linejoin="miter" stroke-linecap="butt" stroke-miterlimit="4" stroke-width="1.28" d="M5.76 7.569h-0.64v4.261l0.32 0.184c1.348 0.787 2.239 2.227 2.239 3.875s-0.891 3.087-2.217 3.863l-0.021 0.011-0.32 0.184v4.262h21.76v-4.262l-0.32-0.184c-1.348-0.787-2.239-2.227-2.239-3.875s0.891-3.087 2.217-3.863l0.021-0.011 0.32-0.184v-4.261h-21.12zM5.76 6.289h20.48c1.068 0 1.92 0.852 1.92 1.92v4.544c-1.473 0.307-2.563 1.594-2.563 3.136s1.091 2.829 2.542 3.132l0.021 0.004v4.544c0 1.068-0.852 1.92-1.92 1.92h-20.48c-1.060 0-1.92-0.86-1.92-1.92v0-4.544c1.466-0.294 2.56-1.581 2.56-3.136 0-0 0-0 0-0.001 0-1.541-1.089-2.827-2.539-3.132l-0.021-0.004v-4.544c0-1.060 0.86-1.92 1.92-1.92v0z"></path>
<path fill="#bc4ae7" style="fill: var(--color25, #bc4ae7)" d="M19.95 15.105l-1.509 1.469 0.358 2.077c0.009 0.049 0.014 0.105 0.014 0.163 0 0.314-0.154 0.592-0.392 0.762l-0.003 0.002c-0.153 0.114-0.346 0.182-0.555 0.182-0.163 0-0.315-0.041-0.449-0.114l0.005 0.002-1.862-0.979-1.866 0.98c-0.127 0.069-0.278 0.11-0.439 0.111h-0c-0.209-0-0.402-0.069-0.558-0.184l0.003 0.002c-0.239-0.173-0.392-0.451-0.392-0.765 0-0.058 0.005-0.114 0.015-0.169l-0.001 0.006 0.356-2.077-1.509-1.469c-0.179-0.172-0.29-0.413-0.29-0.68 0-0.477 0.354-0.871 0.814-0.934l0.005-0.001 2.081-0.303 0.934-1.891c0.158-0.315 0.478-0.527 0.847-0.527h0.003c0 0 0.001 0 0.001 0 0.37 0 0.69 0.213 0.844 0.523l0.002 0.005 0.934 1.889 2.084 0.305c0.36 0.052 0.651 0.302 0.761 0.635l0.002 0.007c0.031 0.089 0.049 0.191 0.049 0.298 0 0.265-0.11 0.504-0.288 0.675l-0 0z"></path>
</symbol>
<symbol id="icon-icon-money-bag" viewBox="0 0 32 32">
<path fill="none" stroke="#4d3dee" style="stroke: var(--color12, #4d3dee)" stroke-linejoin="miter" stroke-linecap="butt" stroke-miterlimit="4" stroke-width="1.92" d="M3.2 18.449c0-4.826 0-7.241 1.5-8.74 1.499-1.5 3.913-1.5 8.74-1.5h5.12c4.827 0 7.241 0 8.74 1.5 1.5 1.499 1.5 3.913 1.5 8.74s0 7.241-1.5 8.74c-1.499 1.5-3.913 1.5-8.74 1.5h-5.12c-4.827 0-7.241 0-8.74-1.5-1.5-1.498-1.5-3.913-1.5-8.74z"></path>
<path fill="none" opacity="0.5" stroke="#4d3dee" style="stroke: var(--color12, #4d3dee)" stroke-linejoin="miter" stroke-linecap="butt" stroke-miterlimit="4" stroke-width="1.92" d="M21.12 8.209c0-2.414 0-3.62-0.75-4.37s-1.956-0.75-4.37-0.75c-2.414 0-3.62 0-4.37 0.75s-0.75 1.956-0.75 4.37"></path>
<path fill="none" opacity="0.5" stroke="#4d3dee" style="stroke: var(--color12, #4d3dee)" stroke-linejoin="miter" stroke-linecap="round" stroke-miterlimit="4" stroke-width="1.92" d="M16 22.715c1.414 0 2.56-0.955 2.56-2.132s-1.146-2.134-2.56-2.134-2.56-0.955-2.56-2.134 1.146-2.132 2.56-2.132M16 22.715c-1.414 0-2.56-0.955-2.56-2.132M16 22.715v0.854M16 14.182v-0.854M16 14.182c1.414 0 2.56 0.955 2.56 2.132"></path>
</symbol>
<symbol id="icon-icon-profile-mobile" viewBox="0 0 32 32">
<path fill="#5e6278" style="fill: var(--color7, #5e6278)" opacity="0.2" d="M24 5.001v21.998c0 0.001 0 0.001 0 0.002 0 1.105-0.895 2-2 2h-12c-1.105 0-2-0.895-2-2 0-0.001 0-0.002 0-0.002v0-21.998c0-0.001 0-0.001 0-0.002 0-1.105 0.895-2 2-2h12c1.105 0 2 0.895 2 2v0z"></path>
<path fill="#5e6278" style="fill: var(--color7, #5e6278)" d="M22 2h-12c-1.658 0-3.001 1.344-3.001 3.001v0 21.998c0 1.657 1.344 3.001 3.001 3.001v0h12c1.657 0 3.001-1.344 3.001-3.001v0-21.998c0-1.657-1.344-3.001-3.001-3.001-0.001 0-0.002 0-0.002 0h0zM23.001 27.001c-0.001 0.552-0.449 0.999-1.001 0.999 0 0 0 0 0 0h-12c-0.553 0-1.001-0.448-1.001-1.001v0-21.998c0-0.001 0-0.001 0-0.002 0-0.552 0.447-0.999 0.999-0.999 0.001 0 0.002 0 0.002 0h12c0.001 0 0.001 0 0.002 0 0.552 0 0.999 0.447 0.999 0.999 0 0.001 0 0.002 0 0.002v-0 21.998zM17.497 7.497c0 0.828-0.671 1.499-1.499 1.499s-1.499-0.671-1.499-1.499v0c0-0.828 0.671-1.499 1.499-1.499s1.499 0.671 1.499 1.499v0z"></path>
</symbol>
<symbol id="icon-icon-success" viewBox="0 0 32 32">
<path fill="#56ca00" style="fill: var(--color26, #56ca00)" d="M16 2c7.732 0 14 6.268 14 14s-6.268 14-14 14v0c-7.732 0-14-6.268-14-14s6.268-14 14-14v0zM14.256 18.762l-3.11-3.112c-0.215-0.205-0.507-0.332-0.828-0.332-0.663 0-1.201 0.538-1.201 1.201 0 0.321 0.126 0.613 0.332 0.829l-0-0 3.96 3.96c0.217 0.219 0.517 0.354 0.849 0.354s0.632-0.135 0.849-0.354l8.2-8.202c0.223-0.218 0.361-0.522 0.361-0.858 0-0.663-0.537-1.2-1.2-1.2-0.336 0-0.639 0.138-0.857 0.36l-7.354 7.354z"></path>
</symbol>
<symbol id="icon-IosShare" viewBox="0 0 32 32">
<path fill="#b4b2b7" style="fill: var(--color9, #b4b2b7)" d="M21.334 6.667l-1.894 1.893-2.12-2.12v14.893h-2.64v-14.893l-2.12 2.12-1.893-1.893 5.333-5.334 5.334 5.334zM26.667 13.333v14.667c0 1.467-1.2 2.667-2.667 2.667h-16c-1.48 0-2.667-1.2-2.667-2.667v-14.667c0-0.003-0-0.006-0-0.010 0-1.467 1.189-2.656 2.656-2.656 0.004 0 0.008 0 0.012 0h3.999v2.666h-4v14.667h16v-14.667h-4v-2.666h4c1.467 0 2.667 1.186 2.667 2.666z"></path>
</symbol>
<symbol id="icon-Language" viewBox="0 0 32 32">
<path fill="#4d3dee" style="fill: var(--color12, #4d3dee)" d="M15.988 3.618c-7.010 0-12.686 5.69-12.686 12.699s5.676 12.698 12.686 12.698c7.022 0 12.71-5.688 12.71-12.698s-5.688-12.699-12.71-12.699zM24.788 11.237h-3.747c-0.441-1.718-1.041-3.222-1.804-4.624l0.052 0.104c2.353 0.826 4.263 2.418 5.473 4.472l0.026 0.048zM16 6.208c1.054 1.524 1.879 3.214 2.426 5.029h-4.852c0.547-1.815 1.371-3.505 2.426-5.029zM6.171 18.856c-0.204-0.76-0.324-1.634-0.331-2.535l-0-0.004c0-0.876 0.128-1.728 0.331-2.54h4.293c-0.102 0.838-0.178 1.676-0.178 2.54 0 0.862 0.076 1.701 0.178 2.539h-4.293zM7.212 21.396h3.747c0.405 1.588 0.99 3.112 1.752 4.521-2.356-0.822-4.267-2.416-5.474-4.473l-0.026-0.048zM10.959 11.237h-3.747c1.233-2.105 3.144-3.698 5.428-4.498l0.071-0.022c-0.712 1.297-1.312 2.801-1.722 4.381l-0.030 0.138zM16 26.424c-1.013-1.443-1.839-3.112-2.392-4.902l-0.034-0.127h4.852c-0.547 1.816-1.371 3.505-2.426 5.029zM18.971 18.856h-5.943c-0.119-0.755-0.192-1.634-0.203-2.527l-0-0.011c0-0.864 0.088-1.714 0.203-2.54h5.943c0.114 0.826 0.203 1.676 0.203 2.54 0 0.862-0.088 1.701-0.203 2.539zM19.288 25.917c0.762-1.41 1.347-2.933 1.752-4.521h3.747c-1.236 2.102-3.146 3.695-5.428 4.499l-0.071 0.022zM21.536 18.856c0.102-0.838 0.178-1.676 0.178-2.539 0-0.864-0.076-1.702-0.178-2.54h4.293c0.203 0.812 0.331 1.664 0.331 2.54s-0.128 1.726-0.331 2.539h-4.293z"></path>
</symbol>
<symbol id="icon-ListAlt" viewBox="0 0 32 32">
<path fill="#828282" style="fill: var(--color6, #828282)" d="M25.333 6.667v18.667h-18.667v-18.667h18.667zM26.8 4h-21.6c-0.667 0-1.2 0.533-1.2 1.2v21.6c0 0.533 0.533 1.2 1.2 1.2h21.6c0.533 0 1.2-0.667 1.2-1.2v-21.6c0-0.667-0.667-1.2-1.2-1.2zM14.667 9.333h8v2.667h-8v-2.667zM14.667 14.667h8v2.667h-8v-2.667zM14.667 20h8v2.667h-8v-2.667zM9.333 9.333h2.667v2.667h-2.667v-2.667zM9.333 14.667h2.667v2.667h-2.667v-2.667zM9.333 20h2.667v2.667h-2.667v-2.667z"></path>
</symbol>
<symbol id="icon-ListAlt-1" viewBox="0 0 32 32">
<path fill="#fff" style="fill: var(--color1, #fff)" d="M24.96 6.968v17.92h-17.92v-17.92h17.92zM26.368 4.408h-20.736c-0.64 0-1.152 0.512-1.152 1.152v20.736c0 0.512 0.512 1.152 1.152 1.152h20.736c0.512 0 1.152-0.64 1.152-1.152v-20.736c0-0.64-0.64-1.152-1.152-1.152zM14.72 9.528h7.68v2.56h-7.68v-2.56zM14.72 14.648h7.68v2.56h-7.68v-2.56zM14.72 19.768h7.68v2.56h-7.68v-2.56zM9.6 9.528h2.56v2.56h-2.56v-2.56zM9.6 14.648h2.56v2.56h-2.56v-2.56zM9.6 19.768h2.56v2.56h-2.56v-2.56z"></path>
</symbol>
<symbol id="icon-LocalAtm" viewBox="0 0 32 32">
<path fill="#b4b2b7" style="fill: var(--color9, #b4b2b7)" d="M14.667 22.667h2.667v-1.333h1.333c0.733 0 1.333-0.6 1.333-1.333v-4c0-0.733-0.6-1.333-1.333-1.333h-4v-1.333h5.333v-2.667h-2.667v-1.333h-2.667v1.333h-1.333c-0.733 0-1.333 0.6-1.333 1.333v4c0 0.733 0.6 1.333 1.333 1.333h4v1.333h-5.333v2.667h2.667v1.333zM26.667 5.333h-21.333c-1.48 0-2.653 1.187-2.653 2.667l-0.013 16c0 1.48 1.187 2.667 2.667 2.667h21.333c1.48 0 2.667-1.187 2.667-2.667v-16c0-1.48-1.187-2.667-2.667-2.667zM26.667 24h-21.333v-16h21.333v16z"></path>
</symbol>
<symbol id="icon-Lock" viewBox="0 0 32 32">
<path fill="#b4b2b7" style="fill: var(--color9, #b4b2b7)" d="M16 22.903c1.408 0 2.56-1.152 2.56-2.56s-1.152-2.56-2.56-2.56-2.56 1.152-2.56 2.56 1.152 2.56 2.56 2.56zM23.68 11.383h-1.28v-2.56c0-3.533-2.867-6.4-6.4-6.4s-6.4 2.867-6.4 6.4h2.432c0-2.189 1.779-3.968 3.968-3.968s3.968 1.779 3.968 3.968v2.56h-11.648c-1.408 0-2.56 1.152-2.56 2.56v12.8c0 1.408 1.152 2.56 2.56 2.56h15.36c1.408 0 2.56-1.152 2.56-2.56v-12.8c0-1.408-1.152-2.56-2.56-2.56zM23.68 26.743h-15.36v-12.8h15.36v12.8z"></path>
</symbol>
<symbol id="icon-Login" viewBox="0 0 32 32">
<path fill="#56ca00" style="fill: var(--color26, #56ca00)" d="M14.666 9.334l-1.866 1.866 3.466 3.466h-13.6v2.668h13.6l-3.466 3.466 1.866 1.866 6.67-6.666-6.668-6.666zM26.666 25.334h-10.666v2.666h10.668c1.466 0 2.666-1.2 2.666-2.666v-18.668c0-1.466-1.2-2.666-2.666-2.666h-10.668v2.666h10.668v18.668z"></path>
</symbol>
<symbol id="icon-ManageAccounts" viewBox="0 0 32 32">
<path fill="#828282" style="fill: var(--color6, #828282)" d="M13.333 16c2.946 0 5.333-2.388 5.333-5.333s-2.388-5.333-5.333-5.333v0c-2.946 0-5.333 2.388-5.333 5.333s2.388 5.333 5.333 5.333v0zM14.227 17.36c-0.293-0.013-0.587-0.027-0.893-0.027-3.227 0-6.24 0.893-8.813 2.427-1.173 0.693-1.853 2-1.853 3.373v3.533h12.347c-1.052-1.485-1.682-3.333-1.682-5.329 0-1.445 0.33-2.813 0.919-4.033l-0.024 0.055zM27.667 21.333c0-0.293-0.040-0.56-0.080-0.84l1.52-1.347-1.333-2.307-1.933 0.653c-0.427-0.36-0.907-0.64-1.44-0.84l-0.4-1.987h-2.667l-0.4 1.987c-0.533 0.2-1.013 0.48-1.44 0.84l-1.933-0.653-1.333 2.307 1.52 1.347c-0.040 0.28-0.080 0.547-0.080 0.84s0.040 0.56 0.080 0.84l-1.52 1.347 1.333 2.307 1.933-0.653c0.427 0.36 0.907 0.64 1.44 0.84l0.4 1.987h2.667l0.4-1.987c0.533-0.2 1.013-0.48 1.44-0.84l1.933 0.653 1.333-2.307-1.52-1.347c0.040-0.28 0.080-0.547 0.080-0.84zM22.667 24c-1.467 0-2.667-1.2-2.667-2.667s1.2-2.667 2.667-2.667 2.667 1.2 2.667 2.667-1.2 2.667-2.667 2.667z"></path>
</symbol>
<symbol id="icon-Masked-Icon" viewBox="0 0 32 32">
<path fill="#b4b2b7" style="fill: var(--color9, #b4b2b7)" d="M23.534 8.467c-1.923-1.936-4.586-3.134-7.53-3.134-0.002 0-0.003 0-0.005 0h0c0 0 0 0 0 0-5.883 0-10.653 4.769-10.653 10.653 0 0.005 0 0.010 0 0.015v-0.001c0 0.004 0 0.009 0 0.014 0 5.883 4.769 10.653 10.653 10.653v0c4.973 0 9.12-3.4 10.307-8h-2.773c-1.127 3.133-4.073 5.333-7.533 5.333-0 0-0.001 0-0.001 0h0c-4.413 0-8-3.587-8-8s3.587-8 8-8c2.213 0 4.187 0.92 5.627 2.373l-4.293 4.294h9.333v-9.334l-3.134 3.134z"></path>
</symbol>
<symbol id="icon-Mobile" viewBox="0 0 32 32">
<path fill="#b4b2b7" style="fill: var(--color9, #b4b2b7)" d="M21.12 2.423h-10.24c-2.125 0-3.84 1.715-3.84 3.84v20.48c0 2.125 1.715 3.84 3.84 3.84h10.24c2.125 0 3.84-1.715 3.84-3.84v-20.48c0-2.125-1.715-3.84-3.84-3.84zM18.56 28.023h-5.12v-1.28h5.12v1.28zM22.72 24.183h-13.44v-17.92h13.44v17.92z"></path>
</symbol>
<symbol id="icon-Post" viewBox="0 0 32 32">
<path fill="#b4b2b7" style="fill: var(--color9, #b4b2b7)" d="M26.24 5.5h-20.48c-1.408 0-2.547 1.152-2.547 2.56l-0.013 15.36c0 1.408 1.152 2.56 2.56 2.56h20.48c1.408 0 2.56-1.152 2.56-2.56v-15.36c0-1.408-1.152-2.56-2.56-2.56zM26.24 23.42h-20.48v-12.8l10.24 6.4 10.24-6.4v12.8zM16 14.46l-10.24-6.4h20.48l-10.24 6.4z"></path>
</symbol>
<symbol id="icon-Refresh" viewBox="0 0 32 32">
<path fill="#b4b2b7" style="fill: var(--color9, #b4b2b7)" d="M23.534 8.466c-1.923-1.935-4.585-3.133-7.528-3.133-0.002 0-0.004 0-0.007 0h0c0 0 0 0 0 0-5.883 0-10.653 4.769-10.653 10.653 0 0.005 0 0.010 0 0.015v-0.001c0 0.004 0 0.008 0 0.013 0 5.883 4.769 10.653 10.653 10.653 0 0 0 0 0 0v0c4.973 0 9.12-3.4 10.307-8h-2.773c-1.127 3.134-4.073 5.334-7.534 5.334-0 0-0 0-0.001 0h0c-4.413 0-8-3.587-8-8 0-4.414 3.587-8 8-8 2.213 0 4.187 0.92 5.627 2.373l-4.293 4.293h9.333v-9.333l-3.134 3.133z"></path>
</symbol>
<symbol id="icon-RemoveRedEye" viewBox="0 0 32 32">
<path fill="#fff" style="fill: var(--color1, #fff)" d="M16 8c0.013-0 0.028-0 0.043-0 5.123 0 9.555 2.957 11.683 7.257l0.034 0.076c-2.162 4.376-6.594 7.333-11.717 7.333-0.015 0-0.030-0-0.046-0h0.002c-0.013 0-0.028 0-0.043 0-5.123 0-9.555-2.957-11.683-7.257l-0.034-0.076c2.162-4.376 6.594-7.333 11.717-7.333 0.015 0 0.030 0 0.046 0h-0.002zM16 5.333c-6.667 0-12.36 4.147-14.667 10 2.307 5.853 8 10 14.667 10s12.36-4.147 14.667-10c-2.307-5.853-8-10-14.667-10zM16 12c1.841 0 3.333 1.492 3.333 3.333s-1.492 3.333-3.333 3.333v0c-1.841 0-3.333-1.492-3.333-3.333s1.492-3.333 3.333-3.333v0zM16 9.333c-3.307 0-6 2.693-6 6s2.693 6 6 6 6-2.693 6-6-2.693-6-6-6z"></path>
</symbol>
<symbol id="icon-Search_Icon" viewBox="0 0 32 32">
<path fill="#fff" style="fill: var(--color1, #fff)" d="M20.667 18.667h-1.054l-0.373-0.36c1.3-1.502 2.093-3.475 2.093-5.634 0-0.002 0-0.005 0-0.007v0c0-0 0-0.001 0-0.002 0-4.787-3.88-8.667-8.667-8.667s-8.667 3.88-8.667 8.667c0 4.787 3.88 8.667 8.667 8.667 0.001 0 0.001 0 0.002 0h-0c0.002 0 0.004 0 0.006 0 2.158 0 4.131-0.792 5.644-2.102l-0.011 0.009 0.36 0.373v1.054l6.666 6.653 1.987-1.987-6.653-6.666zM12.667 18.667c-0.002 0-0.005 0-0.008 0-3.309 0-5.992-2.683-5.992-5.992 0-0.003 0-0.006 0-0.008v0c0-0.002 0-0.005 0-0.008 0-3.309 2.683-5.992 5.992-5.992 0.003 0 0.006 0 0.008 0h-0c0.002 0 0.005 0 0.008 0 3.309 0 5.992 2.683 5.992 5.992 0 0.003 0 0.006 0 0.008v-0c0 0.002 0 0.005 0 0.008 0 3.309-2.683 5.992-5.992 5.992-0.003 0-0.006 0-0.008 0h0z"></path>
</symbol>
<symbol id="icon-Security" viewBox="0 0 32 32">
<path fill="#fff" style="fill: var(--color1, #fff)" d="M16 1.334l-12 5.334v8c0 7.4 5.12 14.32 12 16 6.88-1.68 12-8.6 12-16v-8l-12-5.334zM16 15.988h9.334c-0.708 5.492-4.374 10.386-9.334 11.92v-11.908h-9.334v-7.6l9.334-4.146v11.734z"></path>
</symbol>
<symbol id="icon-Settings" viewBox="0 0 32 32">
<path fill="#828282" style="fill: var(--color6, #828282)" d="M25.51 16.922c0.051-0.41 0.090-0.819 0.090-1.254s-0.038-0.845-0.090-1.254l2.701-2.112c0.243-0.192 0.307-0.538 0.154-0.819l-2.56-4.429c-0.112-0.194-0.319-0.322-0.556-0.322-0.081 0-0.158 0.015-0.23 0.042l0.004-0.001-3.187 1.28c-0.666-0.512-1.382-0.934-2.163-1.254l-0.486-3.392c-0.044-0.306-0.304-0.538-0.619-0.538-0.003 0-0.006 0-0.009 0h-5.12c-0.32 0-0.589 0.23-0.627 0.538l-0.486 3.392c-0.781 0.32-1.498 0.755-2.163 1.254l-3.187-1.28c-0.069-0.024-0.148-0.038-0.23-0.038h-0c-0.218 0-0.435 0.115-0.55 0.32l-2.56 4.429c-0.166 0.282-0.090 0.627 0.154 0.819l2.701 2.112c-0.051 0.41-0.090 0.832-0.090 1.254s0.038 0.845 0.090 1.254l-2.701 2.112c-0.243 0.192-0.307 0.538-0.154 0.819l2.56 4.429c0.112 0.194 0.319 0.323 0.556 0.323 0.081 0 0.158-0.015 0.229-0.042l-0.004 0.001 3.187-1.28c0.666 0.512 1.382 0.934 2.163 1.254l0.486 3.392c0.038 0.307 0.307 0.538 0.627 0.538h5.12c0.32 0 0.589-0.23 0.627-0.538l0.486-3.392c0.781-0.32 1.498-0.755 2.163-1.254l3.187 1.28c0.077 0.026 0.154 0.038 0.23 0.038 0.218 0 0.435-0.115 0.55-0.32l2.56-4.429c0.154-0.282 0.090-0.627-0.154-0.819l-2.701-2.112zM22.976 14.733c0.051 0.397 0.064 0.666 0.064 0.934s-0.026 0.55-0.064 0.934l-0.179 1.446 1.139 0.896 1.382 1.075-0.896 1.549-1.626-0.653-1.331-0.538-1.152 0.87c-0.55 0.41-1.075 0.717-1.6 0.934l-1.357 0.55-0.205 1.446-0.256 1.728h-1.792l-0.243-1.728-0.205-1.446-1.357-0.55c-0.55-0.23-1.062-0.525-1.574-0.909l-1.165-0.896-1.357 0.55-1.626 0.653-0.896-1.549 1.382-1.075 1.139-0.896-0.179-1.446c-0.038-0.397-0.064-0.691-0.064-0.947s0.026-0.55 0.064-0.934l0.179-1.446-1.139-0.896-1.382-1.075 0.896-1.549 1.626 0.653 1.331 0.538 1.152-0.87c0.55-0.41 1.075-0.717 1.6-0.934l1.357-0.55 0.205-1.446 0.256-1.728h1.779l0.243 1.728 0.205 1.446 1.357 0.55c0.55 0.23 1.062 0.525 1.574 0.909l1.165 0.896 1.357-0.55 1.626-0.653 0.896 1.549-1.37 1.088-1.139 0.896 0.179 1.446zM16 10.547c-2.829 0-5.12 2.291-5.12 5.12s2.291 5.12 5.12 5.12 5.12-2.291 5.12-5.12-2.291-5.12-5.12-5.12zM16 18.227c-1.408 0-2.56-1.152-2.56-2.56s1.152-2.56 2.56-2.56 2.56 1.152 2.56 2.56-1.152 2.56-2.56 2.56z"></path>
</symbol>
<symbol id="icon-SupervisorAccount" viewBox="0 0 32 32">
<path fill="#828282" style="fill: var(--color6, #828282)" d="M22 16c1.84 0 3.32-1.493 3.32-3.333s-1.48-3.333-3.32-3.333c-1.841 0-3.333 1.492-3.333 3.333s1.492 3.333 3.333 3.333v0zM12 14.667c2.213 0 3.987-1.787 3.987-4s-1.773-4-3.987-4c-2.213 0-4 1.787-4 4s1.787 4 4 4zM22 18.667c-2.44 0-7.333 1.227-7.333 3.667v3h14.667v-3c0-2.44-4.893-3.667-7.333-3.667zM12 17.333c-3.107 0-9.333 1.56-9.333 4.667v3.333h9.333v-3c0-1.133 0.44-3.12 3.16-4.627-1.16-0.24-2.28-0.373-3.16-0.373z"></path>
</symbol>
<symbol id="icon-Uplode_Icon" viewBox="0 0 32 32">
<path fill="#b4b2b7" style="fill: var(--color9, #b4b2b7)" d="M21.334 6.667l-1.894 1.893-2.12-2.12v14.893h-2.64v-14.893l-2.12 2.12-1.893-1.893 5.333-5.334 5.334 5.334zM26.667 13.333v14.667c0 1.467-1.2 2.667-2.667 2.667h-16c-1.48 0-2.667-1.2-2.667-2.667v-14.667c0-0.003-0-0.006-0-0.010 0-1.467 1.189-2.656 2.656-2.656 0.004 0 0.008 0 0.012 0h3.999v2.666h-4v14.667h16v-14.667h-4v-2.666h4c1.467 0 2.667 1.186 2.667 2.666z"></path>
</symbol>
<symbol id="icon-User-_-Light-_-Duotone" viewBox="0 0 32 32">
<path fill="#5e6278" style="fill: var(--color7, #5e6278)" d="M22.667 8c0.001 0.037 0.001 0.080 0.001 0.123 0 3.682-2.985 6.667-6.667 6.667s-6.667-2.985-6.667-6.667c0-0.043 0-0.087 0.001-0.13l-0 0.006c0.069-3.629 3.027-6.544 6.666-6.544s6.597 2.915 6.666 6.538l0 0.006z"></path>
<path fill="#5e6278" style="fill: var(--color7, #5e6278)" opacity="0.25" d="M25.090 18.834c-0.823-0.953-2.233-0.905-3.337-0.302-1.656 0.924-3.633 1.467-5.736 1.467-0.006 0-0.012 0-0.018 0h0.001c-2.085 0-4.046-0.533-5.753-1.467-1.104-0.603-2.514-0.651-3.337 0.299-1.808 2.083-2.91 4.821-2.91 7.817 0 0.007 0 0.013 0 0.020v-0.001 1.333c0 1.472 1.193 2.667 2.667 2.667h18.665c1.474 0 2.667-1.195 2.667-2.667v-1.333c0-0.006 0-0.012 0-0.019 0-2.996-1.102-5.734-2.922-7.832l0.013 0.015z"></path>
</symbol>
<symbol id="icon-View" viewBox="0 0 32 32">
<path fill="#828282" style="fill: var(--color6, #828282)" d="M16 8.25c0.012-0 0.027-0 0.042-0 4.918 0 9.173 2.839 11.215 6.967l0.033 0.073c-2.075 4.201-6.33 7.040-11.248 7.040-0.015 0-0.029-0-0.044-0h0.002c-0.012 0-0.027 0-0.042 0-4.918 0-9.173-2.839-11.215-6.967l-0.033-0.073c2.075-4.201 6.33-7.040 11.248-7.040 0.015 0 0.029 0 0.044 0h-0.002zM16 5.69c-6.4 0-11.866 3.981-14.080 9.6 2.214 5.619 7.68 9.6 14.080 9.6s11.866-3.981 14.080-9.6c-2.214-5.619-7.68-9.6-14.080-9.6zM16 12.090c1.767 0 3.2 1.433 3.2 3.2s-1.433 3.2-3.2 3.2v0c-1.767 0-3.2-1.433-3.2-3.2s1.433-3.2 3.2-3.2v0zM16 9.53c-3.174 0-5.76 2.586-5.76 5.76s2.586 5.76 5.76 5.76 5.76-2.586 5.76-5.76-2.586-5.76-5.76-5.76z"></path>
</symbol>
<symbol id="icon-Voucher-1" viewBox="0 0 32 32">
<path fill="#ffb822" style="fill: var(--color22, #ffb822)" opacity="0.4" d="M18.334 12.937v-2.694c-0.528 0-0.967-0.425-0.967-0.939v-3.206c-0.003-0.423-0.347-0.765-0.77-0.765-0.006 0-0.011 0-0.017 0h-8.859c-2.785 0-5.055 2.203-5.055 4.91v3.243c0 0.251 0.103 0.49 0.285 0.665 0.181 0.175 0.425 0.274 0.683 0.274 0.979 0 1.728 0.677 1.728 1.566 0 0.928-0.761 1.667-1.715 1.679-0.529 0-0.979 0.363-0.979 0.889v3.208c0 2.705 2.269 4.898 5.041 4.898h8.872c0.004 0 0.010 0 0.015 0 0.424 0 0.768-0.342 0.771-0.764v-2.708c0-0.525 0.439-0.939 0.967-0.939v-2.429c-0.528 0-0.967-0.427-0.967-0.939v-5.010c0-0.514 0.439-0.939 0.967-0.939z"></path>
<path fill="#ffb822" style="fill: var(--color22, #ffb822)" d="M26.639 15.993c0 0.927 0.774 1.666 1.714 1.679 0.529 0 0.981 0.363 0.981 0.877v3.219c0 2.707-2.257 4.899-5.042 4.899h-4.203c-0.002 0-0.005 0-0.007 0-0.426 0-0.772-0.341-0.779-0.765v-2.706c0-0.526-0.426-0.941-0.967-0.941v-2.427c0.004 0 0.009 0 0.014 0 0.522 0 0.945-0.419 0.953-0.939v-5.011c-0.006-0.52-0.43-0.94-0.951-0.94-0.006 0-0.011 0-0.017 0h0.001v-2.696c0.004 0 0.010 0 0.015 0 0.521 0 0.945-0.419 0.952-0.939v-3.205c0-0.427 0.361-0.766 0.786-0.766h4.203c2.785 0 5.042 2.192 5.042 4.898v3.155c0 0.251-0.103 0.491-0.283 0.664-0.176 0.171-0.417 0.277-0.683 0.277-0 0-0.001 0-0.001 0h0c-0.954 0-1.728 0.752-1.728 1.665z"></path>
</symbol>
<symbol id="icon-Voucher" viewBox="0 0 32 32">
<path fill="#1b84ff" style="fill: var(--color24, #1b84ff)" opacity="0.4" d="M18.334 12.937v-2.694c-0.528 0-0.967-0.425-0.967-0.939v-3.206c-0.003-0.423-0.347-0.765-0.77-0.765-0.006 0-0.011 0-0.017 0h-8.859c-2.785 0-5.055 2.203-5.055 4.91v3.243c0 0.251 0.103 0.49 0.285 0.665 0.181 0.175 0.425 0.274 0.683 0.274 0.979 0 1.728 0.677 1.728 1.566 0 0.928-0.761 1.667-1.715 1.679-0.529 0-0.979 0.363-0.979 0.889v3.208c0 2.705 2.269 4.898 5.041 4.898h8.872c0.004 0 0.010 0 0.015 0 0.424 0 0.768-0.342 0.771-0.764v-2.708c0-0.525 0.439-0.939 0.967-0.939v-2.429c-0.528 0-0.967-0.427-0.967-0.939v-5.010c0-0.514 0.439-0.939 0.967-0.939z"></path>
<path fill="#1b84ff" style="fill: var(--color24, #1b84ff)" d="M26.639 15.993c0 0.927 0.774 1.666 1.714 1.679 0.529 0 0.981 0.363 0.981 0.877v3.219c0 2.707-2.257 4.899-5.042 4.899h-4.203c-0.002 0-0.005 0-0.007 0-0.426 0-0.772-0.341-0.779-0.765v-2.706c0-0.526-0.426-0.941-0.967-0.941v-2.427c0.004 0 0.009 0 0.014 0 0.522 0 0.945-0.419 0.953-0.939v-5.011c-0.006-0.52-0.43-0.94-0.951-0.94-0.006 0-0.011 0-0.017 0h0.001v-2.696c0.004 0 0.010 0 0.015 0 0.521 0 0.945-0.419 0.952-0.939v-3.205c0-0.427 0.361-0.766 0.786-0.766h4.203c2.785 0 5.042 2.192 5.042 4.898v3.155c0 0.251-0.103 0.491-0.283 0.664-0.176 0.171-0.417 0.277-0.683 0.277-0 0-0.001 0-0.001 0h0c-0.954 0-1.728 0.752-1.728 1.665z"></path>
</symbol>
<symbol id="icon-Voucher-Generated-1" viewBox="0 0 32 32">
<path fill="#7239ea" style="fill: var(--color4, #7239ea)" opacity="0.4" d="M28.334 17.968c-0.002 0-0.004 0-0.007 0-1.088 0-1.971-0.879-1.978-1.965v-0.001c0-1.087 0.89-1.969 1.985-1.969 0.275-0 0.525-0.111 0.706-0.29l-0 0c0.181-0.179 0.293-0.426 0.294-0.7v-0l-0.001-3.57c0-3.017-2.48-5.472-5.525-5.472h-15.616c-3.046 0-5.523 2.455-5.523 5.472l-0.002 3.685c0 0.263 0.106 0.515 0.294 0.702 0.181 0.179 0.43 0.289 0.705 0.289 0.001 0 0.002 0 0.002 0h-0c1.131 0 1.985 0.797 1.985 1.854 0 1.086-0.891 1.967-1.985 1.967-0.002 0-0.004-0-0.006-0-0.549 0-0.993 0.444-0.995 0.992v3.566c0 3.018 2.478 5.474 5.525 5.474h15.618c3.047 0 5.525-2.456 5.525-5.474v-3.566c-0.002-0.548-0.447-0.992-0.995-0.992-0.002 0-0.003 0-0.005 0h0z"></path>
<path fill="#7239ea" style="fill: var(--color4, #7239ea)" d="M20.575 15.451l-1.573 1.531 0.373 2.163c0.010 0.051 0.015 0.11 0.015 0.17 0 0.327-0.161 0.616-0.407 0.793l-0.003 0.002c-0.159 0.119-0.36 0.19-0.578 0.19-0.169 0-0.329-0.043-0.467-0.119l0.005 0.003-1.939-1.021-1.944 1.022c-0.132 0.072-0.29 0.115-0.457 0.115h-0c-0 0-0 0-0 0-0.218 0-0.419-0.071-0.582-0.191l0.003 0.002c-0.248-0.18-0.408-0.47-0.408-0.797 0-0.060 0.005-0.119 0.016-0.176l-0.001 0.006 0.37-2.165-1.571-1.53c-0.185-0.178-0.299-0.428-0.299-0.705 0-0.111 0.018-0.217 0.052-0.316l-0.002 0.007c0.118-0.354 0.423-0.615 0.795-0.668l0.005-0.001 2.168-0.317 0.971-1.969c0.165-0.328 0.498-0.549 0.883-0.549 0.001 0 0.001 0 0.002 0h0.002c0.377 0 0.717 0.211 0.882 0.55l0.971 1.968 2.173 0.318c0.371 0.051 0.678 0.309 0.795 0.667 0.032 0.093 0.051 0.199 0.051 0.31 0 0.276-0.115 0.526-0.3 0.703l-0 0z"></path>
</symbol>
<symbol id="icon-Voucher-Generated-2" viewBox="0 0 32 32">
<path fill="#fff" style="fill: var(--color1, #fff)" opacity="0.4" d="M28.334 17.968c-0.002 0-0.004 0-0.007 0-1.088 0-1.971-0.879-1.978-1.965v-0.001c0-1.087 0.89-1.969 1.985-1.969 0.275-0 0.525-0.111 0.706-0.29l-0 0c0.181-0.179 0.293-0.426 0.294-0.7v-0l-0.001-3.57c0-3.017-2.48-5.472-5.525-5.472h-15.616c-3.046 0-5.523 2.455-5.523 5.472l-0.002 3.685c0 0.263 0.106 0.515 0.294 0.702 0.181 0.179 0.43 0.289 0.705 0.289 0.001 0 0.002 0 0.002 0h-0c1.131 0 1.985 0.797 1.985 1.854 0 1.086-0.891 1.967-1.985 1.967-0.002 0-0.004-0-0.006-0-0.549 0-0.993 0.444-0.995 0.992v3.566c0 3.018 2.478 5.474 5.525 5.474h15.618c3.047 0 5.525-2.456 5.525-5.474v-3.566c-0.002-0.548-0.447-0.992-0.995-0.992-0.002 0-0.003 0-0.005 0h0z"></path>
<path fill="#fff" style="fill: var(--color1, #fff)" d="M14.417 19.997c-0.004 0-0.009 0-0.015 0-0.309 0-0.592-0.111-0.813-0.294l0.002 0.002-3.165-2.712c-0.456-0.392-0.456-1.024 0-1.415 0.223-0.183 0.511-0.294 0.825-0.294s0.602 0.111 0.827 0.295l-0.002-0.002 2.339 2.005 5.504-4.717c0.223-0.183 0.511-0.293 0.825-0.293s0.602 0.111 0.827 0.295l-0.002-0.002c0.457 0.39 0.457 1.024 0 1.415l-6.328 5.424c-0.229 0.194-0.526 0.293-0.825 0.293z"></path>
</symbol>
<symbol id="icon-Voucher-Generated" viewBox="0 0 32 32">
<path fill="#f1416c" style="fill: var(--color27, #f1416c)" opacity="0.4" d="M28.334 17.968c-0.002 0-0.004 0-0.007 0-1.088 0-1.971-0.879-1.978-1.965v-0.001c0-1.087 0.89-1.969 1.985-1.969 0.275-0 0.525-0.111 0.706-0.29l-0 0c0.181-0.179 0.293-0.426 0.294-0.7v-0l-0.001-3.57c0-3.017-2.48-5.472-5.525-5.472h-15.616c-3.046 0-5.523 2.455-5.523 5.472l-0.002 3.685c0 0.263 0.106 0.515 0.294 0.702 0.181 0.179 0.43 0.289 0.705 0.289 0.001 0 0.002 0 0.002 0h-0c1.131 0 1.985 0.797 1.985 1.854 0 1.086-0.891 1.967-1.985 1.967-0.002 0-0.004-0-0.006-0-0.549 0-0.993 0.444-0.995 0.992v3.566c0 3.018 2.478 5.474 5.525 5.474h15.618c3.047 0 5.525-2.456 5.525-5.474v-3.566c-0.002-0.548-0.447-0.992-0.995-0.992-0.002 0-0.003 0-0.005 0h0z"></path>
<path fill="#f1416c" style="fill: var(--color27, #f1416c)" d="M14.417 19.997c-0.004 0-0.009 0-0.015 0-0.309 0-0.592-0.111-0.813-0.294l0.002 0.002-3.165-2.712c-0.456-0.392-0.456-1.024 0-1.415 0.223-0.183 0.511-0.294 0.825-0.294s0.602 0.111 0.827 0.295l-0.002-0.002 2.339 2.005 5.504-4.717c0.223-0.183 0.511-0.293 0.825-0.293s0.602 0.111 0.827 0.295l-0.002-0.002c0.457 0.39 0.457 1.024 0 1.415l-6.328 5.424c-0.229 0.194-0.526 0.293-0.825 0.293z"></path>
</symbol>
<symbol id="icon-vuesax_outline_clock" viewBox="0 0 32 32">
<path fill="#b4b2b7" style="fill: var(--color9, #b4b2b7)" d="M16 30.231c-7.448-0.006-13.484-6.043-13.491-13.49v-0.001c0.006-7.448 6.043-13.484 13.49-13.491h0.001c7.448 0.006 13.484 6.043 13.491 13.49v0.001c-0.006 7.448-6.043 13.484-13.49 13.491h-0.001zM16 5.131c-6.408 0.008-11.601 5.2-11.608 11.608v0.001c0 6.4 5.208 11.608 11.608 11.608s11.608-5.208 11.608-11.608-5.208-11.608-11.608-11.608z"></path>
<path fill="#b4b2b7" style="fill: var(--color9, #b4b2b7)" d="M20.655 21.672c-0.005 0-0.010 0-0.016 0-0.171 0-0.331-0.051-0.464-0.14l0.003 0.002-3.891-2.323c-0.966-0.576-1.681-1.845-1.681-2.961v-5.144c0-0.516 0.427-0.941 0.941-0.941s0.941 0.425 0.941 0.941v5.144c0 0.452 0.376 1.116 0.766 1.342l3.889 2.323c0.278 0.167 0.46 0.467 0.46 0.809 0 0.178-0.049 0.344-0.135 0.486l0.002-0.004c-0.171 0.278-0.472 0.461-0.816 0.465h-0.001z"></path>
</symbol>
<symbol id="icon-icon-menu-transfer-report-3" viewBox="0 0 33 32">
<path fill="#abc7ff" style="fill: var(--color1, #abc7ff)" d="M15.434 3.054c0.126-0.121 0.277-0.217 0.44-0.28 0.149-0.068 0.323-0.107 0.507-0.107s0.358 0.039 0.515 0.11l-0.008-0.003c0.163 0.064 0.313 0.159 0.44 0.28l3.053 3c0.249 0.249 0.403 0.593 0.403 0.973 0 0.76-0.616 1.376-1.376 1.376-0.38 0-0.724-0.154-0.973-0.403v0l-0.72-0.786v4.786c0 0.012 0.001 0.025 0.001 0.039 0 0.737-0.597 1.334-1.334 1.334s-1.334-0.597-1.334-1.334c0-0.014 0-0.027 0.001-0.041l-0 0.002v-4.786l-0.72 0.786c-0.246 0.234-0.58 0.378-0.947 0.378-0.761 0-1.377-0.617-1.377-1.377 0-0.367 0.144-0.7 0.378-0.947l-0.001 0.001 3.054-3z"></path>
<path fill="#1b84ff" style="fill: var(--color2, #1b84ff)" d="M16.381 16c-2.209 0-4 1.791-4 4s1.791 4 4 4v0c2.209 0 4-1.791 4-4s-1.791-4-4-4v0zM16.381 21.334c-0.736 0-1.333-0.597-1.333-1.333s0.597-1.333 1.333-1.333v0c0.736 0 1.333 0.597 1.333 1.333s-0.597 1.333-1.333 1.333v0zM25.714 20c0-0.012 0.001-0.025 0.001-0.039 0-0.737-0.597-1.334-1.334-1.334s-1.334 0.597-1.334 1.334c0 0.014 0 0.027 0.001 0.041l-0-0.002c0.022 0.72 0.61 1.295 1.333 1.295s1.311-0.575 1.333-1.293l0-0.002zM27.048 10.667h-4c-0.012-0-0.025-0.001-0.039-0.001-0.737 0-1.334 0.597-1.334 1.334s0.597 1.334 1.334 1.334c0.014 0 0.027-0 0.041-0.001l-0.002 0h4c0.736 0.001 1.333 0.598 1.333 1.334v0 10.666c-0.001 0.736-0.597 1.332-1.332 1.333h-21.334c-0.736 0-1.333-0.596-1.334-1.332v-10.667c0.001-0.736 0.598-1.331 1.334-1.331 0 0 0 0 0 0h4c0.012 0 0.025 0.001 0.039 0.001 0.737 0 1.334-0.597 1.334-1.334s-0.597-1.334-1.334-1.334c-0.014 0-0.027 0-0.041 0.001l0.002-0h-4c-2.209 0-4 1.791-4 4v0 10.666c0 2.209 1.791 4 4 4v0h21.334c2.209 0 4-1.791 4-4v0-10.667c0-2.209-1.791-4-4-4v0zM7.048 20c0 0.736 0.597 1.333 1.333 1.333s1.333-0.597 1.333-1.333v0c0-0.736-0.597-1.333-1.333-1.333s-1.333 0.597-1.333 1.333v0z"></path>
</symbol>
<symbol id="icon-icon-menu-transfer-report-2" viewBox="0 0 32 32">
<path fill="#95e6b7" style="fill: var(--color3, #95e6b7)" d="M15.054 3.054c0.126-0.121 0.275-0.217 0.44-0.28 0.149-0.068 0.323-0.107 0.506-0.107s0.357 0.039 0.514 0.11l-0.008-0.003c0.163 0.064 0.313 0.159 0.44 0.28l3.054 3c0.249 0.249 0.403 0.593 0.403 0.973 0 0.76-0.616 1.376-1.376 1.376-0.38 0-0.724-0.154-0.973-0.403v0l-0.72-0.786v4.786c0 0.737-0.597 1.334-1.334 1.334s-1.334-0.597-1.334-1.334v0-4.786l-0.72 0.786c-0.249 0.249-0.593 0.403-0.973 0.403-0.76 0-1.376-0.616-1.376-1.376 0-0.38 0.154-0.724 0.403-0.973v0l3.054-3z"></path>
<path fill="#17c653" style="fill: var(--color4, #17c653)" d="M16 16c-2.209 0-4 1.791-4 4s1.791 4 4 4v0c2.209 0 4-1.791 4-4s-1.791-4-4-4v0zM16 21.334c-0.737 0-1.334-0.597-1.334-1.334s0.597-1.334 1.334-1.334v0c0.737 0 1.334 0.597 1.334 1.334s-0.597 1.334-1.334 1.334v0zM25.334 20c0-0.737-0.597-1.334-1.334-1.334s-1.334 0.597-1.334 1.334v0c0 0.737 0.597 1.334 1.334 1.334s1.334-0.597 1.334-1.334v0zM26.666 10.667h-4c-0.72 0.022-1.295 0.61-1.295 1.333s0.575 1.311 1.293 1.333l0.002 0h4c0.737 0 1.334 0.597 1.334 1.334v0 10.666c-0.001 0.736-0.598 1.333-1.334 1.333h-21.333c0 0 0 0 0 0-0.736 0-1.332-0.596-1.334-1.331v-10.668c0.001-0.736 0.598-1.333 1.334-1.333 0 0 0 0 0 0h4c0.012 0 0.025 0.001 0.039 0.001 0.737 0 1.334-0.597 1.334-1.334s-0.597-1.334-1.334-1.334c-0.014 0-0.027 0-0.041 0.001l0.002-0h-4c-2.209 0-4 1.791-4 4v0 10.666c0 2.209 1.791 4 4 4v0h21.333c2.209 0 4-1.791 4-4v0-10.667c0-2.209-1.791-4-4-4v0zM6.666 20c0 0.736 0.597 1.333 1.333 1.333s1.333-0.597 1.333-1.333v0c0-0.736-0.597-1.333-1.333-1.333s-1.333 0.597-1.333 1.333v0z"></path>
</symbol>
<symbol id="icon-icon-menu-transfer-report-1" viewBox="0 0 33 32">
<path fill="#ffd783" style="fill: var(--color5, #ffd783)" d="M15.815 3.054c0.126-0.121 0.277-0.217 0.44-0.28 0.149-0.068 0.323-0.107 0.507-0.107s0.358 0.039 0.515 0.11l-0.008-0.003c0.163 0.064 0.313 0.159 0.44 0.28l3.053 3c0.249 0.249 0.403 0.593 0.403 0.973 0 0.76-0.616 1.376-1.376 1.376-0.38 0-0.724-0.154-0.973-0.403v0l-0.72-0.786v4.786c0 0.012 0.001 0.025 0.001 0.039 0 0.737-0.597 1.334-1.334 1.334s-1.334-0.597-1.334-1.334c0-0.014 0-0.027 0.001-0.041l-0 0.002v-4.786l-0.72 0.786c-0.249 0.249-0.593 0.403-0.974 0.403-0.76 0-1.377-0.616-1.377-1.377 0-0.38 0.154-0.724 0.403-0.973v0l3.054-3z"></path>
<path fill="#ffb822" style="fill: var(--color6, #ffb822)" d="M16.761 16c-2.209 0-4 1.791-4 4s1.791 4 4 4v0c2.209 0 4-1.791 4-4s-1.791-4-4-4v0zM16.761 21.334c-0.736 0-1.333-0.597-1.333-1.333s0.597-1.333 1.333-1.333v0c0.736 0 1.333 0.597 1.333 1.333s-0.597 1.333-1.333 1.333v0zM26.095 20c0-0.012 0.001-0.025 0.001-0.039 0-0.737-0.597-1.334-1.334-1.334s-1.334 0.597-1.334 1.334c0 0.014 0 0.027 0.001 0.041l-0-0.002c0.022 0.72 0.61 1.295 1.333 1.295s1.311-0.575 1.333-1.293l0-0.002zM27.429 10.667h-4c-0.72 0.022-1.295 0.61-1.295 1.333s0.575 1.311 1.293 1.333l0.002 0h4c0.736 0.001 1.333 0.598 1.333 1.334v0 10.666c-0.001 0.736-0.597 1.332-1.332 1.333h-21.334c-0.736 0-1.333-0.596-1.334-1.332v-10.667c0.001-0.736 0.598-1.333 1.334-1.333 0 0 0 0 0 0h4c0.012 0 0.025 0.001 0.039 0.001 0.737 0 1.334-0.597 1.334-1.334s-0.597-1.334-1.334-1.334c-0.014 0-0.027 0-0.041 0.001l0.002-0h-4c-2.209 0-4 1.791-4 4v0 10.666c0 2.209 1.791 4 4 4v0h21.334c2.209 0 4-1.791 4-4v0-10.667c0-2.209-1.791-4-4-4v0zM7.429 20c0 0.736 0.597 1.333 1.333 1.333s1.333-0.597 1.333-1.333v0c0-0.736-0.597-1.333-1.333-1.333s-1.333 0.597-1.333 1.333v0z"></path>
</symbol>
<symbol id="icon-flag-USA" viewBox="0 0 42 32">
<path fill="#bd3d44" style="fill: var(--color1, #bd3d44)" d="M0.444 0.364h58.866v2.412h-58.866v-2.412zM0.444 5.188h58.866v2.412h-58.866v-2.412zM0.444 10.005h58.866v2.417h-58.866v-2.418zM0.444 14.828h58.866v2.412h-58.866v-2.412zM0.444 19.651h58.866v2.412h-58.866v-2.412zM0.444 24.468h58.866v2.411h-58.866v-2.412zM0.444 29.291h58.866v2.412h-58.866v-2.412z"></path>
<path fill="#fff" style="fill: var(--color2, #fff)" d="M0.444 2.776h58.866v2.412h-58.866v-2.412zM0.444 7.599h58.866v2.405h-58.866v-2.404zM0.444 12.417h58.866v2.411h-58.866v-2.412zM0.444 17.239h58.866v2.412h-58.866v-2.412zM0.444 22.062h58.866v2.412h-58.866v-2.412zM0.444 26.88h58.866v2.411h-58.866v-2.411z"></path>
<path fill="#192f5d" style="fill: var(--color3, #192f5d)" d="M0.444 0.364h23.545v16.875h-23.545v-16.875z"></path>
<path fill="#fff" style="fill: var(--color2, #fff)" d="M2.405 1.087l0.218 0.667h0.69l-0.556 0.411 0.212 0.673-0.563-0.416-0.557 0.41 0.212-0.667-0.563-0.411h0.702l0.204-0.667zM6.332 1.087l0.212 0.667h0.696l-0.563 0.411 0.212 0.673-0.556-0.416-0.563 0.41 0.212-0.667-0.556-0.411h0.69l0.218-0.667zM10.253 1.087l0.218 0.667h0.684l-0.557 0.411 0.212 0.673-0.563-0.416-0.556 0.41 0.212-0.667-0.563-0.411h0.696l0.218-0.667zM14.18 1.087l0.212 0.667h0.696l-0.563 0.411 0.218 0.673-0.563-0.416-0.563 0.41 0.218-0.667-0.563-0.411h0.69l0.218-0.667zM18.102 1.087l0.218 0.667h0.69l-0.557 0.411 0.212 0.673-0.564-0.416-0.556 0.41 0.212-0.667-0.556-0.411h0.69l0.212-0.667zM22.029 1.087l0.212 0.667h0.696l-0.563 0.411 0.218 0.673-0.563-0.416-0.564 0.41 0.218-0.667-0.563-0.411h0.696l0.212-0.667zM4.372 2.776l0.212 0.667h0.696l-0.563 0.411 0.206 0.667-0.545-0.409-0.563 0.409 0.2-0.667-0.545-0.41h0.69l0.212-0.667zM8.292 2.776l0.219 0.667h0.69l-0.564 0.411 0.219 0.667-0.564-0.409-0.563 0.409 0.218-0.667-0.563-0.41h0.696l0.212-0.667zM12.22 2.776l0.212 0.667h0.696l-0.563 0.411 0.212 0.667-0.557-0.409-0.563 0.409 0.212-0.667-0.557-0.41h0.69l0.218-0.667zM16.141 2.776l0.218 0.667h0.69l-0.563 0.411 0.218 0.667-0.563-0.409-0.557 0.409 0.212-0.667-0.563-0.41h0.702l0.204-0.667zM20.068 2.776l0.212 0.667h0.696l-0.563 0.411 0.212 0.667-0.556-0.409-0.563 0.409 0.212-0.667-0.556-0.41h0.69l0.218-0.667zM2.405 4.46l0.218 0.679h0.69l-0.556 0.41 0.212 0.667-0.563-0.415-0.557 0.416 0.212-0.673-0.563-0.411h0.702l0.204-0.673zM6.332 4.46l0.212 0.673h0.696l-0.563 0.411 0.212 0.667-0.556-0.416-0.563 0.416 0.212-0.673-0.556-0.411h0.69l0.218-0.667zM10.253 4.46l0.218 0.673h0.684l-0.557 0.411 0.212 0.667-0.563-0.416-0.556 0.416 0.212-0.673-0.563-0.411h0.696l0.218-0.667zM14.18 4.46l0.212 0.673h0.696l-0.563 0.411 0.218 0.667-0.563-0.416-0.563 0.416 0.218-0.673-0.563-0.411h0.69l0.218-0.667zM18.102 4.46l0.218 0.673h0.69l-0.557 0.411 0.212 0.667-0.564-0.416-0.556 0.416 0.212-0.673-0.556-0.411h0.69l0.212-0.667zM22.029 4.46l0.212 0.673h0.696l-0.563 0.411 0.218 0.667-0.563-0.416-0.564 0.416 0.218-0.673-0.563-0.411h0.696l0.212-0.667zM4.372 6.148l0.212 0.667h0.696l-0.563 0.411 0.212 0.674-0.556-0.417-0.563 0.411 0.212-0.667-0.556-0.411h0.69l0.218-0.667zM8.292 6.148l0.219 0.667h0.69l-0.564 0.411 0.219 0.674-0.564-0.417-0.563 0.411 0.218-0.667-0.563-0.411h0.696l0.212-0.667zM12.22 6.148l0.212 0.667h0.696l-0.563 0.411 0.212 0.674-0.557-0.417-0.563 0.411 0.212-0.667-0.557-0.411h0.69l0.218-0.667zM16.141 6.148l0.218 0.667h0.69l-0.556 0.411 0.212 0.674-0.563-0.417-0.557 0.411 0.212-0.667-0.563-0.411h0.702l0.204-0.667zM20.068 6.148l0.212 0.667h0.696l-0.563 0.411 0.212 0.674-0.556-0.417-0.563 0.411 0.212-0.667-0.556-0.411h0.69l0.218-0.667zM2.405 7.837l0.218 0.668h0.69l-0.556 0.411 0.212 0.673-0.563-0.416-0.557 0.41 0.212-0.667-0.563-0.411h0.702l0.204-0.667zM6.332 7.837l0.212 0.668h0.696l-0.563 0.411 0.212 0.667-0.556-0.41-0.563 0.41 0.212-0.667-0.556-0.411h0.69l0.218-0.667zM10.253 7.837l0.218 0.668h0.684l-0.557 0.411 0.212 0.673-0.563-0.416-0.556 0.41 0.212-0.667-0.563-0.411h0.696l0.218-0.667zM14.18 7.837l0.212 0.668h0.696l-0.563 0.411 0.218 0.673-0.563-0.416-0.563 0.41 0.218-0.667-0.563-0.411h0.69l0.218-0.667zM18.102 7.837l0.218 0.668h0.69l-0.557 0.411 0.212 0.673-0.564-0.416-0.556 0.41 0.212-0.667-0.556-0.411h0.69l0.212-0.667zM22.029 7.837l0.212 0.668h0.696l-0.563 0.411 0.218 0.673-0.563-0.416-0.564 0.41 0.218-0.667-0.563-0.411h0.696l0.212-0.667zM4.372 9.528l0.212 0.667h0.696l-0.563 0.411 0.212 0.667-0.556-0.416-0.563 0.417 0.212-0.674-0.556-0.41h0.69l0.218-0.661zM8.292 9.528l0.219 0.667h0.69l-0.564 0.411 0.219 0.667-0.564-0.416-0.563 0.417 0.218-0.674-0.563-0.41h0.696l0.212-0.661zM12.22 9.528l0.212 0.667h0.696l-0.563 0.411 0.212 0.667-0.557-0.416-0.563 0.417 0.212-0.674-0.557-0.41h0.69l0.218-0.661zM16.141 9.528l0.218 0.667h0.69l-0.556 0.411 0.212 0.667-0.563-0.416-0.557 0.417 0.212-0.674-0.563-0.41h0.702l0.204-0.661zM20.068 9.528l0.212 0.667h0.696l-0.563 0.411 0.212 0.667-0.556-0.416-0.563 0.417 0.212-0.674-0.556-0.41h0.69l0.218-0.661zM2.405 11.211l0.218 0.673h0.69l-0.556 0.411 0.212 0.66-0.563-0.41-0.557 0.41 0.212-0.667-0.563-0.411h0.702l0.204-0.667zM6.332 11.211l0.212 0.673h0.696l-0.563 0.411 0.218 0.66-0.563-0.41-0.563 0.41 0.218-0.667-0.563-0.411h0.69l0.218-0.667zM10.253 11.211l0.218 0.673h0.684l-0.557 0.411 0.212 0.66-0.563-0.41-0.556 0.41 0.212-0.667-0.563-0.411h0.696l0.218-0.667zM14.18 11.211l0.212 0.673h0.696l-0.563 0.411 0.218 0.66-0.563-0.41-0.563 0.41 0.218-0.667-0.563-0.411h0.69l0.218-0.667zM18.102 11.211l0.218 0.673h0.69l-0.557 0.411 0.212 0.66-0.564-0.41-0.556 0.41 0.212-0.667-0.556-0.411h0.69l0.212-0.667zM22.029 11.211l0.212 0.673h0.696l-0.563 0.411 0.218 0.66-0.563-0.41-0.564 0.41 0.218-0.667-0.563-0.411h0.696l0.212-0.667zM4.372 12.9l0.212 0.667h0.696l-0.563 0.411 0.212 0.674-0.556-0.417-0.563 0.411 0.212-0.667-0.556-0.411h0.69l0.218-0.667zM8.292 12.9l0.219 0.667h0.69l-0.564 0.411 0.219 0.674-0.564-0.417-0.563 0.411 0.218-0.667-0.563-0.411h0.696l0.212-0.667zM12.22 12.9l0.212 0.667h0.696l-0.563 0.411 0.212 0.674-0.557-0.417-0.563 0.411 0.212-0.667-0.557-0.411h0.69l0.218-0.667zM16.141 12.9l0.218 0.667h0.69l-0.556 0.411 0.212 0.674-0.563-0.417-0.557 0.411 0.212-0.667-0.563-0.411h0.702l0.204-0.667zM20.068 12.9l0.212 0.667h0.696l-0.563 0.411 0.212 0.674-0.556-0.417-0.563 0.411 0.212-0.667-0.556-0.411h0.69l0.218-0.667zM2.405 14.588l0.218 0.668h0.69l-0.556 0.411 0.212 0.667-0.563-0.41-0.557 0.41 0.212-0.673-0.563-0.411h0.702l0.204-0.66zM6.332 14.588l0.212 0.668h0.696l-0.563 0.411 0.218 0.667-0.563-0.41-0.563 0.41 0.218-0.673-0.563-0.411h0.69l0.218-0.66zM10.253 14.588l0.218 0.668h0.684l-0.545 0.411 0.212 0.667-0.563-0.41-0.556 0.41 0.212-0.673-0.563-0.411h0.696l0.205-0.66zM14.18 14.588l0.212 0.668h0.696l-0.563 0.411 0.218 0.667-0.563-0.41-0.563 0.41 0.218-0.673-0.563-0.411h0.69l0.218-0.66zM18.102 14.588l0.218 0.668h0.69l-0.557 0.411 0.212 0.667-0.564-0.41-0.556 0.41 0.212-0.673-0.556-0.411h0.69l0.212-0.66zM22.029 14.588l0.212 0.668h0.696l-0.563 0.411 0.218 0.667-0.563-0.41-0.564 0.41 0.218-0.673-0.563-0.411h0.696l0.212-0.66z"></path>
</symbol>
<symbol id="icon-flag-IR" viewBox="0 0 32 32">
<path fill="#da0001" style="fill: var(--color1, #da0001)" d="M0 24c0 1.964 1.592 3.556 3.556 3.556v0h24.889c1.964 0 3.556-1.592 3.556-3.556v0-3.556h-32v3.556z"></path>
<path fill="#eee" style="fill: var(--color2, #eee)" d="M0 11.556h32v8.889h-32z"></path>
<path fill="#239f40" style="fill: var(--color3, #239f40)" d="M32 11.556v-3.556c0-1.964-1.592-3.556-3.556-3.556v0h-24.889c-1.964 0-3.556 1.592-3.556 3.556v0 3.556h32z"></path>
<path fill="#e96667" style="fill: var(--color4, #e96667)" d="M0 20.444h32v0.889h-32z"></path>
<path fill="#be1931" style="fill: var(--color5, #be1931)" d="M17.302 13.306c0.851 0.436 2.7 2.625 0.709 5.094 1.236-0.274 2.811-3.918-0.709-5.094zM14.692 13.306c-3.519 1.176-1.946 4.82-0.709 5.094-1.991-2.469-0.141-4.659 0.709-5.094zM15.983 13.179c0.036 0.175 0.979 0.388 0.866-0.509-0.149 0.363-0.581 0.352-0.86 0.184-0.384 0.214-0.742 0.162-0.878-0.202-0.132 0.67 0.522 0.867 0.873 0.527z"></path>
<path fill="#be1931" style="fill: var(--color5, #be1931)" d="M18.256 15.915c-0.013-1.109-0.602-2.091-1.181-2.488 0.382 0.468 1.557 3.054-0.698 4.756l0.042-4.531-0.422-0.372-0.422 0.354 0.071 4.574-0.016-0.013c-2.278-1.701-1.096-4.3-0.713-4.769-0.58 0.397-1.169 1.379-1.181 2.488-0.012 0.952 0.424 1.994 1.63 2.849-0.424 0.114-0.911 0.179-1.414 0.179-0.027 0-0.055-0-0.082-0.001l0.004 0c0.412 0.225 1.191 0.171 1.784 0.116l0.001 0.060 0.354 0.388 0.356-0.404v-0.046c0.597 0.055 1.393 0.115 1.812-0.114-0.028 0-0.060 0.001-0.093 0.001-0.515 0-1.013-0.069-1.486-0.199l0.039 0.009c1.195-0.854 1.627-1.891 1.615-2.839z"></path>
<path fill="#7bc58c" style="fill: var(--color6, #7bc58c)" d="M0 10.667h32v0.889h-32z"></path>
</symbol>
</defs>
</svg>
